G04 (created by PCBNEW (2013-07-07 BZR 4022)-stable) date 1/10/2014 11:06:00 AM*
%MOIN*%
G04 Gerber Fmt 3.4, Leading zero omitted, Abs format*
%FSLAX34Y34*%
G01*
G70*
G90*
G04 APERTURE LIST*
%ADD10C,0.00590551*%
%ADD11C,0.011811*%
%ADD12C,0.00393701*%
G04 APERTURE END LIST*
G54D10*
G54D11*
X51079Y-15579D02*
X51079Y-15298D01*
X50798Y-15269D01*
X50826Y-15298D01*
X50854Y-15354D01*
X50854Y-15494D01*
X50826Y-15551D01*
X50798Y-15579D01*
X50742Y-15607D01*
X50601Y-15607D01*
X50545Y-15579D01*
X50517Y-15551D01*
X50489Y-15494D01*
X50489Y-15354D01*
X50517Y-15298D01*
X50545Y-15269D01*
X51079Y-15973D02*
X51079Y-16029D01*
X51051Y-16085D01*
X51023Y-16113D01*
X50967Y-16141D01*
X50854Y-16169D01*
X50714Y-16169D01*
X50601Y-16141D01*
X50545Y-16113D01*
X50517Y-16085D01*
X50489Y-16029D01*
X50489Y-15973D01*
X50517Y-15916D01*
X50545Y-15888D01*
X50601Y-15860D01*
X50714Y-15832D01*
X50854Y-15832D01*
X50967Y-15860D01*
X51023Y-15888D01*
X51051Y-15916D01*
X51079Y-15973D01*
X50545Y-16422D02*
X50517Y-16451D01*
X50489Y-16422D01*
X50517Y-16394D01*
X50545Y-16422D01*
X50489Y-16422D01*
X51079Y-16816D02*
X51079Y-16872D01*
X51051Y-16929D01*
X51023Y-16957D01*
X50967Y-16985D01*
X50854Y-17013D01*
X50714Y-17013D01*
X50601Y-16985D01*
X50545Y-16957D01*
X50517Y-16929D01*
X50489Y-16872D01*
X50489Y-16816D01*
X50517Y-16760D01*
X50545Y-16732D01*
X50601Y-16704D01*
X50714Y-16676D01*
X50854Y-16676D01*
X50967Y-16704D01*
X51023Y-16732D01*
X51051Y-16760D01*
X51079Y-16816D01*
X51079Y-17379D02*
X51079Y-17435D01*
X51051Y-17491D01*
X51023Y-17519D01*
X50967Y-17547D01*
X50854Y-17575D01*
X50714Y-17575D01*
X50601Y-17547D01*
X50545Y-17519D01*
X50517Y-17491D01*
X50489Y-17435D01*
X50489Y-17379D01*
X50517Y-17322D01*
X50545Y-17294D01*
X50601Y-17266D01*
X50714Y-17238D01*
X50854Y-17238D01*
X50967Y-17266D01*
X51023Y-17294D01*
X51051Y-17322D01*
X51079Y-17379D01*
X51079Y-17941D02*
X51079Y-17997D01*
X51051Y-18053D01*
X51023Y-18082D01*
X50967Y-18110D01*
X50854Y-18138D01*
X50714Y-18138D01*
X50601Y-18110D01*
X50545Y-18082D01*
X50517Y-18053D01*
X50489Y-17997D01*
X50489Y-17941D01*
X50517Y-17885D01*
X50545Y-17857D01*
X50601Y-17829D01*
X50714Y-17800D01*
X50854Y-17800D01*
X50967Y-17829D01*
X51023Y-17857D01*
X51051Y-17885D01*
X51079Y-17941D01*
X50489Y-18841D02*
X50883Y-18841D01*
X50826Y-18841D02*
X50854Y-18869D01*
X50883Y-18925D01*
X50883Y-19010D01*
X50854Y-19066D01*
X50798Y-19094D01*
X50489Y-19094D01*
X50798Y-19094D02*
X50854Y-19122D01*
X50883Y-19178D01*
X50883Y-19263D01*
X50854Y-19319D01*
X50798Y-19347D01*
X50489Y-19347D01*
X50489Y-19628D02*
X50883Y-19628D01*
X50826Y-19628D02*
X50854Y-19656D01*
X50883Y-19713D01*
X50883Y-19797D01*
X50854Y-19853D01*
X50798Y-19881D01*
X50489Y-19881D01*
X50798Y-19881D02*
X50854Y-19910D01*
X50883Y-19966D01*
X50883Y-20050D01*
X50854Y-20106D01*
X50798Y-20134D01*
X50489Y-20134D01*
X50196Y-7874D02*
X50196Y-27559D01*
X47244Y-7874D02*
X51259Y-7874D01*
X47244Y-27559D02*
X51259Y-27559D01*
X50196Y-27559D02*
X49965Y-27115D01*
X50196Y-27559D02*
X50427Y-27115D01*
X50196Y-7874D02*
X49965Y-8317D01*
X50196Y-7874D02*
X50427Y-8317D01*
X25168Y-30691D02*
X24831Y-30691D01*
X25000Y-30691D02*
X25000Y-30101D01*
X24943Y-30185D01*
X24887Y-30241D01*
X24831Y-30269D01*
X25534Y-30101D02*
X25590Y-30101D01*
X25646Y-30129D01*
X25674Y-30157D01*
X25703Y-30213D01*
X25731Y-30326D01*
X25731Y-30466D01*
X25703Y-30579D01*
X25674Y-30635D01*
X25646Y-30663D01*
X25590Y-30691D01*
X25534Y-30691D01*
X25478Y-30663D01*
X25449Y-30635D01*
X25421Y-30579D01*
X25393Y-30466D01*
X25393Y-30326D01*
X25421Y-30213D01*
X25449Y-30157D01*
X25478Y-30129D01*
X25534Y-30101D01*
X26096Y-30101D02*
X26152Y-30101D01*
X26209Y-30129D01*
X26237Y-30157D01*
X26265Y-30213D01*
X26293Y-30326D01*
X26293Y-30466D01*
X26265Y-30579D01*
X26237Y-30635D01*
X26209Y-30663D01*
X26152Y-30691D01*
X26096Y-30691D01*
X26040Y-30663D01*
X26012Y-30635D01*
X25984Y-30579D01*
X25956Y-30466D01*
X25956Y-30326D01*
X25984Y-30213D01*
X26012Y-30157D01*
X26040Y-30129D01*
X26096Y-30101D01*
X26546Y-30635D02*
X26574Y-30663D01*
X26546Y-30691D01*
X26518Y-30663D01*
X26546Y-30635D01*
X26546Y-30691D01*
X26940Y-30101D02*
X26996Y-30101D01*
X27052Y-30129D01*
X27080Y-30157D01*
X27109Y-30213D01*
X27137Y-30326D01*
X27137Y-30466D01*
X27109Y-30579D01*
X27080Y-30635D01*
X27052Y-30663D01*
X26996Y-30691D01*
X26940Y-30691D01*
X26884Y-30663D01*
X26856Y-30635D01*
X26827Y-30579D01*
X26799Y-30466D01*
X26799Y-30326D01*
X26827Y-30213D01*
X26856Y-30157D01*
X26884Y-30129D01*
X26940Y-30101D01*
X27502Y-30101D02*
X27559Y-30101D01*
X27615Y-30129D01*
X27643Y-30157D01*
X27671Y-30213D01*
X27699Y-30326D01*
X27699Y-30466D01*
X27671Y-30579D01*
X27643Y-30635D01*
X27615Y-30663D01*
X27559Y-30691D01*
X27502Y-30691D01*
X27446Y-30663D01*
X27418Y-30635D01*
X27390Y-30579D01*
X27362Y-30466D01*
X27362Y-30326D01*
X27390Y-30213D01*
X27418Y-30157D01*
X27446Y-30129D01*
X27502Y-30101D01*
X28065Y-30101D02*
X28121Y-30101D01*
X28177Y-30129D01*
X28205Y-30157D01*
X28233Y-30213D01*
X28262Y-30326D01*
X28262Y-30466D01*
X28233Y-30579D01*
X28205Y-30635D01*
X28177Y-30663D01*
X28121Y-30691D01*
X28065Y-30691D01*
X28008Y-30663D01*
X27980Y-30635D01*
X27952Y-30579D01*
X27924Y-30466D01*
X27924Y-30326D01*
X27952Y-30213D01*
X27980Y-30157D01*
X28008Y-30129D01*
X28065Y-30101D01*
X28965Y-30691D02*
X28965Y-30298D01*
X28965Y-30354D02*
X28993Y-30326D01*
X29049Y-30298D01*
X29133Y-30298D01*
X29190Y-30326D01*
X29218Y-30382D01*
X29218Y-30691D01*
X29218Y-30382D02*
X29246Y-30326D01*
X29302Y-30298D01*
X29386Y-30298D01*
X29443Y-30326D01*
X29471Y-30382D01*
X29471Y-30691D01*
X29752Y-30691D02*
X29752Y-30298D01*
X29752Y-30354D02*
X29780Y-30326D01*
X29836Y-30298D01*
X29921Y-30298D01*
X29977Y-30326D01*
X30005Y-30382D01*
X30005Y-30691D01*
X30005Y-30382D02*
X30033Y-30326D01*
X30089Y-30298D01*
X30174Y-30298D01*
X30230Y-30326D01*
X30258Y-30382D01*
X30258Y-30691D01*
X7874Y-29921D02*
X47244Y-29921D01*
X7874Y-27559D02*
X7874Y-30984D01*
X47244Y-27559D02*
X47244Y-30984D01*
X47244Y-29921D02*
X46800Y-30152D01*
X47244Y-29921D02*
X46800Y-29690D01*
X7874Y-29921D02*
X8317Y-30152D01*
X7874Y-29921D02*
X8317Y-29690D01*
G54D12*
X47244Y-7874D02*
X7874Y-7874D01*
X47244Y-27559D02*
X47244Y-7874D01*
X7874Y-27559D02*
X47244Y-27559D01*
X7874Y-7874D02*
X7874Y-27559D01*
M02*
