G04 (created by PCBNEW (2013-07-07 BZR 4022)-stable) date 1/10/2014 11:24:51 AM*
%MOIN*%
G04 Gerber Fmt 3.4, Leading zero omitted, Abs format*
%FSLAX34Y34*%
G01*
G70*
G90*
G04 APERTURE LIST*
%ADD10C,0.00590551*%
%ADD11C,0.00738189*%
%ADD12O,0.12X0.06*%
%ADD13R,0.05X0.1*%
%ADD14R,0.08X0.06*%
%ADD15R,0.035X0.055*%
%ADD16R,0.055X0.035*%
%ADD17R,0.06X0.08*%
%ADD18R,0.0944882X0.125984*%
%ADD19R,0.0472X0.0472*%
%ADD20R,0.0551181X0.0551181*%
%ADD21C,0.0511811*%
%ADD22C,0.0551181*%
%ADD23O,0.06X0.12*%
%ADD24C,0.06*%
%ADD25R,0.025X0.045*%
%ADD26R,0.0562992X0.209843*%
%ADD27R,0.0464567X0.173228*%
%ADD28R,0.0866X0.0236*%
%ADD29R,0.059X0.011*%
%ADD30R,0.011X0.059*%
%ADD31R,0.1X0.05*%
%ADD32R,0.0157X0.0236*%
%ADD33R,0.03X0.02*%
%ADD34R,0.02X0.045*%
%ADD35C,0.0590551*%
%ADD36R,0.023622X0.0629921*%
%ADD37R,0.0629921X0.023622*%
%ADD38R,0.191339X0.132283*%
%ADD39C,0.255906*%
%ADD40R,0.0394X0.0315*%
%ADD41R,0.106299X0.192913*%
%ADD42C,0.023622*%
%ADD43C,0.0255906*%
%ADD44R,0.0846457X0.0177165*%
%ADD45R,0.185039X0.0590551*%
%ADD46R,0.165354X0.122047*%
%ADD47R,0.0275591X0.0452756*%
%ADD48R,0.02X0.03*%
%ADD49R,0.085X0.107992*%
%ADD50R,0.045X0.025*%
%ADD51C,0.074*%
%ADD52C,0.045*%
%ADD53R,0.0590551X0.185039*%
%ADD54R,0.122047X0.165354*%
%ADD55R,0.0452756X0.0275591*%
%ADD56R,0.045X0.02*%
%ADD57R,0.0394X0.0276*%
%ADD58R,0.0276X0.0394*%
%ADD59C,0.035*%
%ADD60C,0.00984252*%
%ADD61C,0.019685*%
%ADD62C,0.0393701*%
%ADD63C,0.01*%
%ADD64C,0.0787402*%
%ADD65C,0.0295276*%
G04 APERTURE END LIST*
G54D10*
G54D11*
X26195Y-22462D02*
X26195Y-22757D01*
X26195Y-22476D02*
X26223Y-22462D01*
X26279Y-22462D01*
X26307Y-22476D01*
X26321Y-22490D01*
X26335Y-22518D01*
X26335Y-22602D01*
X26321Y-22630D01*
X26307Y-22644D01*
X26279Y-22658D01*
X26223Y-22658D01*
X26195Y-22644D01*
X26504Y-22658D02*
X26476Y-22644D01*
X26462Y-22630D01*
X26448Y-22602D01*
X26448Y-22518D01*
X26462Y-22490D01*
X26476Y-22476D01*
X26504Y-22462D01*
X26546Y-22462D01*
X26574Y-22476D01*
X26588Y-22490D01*
X26602Y-22518D01*
X26602Y-22602D01*
X26588Y-22630D01*
X26574Y-22644D01*
X26546Y-22658D01*
X26504Y-22658D01*
X26701Y-22462D02*
X26757Y-22658D01*
X26813Y-22518D01*
X26870Y-22658D01*
X26926Y-22462D01*
X27151Y-22644D02*
X27123Y-22658D01*
X27066Y-22658D01*
X27038Y-22644D01*
X27024Y-22616D01*
X27024Y-22504D01*
X27038Y-22476D01*
X27066Y-22462D01*
X27123Y-22462D01*
X27151Y-22476D01*
X27165Y-22504D01*
X27165Y-22532D01*
X27024Y-22560D01*
X27291Y-22658D02*
X27291Y-22462D01*
X27291Y-22518D02*
X27305Y-22490D01*
X27320Y-22476D01*
X27348Y-22462D01*
X27376Y-22462D01*
X27474Y-22658D02*
X27474Y-22363D01*
X27474Y-22476D02*
X27502Y-22462D01*
X27559Y-22462D01*
X27587Y-22476D01*
X27601Y-22490D01*
X27615Y-22518D01*
X27615Y-22602D01*
X27601Y-22630D01*
X27587Y-22644D01*
X27559Y-22658D01*
X27502Y-22658D01*
X27474Y-22644D01*
X27784Y-22658D02*
X27755Y-22644D01*
X27741Y-22630D01*
X27727Y-22602D01*
X27727Y-22518D01*
X27741Y-22490D01*
X27755Y-22476D01*
X27784Y-22462D01*
X27826Y-22462D01*
X27854Y-22476D01*
X27868Y-22490D01*
X27882Y-22518D01*
X27882Y-22602D01*
X27868Y-22630D01*
X27854Y-22644D01*
X27826Y-22658D01*
X27784Y-22658D01*
X28135Y-22658D02*
X28135Y-22504D01*
X28121Y-22476D01*
X28093Y-22462D01*
X28037Y-22462D01*
X28008Y-22476D01*
X28135Y-22644D02*
X28107Y-22658D01*
X28037Y-22658D01*
X28008Y-22644D01*
X27994Y-22616D01*
X27994Y-22588D01*
X28008Y-22560D01*
X28037Y-22546D01*
X28107Y-22546D01*
X28135Y-22532D01*
X28276Y-22658D02*
X28276Y-22462D01*
X28276Y-22518D02*
X28290Y-22490D01*
X28304Y-22476D01*
X28332Y-22462D01*
X28360Y-22462D01*
X28585Y-22658D02*
X28585Y-22363D01*
X28585Y-22644D02*
X28557Y-22658D01*
X28501Y-22658D01*
X28473Y-22644D01*
X28458Y-22630D01*
X28444Y-22602D01*
X28444Y-22518D01*
X28458Y-22490D01*
X28473Y-22476D01*
X28501Y-22462D01*
X28557Y-22462D01*
X28585Y-22476D01*
X28922Y-22462D02*
X28993Y-22658D01*
X29063Y-22462D01*
X29330Y-22658D02*
X29161Y-22658D01*
X29246Y-22658D02*
X29246Y-22363D01*
X29218Y-22405D01*
X29190Y-22433D01*
X29161Y-22447D01*
X26265Y-23633D02*
X26265Y-23338D01*
X26434Y-23633D01*
X26434Y-23338D01*
X26560Y-23548D02*
X26701Y-23548D01*
X26532Y-23633D02*
X26631Y-23338D01*
X26729Y-23633D01*
X26813Y-23619D02*
X26856Y-23633D01*
X26926Y-23633D01*
X26954Y-23619D01*
X26968Y-23605D01*
X26982Y-23577D01*
X26982Y-23548D01*
X26968Y-23520D01*
X26954Y-23506D01*
X26926Y-23492D01*
X26870Y-23478D01*
X26841Y-23464D01*
X26827Y-23450D01*
X26813Y-23422D01*
X26813Y-23394D01*
X26827Y-23366D01*
X26841Y-23352D01*
X26870Y-23338D01*
X26940Y-23338D01*
X26982Y-23352D01*
X27095Y-23548D02*
X27235Y-23548D01*
X27066Y-23633D02*
X27165Y-23338D01*
X27263Y-23633D01*
X27573Y-23548D02*
X27713Y-23548D01*
X27544Y-23633D02*
X27643Y-23338D01*
X27741Y-23633D01*
X28008Y-23633D02*
X27910Y-23492D01*
X27840Y-23633D02*
X27840Y-23338D01*
X27952Y-23338D01*
X27980Y-23352D01*
X27994Y-23366D01*
X28008Y-23394D01*
X28008Y-23436D01*
X27994Y-23464D01*
X27980Y-23478D01*
X27952Y-23492D01*
X27840Y-23492D01*
X28304Y-23605D02*
X28290Y-23619D01*
X28248Y-23633D01*
X28219Y-23633D01*
X28177Y-23619D01*
X28149Y-23591D01*
X28135Y-23562D01*
X28121Y-23506D01*
X28121Y-23464D01*
X28135Y-23408D01*
X28149Y-23380D01*
X28177Y-23352D01*
X28219Y-23338D01*
X28248Y-23338D01*
X28290Y-23352D01*
X28304Y-23366D01*
X28655Y-23633D02*
X28655Y-23338D01*
X28965Y-23633D02*
X28866Y-23492D01*
X28796Y-23633D02*
X28796Y-23338D01*
X28908Y-23338D01*
X28937Y-23352D01*
X28951Y-23366D01*
X28965Y-23394D01*
X28965Y-23436D01*
X28951Y-23464D01*
X28937Y-23478D01*
X28908Y-23492D01*
X28796Y-23492D01*
X29246Y-23352D02*
X29218Y-23338D01*
X29176Y-23338D01*
X29133Y-23352D01*
X29105Y-23380D01*
X29091Y-23408D01*
X29077Y-23464D01*
X29077Y-23506D01*
X29091Y-23562D01*
X29105Y-23591D01*
X29133Y-23619D01*
X29176Y-23633D01*
X29204Y-23633D01*
X29246Y-23619D01*
X29260Y-23605D01*
X29260Y-23506D01*
X29204Y-23506D01*
X26103Y-24120D02*
X26103Y-23825D01*
X26272Y-24120D02*
X26145Y-23951D01*
X26272Y-23825D02*
X26103Y-23993D01*
X26511Y-24106D02*
X26483Y-24120D01*
X26427Y-24120D01*
X26399Y-24106D01*
X26384Y-24078D01*
X26384Y-23965D01*
X26399Y-23937D01*
X26427Y-23923D01*
X26483Y-23923D01*
X26511Y-23937D01*
X26525Y-23965D01*
X26525Y-23993D01*
X26384Y-24022D01*
X26652Y-23923D02*
X26652Y-24120D01*
X26652Y-23951D02*
X26666Y-23937D01*
X26694Y-23923D01*
X26736Y-23923D01*
X26764Y-23937D01*
X26778Y-23965D01*
X26778Y-24120D01*
X27312Y-24092D02*
X27298Y-24106D01*
X27256Y-24120D01*
X27228Y-24120D01*
X27186Y-24106D01*
X27158Y-24078D01*
X27144Y-24050D01*
X27130Y-23993D01*
X27130Y-23951D01*
X27144Y-23895D01*
X27158Y-23867D01*
X27186Y-23839D01*
X27228Y-23825D01*
X27256Y-23825D01*
X27298Y-23839D01*
X27312Y-23853D01*
X27566Y-24120D02*
X27566Y-23965D01*
X27552Y-23937D01*
X27523Y-23923D01*
X27467Y-23923D01*
X27439Y-23937D01*
X27566Y-24106D02*
X27537Y-24120D01*
X27467Y-24120D01*
X27439Y-24106D01*
X27425Y-24078D01*
X27425Y-24050D01*
X27439Y-24022D01*
X27467Y-24008D01*
X27537Y-24008D01*
X27566Y-23993D01*
X27748Y-24120D02*
X27720Y-24106D01*
X27706Y-24078D01*
X27706Y-23825D01*
X27987Y-23923D02*
X27987Y-24120D01*
X27861Y-23923D02*
X27861Y-24078D01*
X27875Y-24106D01*
X27903Y-24120D01*
X27945Y-24120D01*
X27973Y-24106D01*
X27987Y-24092D01*
X28100Y-23923D02*
X28156Y-24120D01*
X28212Y-23979D01*
X28269Y-24120D01*
X28325Y-23923D01*
X28564Y-24120D02*
X28564Y-23965D01*
X28550Y-23937D01*
X28522Y-23923D01*
X28465Y-23923D01*
X28437Y-23937D01*
X28564Y-24106D02*
X28536Y-24120D01*
X28465Y-24120D01*
X28437Y-24106D01*
X28423Y-24078D01*
X28423Y-24050D01*
X28437Y-24022D01*
X28465Y-24008D01*
X28536Y-24008D01*
X28564Y-23993D01*
X28817Y-24106D02*
X28789Y-24120D01*
X28733Y-24120D01*
X28705Y-24106D01*
X28690Y-24078D01*
X28690Y-23965D01*
X28705Y-23937D01*
X28733Y-23923D01*
X28789Y-23923D01*
X28817Y-23937D01*
X28831Y-23965D01*
X28831Y-23993D01*
X28690Y-24022D01*
X28958Y-24120D02*
X28958Y-23923D01*
X28958Y-23979D02*
X28972Y-23951D01*
X28986Y-23937D01*
X29014Y-23923D01*
X29042Y-23923D01*
X29098Y-23923D02*
X29211Y-23923D01*
X29140Y-23825D02*
X29140Y-24078D01*
X29154Y-24106D01*
X29183Y-24120D01*
X29211Y-24120D01*
X29295Y-24106D02*
X29323Y-24120D01*
X29379Y-24120D01*
X29408Y-24106D01*
X29422Y-24078D01*
X29422Y-24064D01*
X29408Y-24036D01*
X29379Y-24022D01*
X29337Y-24022D01*
X29309Y-24008D01*
X29295Y-23979D01*
X29295Y-23965D01*
X29309Y-23937D01*
X29337Y-23923D01*
X29379Y-23923D01*
X29408Y-23937D01*
G54D12*
X39566Y-12114D03*
X39566Y-11114D03*
G54D13*
X42850Y-11275D03*
X44050Y-11275D03*
G54D14*
X34645Y-22775D03*
X34645Y-24075D03*
G54D15*
X32695Y-12204D03*
X33445Y-12204D03*
X39745Y-25590D03*
X38995Y-25590D03*
G54D16*
X39763Y-14191D03*
X39763Y-14941D03*
X34251Y-13170D03*
X34251Y-12420D03*
G54D15*
X43522Y-22834D03*
X44272Y-22834D03*
G54D13*
X42125Y-11275D03*
X40925Y-11275D03*
G54D15*
X41319Y-25590D03*
X40569Y-25590D03*
X37813Y-14763D03*
X38563Y-14763D03*
X39745Y-19488D03*
X38995Y-19488D03*
G54D17*
X33720Y-13976D03*
X32420Y-13976D03*
G54D15*
X13207Y-20472D03*
X13957Y-20472D03*
G54D16*
X15354Y-16319D03*
X15354Y-15569D03*
X14566Y-18878D03*
X14566Y-18128D03*
G54D15*
X42932Y-16043D03*
X43682Y-16043D03*
X16062Y-22244D03*
X16812Y-22244D03*
G54D16*
X17027Y-23640D03*
X17027Y-24390D03*
X18110Y-23640D03*
X18110Y-24390D03*
X19094Y-23640D03*
X19094Y-24390D03*
G54D15*
X25215Y-17322D03*
X25965Y-17322D03*
G54D16*
X18011Y-13306D03*
X18011Y-14056D03*
G54D15*
X19666Y-22244D03*
X18916Y-22244D03*
G54D16*
X21555Y-23640D03*
X21555Y-24390D03*
X18897Y-13995D03*
X18897Y-14745D03*
X21653Y-18424D03*
X21653Y-19174D03*
X11614Y-14745D03*
X11614Y-13995D03*
X24015Y-19666D03*
X24015Y-18916D03*
G54D18*
X36614Y-15551D03*
X34015Y-15551D03*
G54D19*
X32559Y-26968D03*
X33385Y-26968D03*
X30886Y-26968D03*
X31712Y-26968D03*
X29842Y-26968D03*
X29016Y-26968D03*
X24231Y-26968D03*
X23405Y-26968D03*
X26003Y-26968D03*
X25177Y-26968D03*
X27873Y-26968D03*
X27047Y-26968D03*
X11712Y-17894D03*
X11712Y-18720D03*
G54D20*
X12204Y-9606D03*
G54D21*
X11417Y-8661D03*
G54D22*
X12992Y-9606D03*
X13779Y-9606D03*
G54D21*
X14566Y-8661D03*
G54D20*
X16338Y-9606D03*
G54D21*
X15551Y-8661D03*
G54D22*
X17125Y-9606D03*
X17913Y-9606D03*
G54D21*
X18700Y-8661D03*
X26377Y-8661D03*
G54D20*
X27165Y-9606D03*
G54D22*
X27952Y-9606D03*
G54D21*
X28740Y-8661D03*
X29724Y-8661D03*
G54D20*
X30511Y-9606D03*
G54D22*
X31299Y-9606D03*
G54D21*
X32086Y-8661D03*
X19685Y-8661D03*
G54D20*
X20472Y-9606D03*
G54D22*
X21259Y-9606D03*
G54D21*
X22047Y-8661D03*
X23031Y-8661D03*
G54D20*
X23818Y-9606D03*
G54D22*
X24606Y-9606D03*
G54D21*
X25393Y-8661D03*
X33070Y-8661D03*
G54D20*
X33858Y-9606D03*
G54D22*
X34645Y-9606D03*
G54D21*
X35433Y-8661D03*
X19094Y-26771D03*
G54D20*
X18307Y-25826D03*
G54D22*
X17519Y-25826D03*
G54D21*
X16732Y-26771D03*
X22440Y-26771D03*
G54D20*
X21653Y-25826D03*
G54D22*
X20866Y-25826D03*
G54D21*
X20078Y-26771D03*
G54D23*
X11385Y-26279D03*
X12385Y-26279D03*
X13385Y-26279D03*
X14385Y-26279D03*
X15385Y-26279D03*
G54D24*
X21594Y-11114D03*
X21594Y-12114D03*
X20594Y-11114D03*
X20594Y-12114D03*
X19594Y-11114D03*
X19594Y-12114D03*
X18594Y-11114D03*
X18594Y-12114D03*
X17594Y-11114D03*
X17594Y-12114D03*
X16594Y-11114D03*
X16594Y-12114D03*
G54D12*
X44881Y-21759D03*
X44881Y-20759D03*
X43425Y-8751D03*
X43425Y-9751D03*
G54D23*
X28059Y-18897D03*
X27059Y-18897D03*
X29224Y-18897D03*
X30224Y-18897D03*
G54D25*
X11904Y-11023D03*
X12504Y-11023D03*
G54D12*
X9448Y-23397D03*
X9448Y-22397D03*
X9448Y-21397D03*
X9448Y-20397D03*
X9448Y-19397D03*
X9448Y-18397D03*
X9448Y-17397D03*
X9448Y-16397D03*
X9448Y-15397D03*
X9448Y-14397D03*
G54D24*
X10826Y-21456D03*
G54D23*
X11818Y-20078D03*
X10818Y-20078D03*
G54D26*
X39566Y-21259D03*
X41157Y-21259D03*
G54D27*
X32480Y-15551D03*
X31177Y-15551D03*
G54D15*
X34270Y-10826D03*
X35020Y-10826D03*
G54D16*
X43925Y-23525D03*
X43925Y-24275D03*
X21653Y-20453D03*
X21653Y-19703D03*
G54D15*
X33445Y-12992D03*
X32695Y-12992D03*
X37284Y-17027D03*
X36534Y-17027D03*
X41319Y-26574D03*
X40569Y-26574D03*
X37973Y-10826D03*
X37223Y-10826D03*
G54D16*
X33661Y-24428D03*
X33661Y-25178D03*
G54D15*
X37973Y-11614D03*
X37223Y-11614D03*
X42965Y-25400D03*
X43715Y-25400D03*
G54D16*
X33661Y-23800D03*
X33661Y-23050D03*
X34645Y-25768D03*
X34645Y-25018D03*
X42125Y-26002D03*
X42125Y-26752D03*
X35629Y-25571D03*
X35629Y-24821D03*
G54D15*
X38367Y-19488D03*
X37617Y-19488D03*
X34467Y-11614D03*
X35217Y-11614D03*
X35648Y-10826D03*
X36398Y-10826D03*
X33445Y-26181D03*
X32695Y-26181D03*
G54D16*
X32578Y-17697D03*
X32578Y-16947D03*
G54D15*
X31378Y-26181D03*
X30628Y-26181D03*
X35315Y-17027D03*
X34565Y-17027D03*
X29054Y-26181D03*
X29804Y-26181D03*
X13957Y-19685D03*
X13207Y-19685D03*
G54D16*
X13779Y-18878D03*
X13779Y-18128D03*
G54D15*
X23443Y-26181D03*
X24193Y-26181D03*
X25018Y-26181D03*
X25768Y-26181D03*
X26888Y-26181D03*
X27638Y-26181D03*
X17304Y-13976D03*
X16554Y-13976D03*
X15532Y-11023D03*
X14782Y-11023D03*
X13207Y-11023D03*
X13957Y-11023D03*
G54D16*
X21259Y-13760D03*
X21259Y-13010D03*
X20275Y-13760D03*
X20275Y-13010D03*
X10629Y-14745D03*
X10629Y-13995D03*
X24015Y-21475D03*
X24015Y-22225D03*
X16338Y-23640D03*
X16338Y-24390D03*
X24901Y-21475D03*
X24901Y-22225D03*
X23917Y-23640D03*
X23917Y-24390D03*
X12598Y-17932D03*
X12598Y-18682D03*
X20669Y-24390D03*
X20669Y-23640D03*
X19783Y-23640D03*
X19783Y-24390D03*
X10826Y-18583D03*
X10826Y-17833D03*
G54D15*
X43424Y-15157D03*
X44174Y-15157D03*
G54D16*
X22244Y-23640D03*
X22244Y-24390D03*
G54D28*
X11073Y-13350D03*
X11073Y-12850D03*
X11073Y-12350D03*
X11073Y-11850D03*
X9027Y-11850D03*
X9027Y-12350D03*
X9027Y-12850D03*
X9027Y-13350D03*
G54D29*
X16220Y-16831D03*
X16220Y-17028D03*
X16220Y-17225D03*
X16220Y-17422D03*
X16220Y-17619D03*
X16220Y-17815D03*
X16220Y-18012D03*
X16220Y-18209D03*
X16220Y-18405D03*
X16220Y-18602D03*
X16220Y-18799D03*
X16220Y-18995D03*
X16220Y-19192D03*
X16220Y-19389D03*
X16220Y-19586D03*
X16220Y-19783D03*
G54D30*
X17027Y-20590D03*
X17224Y-20590D03*
X17421Y-20590D03*
X17618Y-20590D03*
X17815Y-20590D03*
X18011Y-20590D03*
X18208Y-20590D03*
X18405Y-20590D03*
X18601Y-20590D03*
X18798Y-20590D03*
X18995Y-20590D03*
X19191Y-20590D03*
X19388Y-20590D03*
X19585Y-20590D03*
X19782Y-20590D03*
X19979Y-20590D03*
G54D29*
X20786Y-19783D03*
X20786Y-19586D03*
X20786Y-19389D03*
X20786Y-19192D03*
X20786Y-18995D03*
X20786Y-18799D03*
X20786Y-18602D03*
X20786Y-18405D03*
X20786Y-18209D03*
X20786Y-18012D03*
X20786Y-17815D03*
X20786Y-17619D03*
X20786Y-17422D03*
X20786Y-17225D03*
X20786Y-17028D03*
X20786Y-16831D03*
G54D30*
X19979Y-16024D03*
X19782Y-16024D03*
X19585Y-16024D03*
X19388Y-16024D03*
X19191Y-16024D03*
X18995Y-16024D03*
X18798Y-16024D03*
X18601Y-16024D03*
X18405Y-16024D03*
X18208Y-16024D03*
X18011Y-16024D03*
X17815Y-16024D03*
X17618Y-16024D03*
X17421Y-16024D03*
X17224Y-16024D03*
X17027Y-16024D03*
G54D16*
X35826Y-23443D03*
X35826Y-24193D03*
G54D14*
X43503Y-20609D03*
X43503Y-21909D03*
X42519Y-20609D03*
X42519Y-21909D03*
G54D13*
X24892Y-15059D03*
X26092Y-15059D03*
X26092Y-16338D03*
X24892Y-16338D03*
G54D31*
X31692Y-11407D03*
X31692Y-12607D03*
G54D19*
X43733Y-26740D03*
X42907Y-26740D03*
G54D25*
X30221Y-17519D03*
X29621Y-17519D03*
G54D32*
X31968Y-10728D03*
X31614Y-10728D03*
G54D16*
X24114Y-18288D03*
X24114Y-17538D03*
G54D33*
X45972Y-23406D03*
X45972Y-22656D03*
X44972Y-23406D03*
X45972Y-23031D03*
X44972Y-22656D03*
G54D34*
X38029Y-15875D03*
X38529Y-15875D03*
X39029Y-15875D03*
X39529Y-15875D03*
X39529Y-18375D03*
X39029Y-18375D03*
X38529Y-18375D03*
X38029Y-18375D03*
G54D17*
X45138Y-12401D03*
X43838Y-12401D03*
G54D35*
X37007Y-26771D03*
X37795Y-26771D03*
X38582Y-26771D03*
X36181Y-26771D03*
X39409Y-26771D03*
G54D36*
X36663Y-23346D03*
X36663Y-25472D03*
X37155Y-23346D03*
X37647Y-23346D03*
X38139Y-23346D03*
X37155Y-25472D03*
X37647Y-25472D03*
X38139Y-25472D03*
X42765Y-17047D03*
X42765Y-19173D03*
X43257Y-17047D03*
X43750Y-17047D03*
X44242Y-17047D03*
X43257Y-19173D03*
X43750Y-19173D03*
X44242Y-19173D03*
G54D37*
X13267Y-15600D03*
X11141Y-15600D03*
X13267Y-16092D03*
X13267Y-16584D03*
X13267Y-17076D03*
X11141Y-16092D03*
X11141Y-16584D03*
X11141Y-17076D03*
G54D21*
X36417Y-8661D03*
G54D20*
X37204Y-9606D03*
G54D22*
X37992Y-9606D03*
G54D21*
X38779Y-8661D03*
X39763Y-8661D03*
G54D20*
X40551Y-9606D03*
G54D22*
X41338Y-9606D03*
G54D21*
X42125Y-8661D03*
G54D20*
X37788Y-21720D03*
X37788Y-20996D03*
G54D38*
X36220Y-21358D03*
G54D16*
X22244Y-21475D03*
X22244Y-22225D03*
X23031Y-24390D03*
X23031Y-23640D03*
G54D39*
X45866Y-9842D03*
X45866Y-25590D03*
X9251Y-9842D03*
X9251Y-25590D03*
G54D40*
X25826Y-18503D03*
X24960Y-18878D03*
X24960Y-18128D03*
G54D41*
X36614Y-13188D03*
G54D42*
X36870Y-13188D03*
G54D43*
X36358Y-13188D03*
X36870Y-13700D03*
X36358Y-13700D03*
X36358Y-12677D03*
X36870Y-12677D03*
G54D44*
X37746Y-13938D03*
X37746Y-13438D03*
X37746Y-12938D03*
X37746Y-12438D03*
X35482Y-12438D03*
X35482Y-12938D03*
X35482Y-13438D03*
X35482Y-13938D03*
G54D16*
X45078Y-16910D03*
X45078Y-16160D03*
X21358Y-21475D03*
X21358Y-22225D03*
X20472Y-21475D03*
X20472Y-22225D03*
G54D12*
X46358Y-12051D03*
X46358Y-13051D03*
X46358Y-14051D03*
X46358Y-15051D03*
X46358Y-16051D03*
X46358Y-17051D03*
X46358Y-18051D03*
X46358Y-19051D03*
X46259Y-21759D03*
X46259Y-20759D03*
G54D45*
X41633Y-12992D03*
G54D46*
X41633Y-13897D03*
G54D47*
X40885Y-15147D03*
X41385Y-15147D03*
X41885Y-15147D03*
X42385Y-15147D03*
G54D45*
X41141Y-18110D03*
G54D46*
X41141Y-17204D03*
G54D47*
X41889Y-15954D03*
X41389Y-15954D03*
X40889Y-15954D03*
X40389Y-15954D03*
G54D16*
X26377Y-20453D03*
X26377Y-19703D03*
G54D17*
X28996Y-17322D03*
X27696Y-17322D03*
G54D48*
X25571Y-19578D03*
X24821Y-19578D03*
X25571Y-20578D03*
X25196Y-19578D03*
X24821Y-20578D03*
G54D49*
X45177Y-13877D03*
X43437Y-13877D03*
G54D25*
X33262Y-17027D03*
X33862Y-17027D03*
G54D50*
X35334Y-18007D03*
X35334Y-18607D03*
G54D51*
X11905Y-24015D03*
X11910Y-21457D03*
X13685Y-24015D03*
X13680Y-21457D03*
G54D52*
X13090Y-12401D03*
X13090Y-13877D03*
X12696Y-14566D03*
X22440Y-16535D03*
X20177Y-14862D03*
X31594Y-13385D03*
G54D53*
X39960Y-23818D03*
G54D54*
X40866Y-23818D03*
G54D55*
X42116Y-24566D03*
X42116Y-24066D03*
X42116Y-23566D03*
X42116Y-23066D03*
G54D15*
X28130Y-10826D03*
X27380Y-10826D03*
X28130Y-11614D03*
X27380Y-11614D03*
X28130Y-12598D03*
X27380Y-12598D03*
X28130Y-13385D03*
X27380Y-13385D03*
G54D34*
X29072Y-10856D03*
X29572Y-10856D03*
X30072Y-10856D03*
X30572Y-10856D03*
X30572Y-13356D03*
X30072Y-13356D03*
X29572Y-13356D03*
X29072Y-13356D03*
X23305Y-10797D03*
X23805Y-10797D03*
X24305Y-10797D03*
X24805Y-10797D03*
X24805Y-13297D03*
X24305Y-13297D03*
X23805Y-13297D03*
X23305Y-13297D03*
G54D56*
X27726Y-16419D03*
X27726Y-15919D03*
X27726Y-15419D03*
X27726Y-14919D03*
X30226Y-14919D03*
X30226Y-15419D03*
X30226Y-15919D03*
X30226Y-16419D03*
G54D34*
X32911Y-19320D03*
X33411Y-19320D03*
X33911Y-19320D03*
X34411Y-19320D03*
X34411Y-21820D03*
X33911Y-21820D03*
X33411Y-21820D03*
X32911Y-21820D03*
G54D57*
X33555Y-18485D03*
X33555Y-18110D03*
X33555Y-17735D03*
X34555Y-17735D03*
X34555Y-18110D03*
X34555Y-18485D03*
G54D58*
X32264Y-23433D03*
X31889Y-23433D03*
X31514Y-23433D03*
X31514Y-22433D03*
X31889Y-22433D03*
X32264Y-22433D03*
G54D57*
X26582Y-10747D03*
X26582Y-11122D03*
X26582Y-11497D03*
X25582Y-11497D03*
X25582Y-11122D03*
X25582Y-10747D03*
X26582Y-12420D03*
X26582Y-12795D03*
X26582Y-13170D03*
X25582Y-13170D03*
X25582Y-12795D03*
X25582Y-12420D03*
G54D58*
X37087Y-19496D03*
X36712Y-19496D03*
X36337Y-19496D03*
X36337Y-18496D03*
X36712Y-18496D03*
X37087Y-18496D03*
G54D59*
X26771Y-14468D03*
X44212Y-17755D03*
X29527Y-11889D03*
X30072Y-12007D03*
X45078Y-23031D03*
X28641Y-13385D03*
X26082Y-14173D03*
X29921Y-14074D03*
X28740Y-13976D03*
X24409Y-12795D03*
X23326Y-13877D03*
X24311Y-13877D03*
X26771Y-16633D03*
X26771Y-17125D03*
X35925Y-16929D03*
X33956Y-22244D03*
X34448Y-20866D03*
X36023Y-20866D03*
X25787Y-19192D03*
X18996Y-18996D03*
X18602Y-19389D03*
X44586Y-15255D03*
X23720Y-23129D03*
X16633Y-23228D03*
X17814Y-22145D03*
X24803Y-22736D03*
X14566Y-24901D03*
X13484Y-25295D03*
X28248Y-26673D03*
X12598Y-12992D03*
X19291Y-12992D03*
X12204Y-13385D03*
X19094Y-13385D03*
X20472Y-20472D03*
X42913Y-17716D03*
X24901Y-11417D03*
X23326Y-11417D03*
X26082Y-10925D03*
X23622Y-12500D03*
X25098Y-12696D03*
X26082Y-12598D03*
X24015Y-11811D03*
X35334Y-16338D03*
X19488Y-16633D03*
X33366Y-16437D03*
X18996Y-16830D03*
X23818Y-14862D03*
X23228Y-14960D03*
X15649Y-12500D03*
X16929Y-18011D03*
X15452Y-17125D03*
X15059Y-12598D03*
X14271Y-11811D03*
X18996Y-15354D03*
X36614Y-17618D03*
X19685Y-17716D03*
X13779Y-16141D03*
X20866Y-20177D03*
X37106Y-20078D03*
X26377Y-26771D03*
X12893Y-26968D03*
X18011Y-19881D03*
X43700Y-17677D03*
X14173Y-16535D03*
X19291Y-17913D03*
X13976Y-17125D03*
X19094Y-18307D03*
X21948Y-16929D03*
X12500Y-16141D03*
X12106Y-27165D03*
X24507Y-26870D03*
X22244Y-14566D03*
X21850Y-14960D03*
X13976Y-25098D03*
X28641Y-25688D03*
X30610Y-19980D03*
X35039Y-19291D03*
X35334Y-18897D03*
X30118Y-19980D03*
X31889Y-26181D03*
X21358Y-27263D03*
X35039Y-26673D03*
X36220Y-22933D03*
X41830Y-21161D03*
X16437Y-20177D03*
X43110Y-24606D03*
X43307Y-26181D03*
X15944Y-20570D03*
X46653Y-23622D03*
X41633Y-12696D03*
X42322Y-12696D03*
X39566Y-13385D03*
X39566Y-12874D03*
X42820Y-10430D03*
X42690Y-12110D03*
X40452Y-21358D03*
X25492Y-21456D03*
X42322Y-13287D03*
X41633Y-13287D03*
X40944Y-13287D03*
X40944Y-12696D03*
X42322Y-13877D03*
X41633Y-13897D03*
X40944Y-13877D03*
X38779Y-10629D03*
X16732Y-15649D03*
X31594Y-24901D03*
X35629Y-14566D03*
X37401Y-14566D03*
X40551Y-17322D03*
X41102Y-16811D03*
X40551Y-16811D03*
X42913Y-18307D03*
X42440Y-18582D03*
X44803Y-18622D03*
X43818Y-18543D03*
X38976Y-17244D03*
X36318Y-18011D03*
X22637Y-18503D03*
X44389Y-15944D03*
X18799Y-19783D03*
X12204Y-14862D03*
X11909Y-15354D03*
X11889Y-12440D03*
X29625Y-23720D03*
X23326Y-21555D03*
X11023Y-18996D03*
X14468Y-19488D03*
X42224Y-25393D03*
X22244Y-19685D03*
X23425Y-19685D03*
X18405Y-16929D03*
X19685Y-21653D03*
X17027Y-18996D03*
X16240Y-22834D03*
X17618Y-13976D03*
X20570Y-14370D03*
X23326Y-21948D03*
X24960Y-18878D03*
X29015Y-25354D03*
X37106Y-18011D03*
X36515Y-20078D03*
X31692Y-12106D03*
X32578Y-24507D03*
X32874Y-22736D03*
X34940Y-23622D03*
X33858Y-16535D03*
X38385Y-22342D03*
X26082Y-13090D03*
X25098Y-12204D03*
X25196Y-10236D03*
X26082Y-11417D03*
X31889Y-10137D03*
X23425Y-18307D03*
X21062Y-22637D03*
X16929Y-22736D03*
X21653Y-22637D03*
X14468Y-20374D03*
X16929Y-13385D03*
X38779Y-25098D03*
X37303Y-24311D03*
X36318Y-24114D03*
X38484Y-23425D03*
X40255Y-26870D03*
X12204Y-13976D03*
X13188Y-14862D03*
X14862Y-14960D03*
X18602Y-18602D03*
X17027Y-18503D03*
X22145Y-18602D03*
X33759Y-11811D03*
X33267Y-14074D03*
X36909Y-11515D03*
X36417Y-12007D03*
X36417Y-11515D03*
X36909Y-12007D03*
X18897Y-13995D03*
X23425Y-18700D03*
X38877Y-19980D03*
X38385Y-17716D03*
X36614Y-15944D03*
X39960Y-15255D03*
X24015Y-16929D03*
X24507Y-16929D03*
X24311Y-16437D03*
X15354Y-10531D03*
X23917Y-25196D03*
X24901Y-23720D03*
X28248Y-26082D03*
X32283Y-25492D03*
X24507Y-18288D03*
X31692Y-16929D03*
X28740Y-16535D03*
X38976Y-24015D03*
X41929Y-22637D03*
X41338Y-9606D03*
G54D60*
X26181Y-15059D02*
X26771Y-14468D01*
X26092Y-15059D02*
X26181Y-15059D01*
G54D61*
X29645Y-11614D02*
X29645Y-11771D01*
X29645Y-11771D02*
X29527Y-11889D01*
X30072Y-13356D02*
X30072Y-12007D01*
X30072Y-12007D02*
X30072Y-12001D01*
X29685Y-11614D02*
X29645Y-11614D01*
X29645Y-11614D02*
X28130Y-11614D01*
X30072Y-12001D02*
X29685Y-11614D01*
G54D62*
X34270Y-10826D02*
X32775Y-10826D01*
X32194Y-11407D02*
X31692Y-11407D01*
X32775Y-10826D02*
X32194Y-11407D01*
X34270Y-10826D02*
X34270Y-10414D01*
X34270Y-10414D02*
X34645Y-10039D01*
X34645Y-10039D02*
X34645Y-9606D01*
G54D61*
X44972Y-22656D02*
X44972Y-22925D01*
X45078Y-23031D02*
X44972Y-22925D01*
G54D62*
X28130Y-12598D02*
X28130Y-13385D01*
X28130Y-11614D02*
X28130Y-10826D01*
G54D60*
X28130Y-13385D02*
X28641Y-13385D01*
X28130Y-13385D02*
X28641Y-13385D01*
X26092Y-15059D02*
X26092Y-14182D01*
X26092Y-14182D02*
X26082Y-14173D01*
G54D63*
X30072Y-13356D02*
X30072Y-13923D01*
X30072Y-13923D02*
X29921Y-14074D01*
X29072Y-13356D02*
X29072Y-13643D01*
X29072Y-13643D02*
X28740Y-13976D01*
X24305Y-13297D02*
X24305Y-12899D01*
X24305Y-12899D02*
X24409Y-12795D01*
G54D61*
X23305Y-13297D02*
X23305Y-13856D01*
X23305Y-13856D02*
X23326Y-13877D01*
X24305Y-13297D02*
X24305Y-13872D01*
X24305Y-13872D02*
X24311Y-13877D01*
X31968Y-10728D02*
X31968Y-11132D01*
X31968Y-11132D02*
X31692Y-11407D01*
X26771Y-17125D02*
X26771Y-16633D01*
X26771Y-16633D02*
X26771Y-17125D01*
X44272Y-22834D02*
X44794Y-22834D01*
X44794Y-22834D02*
X44972Y-22656D01*
G54D63*
X24821Y-20578D02*
X23936Y-21395D01*
X23936Y-21395D02*
X24015Y-21475D01*
G54D62*
X29224Y-18897D02*
X29133Y-18897D01*
X29133Y-18897D02*
X28059Y-17822D01*
X28059Y-18897D02*
X28059Y-17822D01*
X28059Y-17822D02*
X28059Y-17685D01*
X28059Y-17685D02*
X27696Y-17322D01*
G54D63*
X26377Y-19703D02*
X25965Y-19703D01*
X25965Y-19703D02*
X25984Y-19685D01*
G54D64*
X26190Y-14566D02*
X26190Y-16544D01*
X26190Y-16544D02*
X26771Y-17125D01*
X26771Y-17125D02*
X26771Y-17125D01*
X26771Y-17125D02*
X26771Y-17125D01*
X26771Y-17125D02*
X26377Y-16732D01*
G54D63*
X26574Y-14182D02*
X26190Y-14566D01*
X24821Y-20578D02*
X25090Y-20578D01*
X26181Y-18858D02*
X25826Y-18503D01*
X26181Y-19488D02*
X26181Y-18858D01*
X25090Y-20578D02*
X25984Y-19685D01*
X25984Y-19685D02*
X26181Y-19488D01*
G54D62*
X25826Y-18700D02*
X25826Y-17264D01*
X25826Y-17264D02*
X25965Y-17125D01*
G54D63*
X44794Y-22834D02*
X44972Y-22656D01*
G54D62*
X25965Y-17125D02*
X27174Y-17125D01*
G54D65*
X34645Y-10039D02*
X34645Y-9606D01*
X34270Y-10414D02*
X34645Y-10039D01*
G54D62*
X27174Y-17125D02*
X27362Y-17313D01*
X27362Y-17313D02*
X27362Y-17322D01*
X27362Y-17322D02*
X27362Y-17313D01*
G54D63*
X28996Y-17322D02*
X29424Y-17322D01*
X29424Y-17322D02*
X29621Y-17519D01*
X25571Y-20578D02*
X26252Y-20578D01*
X26252Y-20578D02*
X26377Y-20453D01*
X28996Y-17322D02*
X28996Y-17579D01*
X26593Y-20453D02*
X26377Y-20453D01*
X27165Y-19881D02*
X26593Y-20453D01*
X29330Y-19881D02*
X27165Y-19881D01*
X29724Y-19488D02*
X29330Y-19881D01*
X29724Y-18307D02*
X29724Y-19488D01*
X28996Y-17579D02*
X29724Y-18307D01*
G54D64*
X28996Y-17322D02*
X29133Y-17322D01*
X29133Y-17322D02*
X29330Y-17519D01*
G54D62*
X30226Y-16419D02*
X30226Y-16712D01*
X30226Y-16712D02*
X31299Y-17785D01*
X30221Y-17519D02*
X31033Y-17519D01*
X31033Y-17519D02*
X31299Y-17785D01*
G54D65*
X35826Y-17027D02*
X35925Y-16929D01*
X35315Y-17027D02*
X35826Y-17027D01*
G54D63*
X33661Y-23050D02*
X34370Y-23050D01*
X34370Y-23050D02*
X34645Y-22775D01*
G54D61*
X33956Y-21358D02*
X34448Y-20866D01*
X36220Y-21062D02*
X36220Y-21358D01*
X36023Y-20866D02*
X36220Y-21062D01*
X33911Y-22198D02*
X33956Y-22244D01*
X33911Y-21820D02*
X33911Y-22198D01*
G54D64*
X34645Y-22775D02*
X34645Y-22637D01*
X34645Y-22637D02*
X36220Y-21358D01*
G54D63*
X32578Y-16947D02*
X32203Y-16947D01*
X31177Y-15921D02*
X31177Y-15551D01*
X32203Y-16947D02*
X31177Y-15921D01*
G54D62*
X30226Y-15419D02*
X31045Y-15419D01*
X31045Y-15419D02*
X31177Y-15551D01*
G54D61*
X31594Y-13385D02*
X31830Y-13385D01*
X31830Y-13385D02*
X32420Y-13976D01*
G54D63*
X31830Y-13385D02*
X32420Y-13976D01*
G54D62*
X32420Y-13976D02*
X31692Y-13976D01*
X31177Y-14492D02*
X31177Y-15551D01*
X31692Y-13976D02*
X31177Y-14492D01*
G54D63*
X32420Y-13976D02*
X32677Y-13976D01*
X33267Y-11417D02*
X34467Y-11417D01*
X33070Y-11614D02*
X33267Y-11417D01*
X33070Y-13582D02*
X33070Y-11614D01*
X32677Y-13976D02*
X33070Y-13582D01*
X19191Y-20590D02*
X19191Y-19191D01*
X25571Y-19408D02*
X25571Y-19578D01*
X25787Y-19192D02*
X25571Y-19408D01*
X19191Y-19191D02*
X18996Y-18996D01*
G54D61*
X21555Y-23640D02*
X22244Y-23640D01*
X44174Y-15157D02*
X44488Y-15157D01*
X44488Y-15157D02*
X44586Y-15255D01*
G54D63*
X18405Y-20590D02*
X18405Y-19586D01*
X18405Y-19586D02*
X18602Y-19389D01*
X18405Y-20590D02*
X18405Y-20078D01*
X18405Y-20078D02*
X18405Y-19980D01*
X18602Y-19389D02*
X18503Y-19488D01*
X18405Y-20590D02*
X18405Y-22736D01*
X20847Y-22933D02*
X21555Y-23640D01*
X18602Y-22933D02*
X20847Y-22933D01*
X18405Y-22736D02*
X18602Y-22933D01*
G54D61*
X17027Y-23640D02*
X17027Y-23622D01*
X17027Y-23622D02*
X16633Y-23228D01*
X16633Y-23228D02*
X16633Y-23345D01*
X16633Y-23345D02*
X16338Y-23640D01*
X24015Y-22225D02*
X24015Y-22834D01*
X24015Y-22834D02*
X23720Y-23129D01*
X16338Y-23640D02*
X17027Y-23640D01*
G54D63*
X23720Y-23129D02*
X24015Y-22834D01*
X17135Y-23237D02*
X17036Y-23631D01*
X17036Y-23631D02*
X17027Y-23640D01*
X17815Y-20590D02*
X17815Y-21591D01*
X17322Y-23050D02*
X17135Y-23237D01*
X17135Y-23237D02*
X17125Y-23247D01*
X17322Y-22084D02*
X17322Y-23050D01*
X17815Y-21591D02*
X17322Y-22084D01*
G54D61*
X18110Y-23640D02*
X18110Y-23622D01*
X17814Y-23326D02*
X17814Y-22145D01*
X18110Y-23622D02*
X17814Y-23326D01*
X23917Y-23640D02*
X23917Y-23622D01*
X23917Y-23622D02*
X24901Y-22637D01*
X24901Y-22637D02*
X24901Y-22225D01*
G54D63*
X17814Y-22145D02*
X17814Y-22145D01*
X17814Y-22145D02*
X17814Y-21948D01*
X23917Y-23640D02*
X23898Y-23640D01*
X23898Y-23640D02*
X24803Y-22736D01*
X24901Y-22225D02*
X24901Y-22637D01*
X24901Y-22637D02*
X24803Y-22736D01*
X18011Y-20590D02*
X18011Y-21751D01*
X18011Y-21751D02*
X17814Y-21948D01*
G54D61*
X19094Y-23640D02*
X19783Y-23640D01*
G54D63*
X20669Y-23640D02*
X19783Y-23640D01*
X18208Y-20590D02*
X18208Y-22933D01*
X18208Y-22933D02*
X18503Y-23228D01*
X18503Y-23228D02*
X18682Y-23228D01*
X18682Y-23228D02*
X19094Y-23640D01*
X43257Y-17047D02*
X43257Y-15384D01*
X43257Y-15384D02*
X43424Y-15157D01*
X17224Y-17224D02*
X18011Y-18011D01*
X16220Y-17028D02*
X17028Y-17028D01*
X17028Y-17028D02*
X17224Y-17224D01*
X17421Y-19980D02*
X17027Y-19980D01*
X17814Y-19586D02*
X17421Y-19980D01*
X17814Y-18996D02*
X17814Y-19586D01*
X18011Y-18799D02*
X17814Y-18996D01*
X18011Y-18011D02*
X18011Y-18799D01*
X14665Y-24803D02*
X14566Y-24901D01*
X15255Y-24212D02*
X14960Y-24507D01*
X15354Y-21653D02*
X15255Y-21751D01*
X16732Y-20866D02*
X16437Y-21161D01*
X16437Y-21161D02*
X15846Y-21161D01*
X15846Y-21161D02*
X15354Y-21653D01*
X17027Y-19980D02*
X17027Y-19980D01*
X16732Y-20275D02*
X16732Y-20472D01*
X17027Y-19980D02*
X17027Y-19980D01*
X17027Y-19980D02*
X16732Y-20275D01*
X16732Y-20472D02*
X16732Y-20866D01*
X15255Y-21751D02*
X15255Y-24212D01*
X14960Y-24507D02*
X14665Y-24803D01*
X14696Y-24772D02*
X14665Y-24803D01*
X15354Y-19586D02*
X15354Y-20866D01*
X16220Y-19192D02*
X15748Y-19192D01*
X15748Y-19192D02*
X15354Y-19586D01*
X13484Y-25098D02*
X13484Y-25295D01*
X14862Y-23720D02*
X13484Y-25098D01*
X14862Y-21358D02*
X14862Y-23720D01*
X15354Y-20866D02*
X14862Y-21358D01*
X27952Y-26968D02*
X27873Y-26968D01*
X28248Y-26673D02*
X27952Y-26968D01*
G54D61*
X11904Y-11023D02*
X11904Y-11395D01*
X10027Y-12850D02*
X9027Y-12850D01*
X10450Y-12427D02*
X10027Y-12850D01*
X10450Y-11660D02*
X10450Y-12427D01*
X10570Y-11540D02*
X10450Y-11660D01*
X11760Y-11540D02*
X10570Y-11540D01*
X11904Y-11395D02*
X11760Y-11540D01*
X12204Y-9645D02*
X12204Y-9606D01*
G54D63*
X11904Y-11023D02*
X11904Y-9906D01*
X11904Y-9906D02*
X12204Y-9606D01*
G54D61*
X9027Y-12350D02*
X9800Y-12350D01*
X12696Y-9055D02*
X12992Y-9350D01*
X11220Y-9547D02*
X11220Y-10039D01*
X11712Y-9055D02*
X11220Y-9547D01*
X12696Y-9055D02*
X11712Y-9055D01*
X11220Y-10989D02*
X11220Y-10039D01*
X10945Y-11264D02*
X11220Y-10989D01*
X10455Y-11264D02*
X10945Y-11264D01*
X10174Y-11545D02*
X10455Y-11264D01*
X10174Y-11975D02*
X10174Y-11545D01*
X9800Y-12350D02*
X10174Y-11975D01*
X12992Y-9606D02*
X12992Y-9350D01*
X17125Y-9251D02*
X17125Y-9606D01*
X16830Y-8956D02*
X17125Y-9251D01*
X16141Y-8956D02*
X16830Y-8956D01*
X15846Y-9251D02*
X16141Y-8956D01*
X14566Y-9251D02*
X15846Y-9251D01*
X14370Y-9055D02*
X14566Y-9251D01*
X13287Y-9055D02*
X14370Y-9055D01*
X12992Y-9350D02*
X13287Y-9055D01*
X12992Y-9606D02*
X12992Y-9744D01*
X13957Y-10709D02*
X13957Y-11023D01*
X12992Y-9744D02*
X13957Y-10709D01*
X11073Y-11850D02*
X12086Y-11850D01*
X12440Y-12204D02*
X12086Y-11850D01*
X12440Y-12834D02*
X12440Y-12204D01*
X12440Y-12834D02*
X12598Y-12992D01*
G54D63*
X19585Y-16024D02*
X19585Y-15354D01*
X19585Y-15354D02*
X19585Y-13286D01*
X19585Y-13286D02*
X19291Y-12992D01*
G54D61*
X11073Y-13350D02*
X12168Y-13350D01*
X12168Y-13350D02*
X12204Y-13385D01*
G54D63*
X19388Y-13680D02*
X19094Y-13385D01*
X19388Y-13680D02*
X19388Y-16024D01*
G54D61*
X42765Y-17047D02*
X42765Y-17765D01*
X42765Y-17765D02*
X42913Y-17716D01*
X42765Y-17047D02*
X42765Y-16209D01*
X42765Y-16209D02*
X42932Y-16043D01*
G54D63*
X19979Y-20590D02*
X20354Y-20590D01*
X20354Y-20590D02*
X20472Y-20472D01*
X42765Y-17765D02*
X42913Y-17716D01*
G54D60*
X23031Y-12204D02*
X23228Y-12007D01*
X24901Y-11417D02*
X23818Y-11417D01*
X25196Y-11122D02*
X24901Y-11417D01*
X25196Y-11122D02*
X25582Y-11122D01*
X23818Y-11417D02*
X23425Y-11811D01*
X23228Y-12007D02*
X23425Y-11811D01*
G54D63*
X23031Y-12204D02*
X22952Y-12283D01*
X22952Y-12283D02*
X22047Y-13188D01*
X20570Y-15748D02*
X22047Y-14271D01*
X22047Y-14271D02*
X22047Y-13188D01*
X20570Y-15748D02*
X19979Y-15748D01*
X23031Y-12204D02*
X23031Y-12204D01*
G54D60*
X23031Y-11712D02*
X23326Y-11417D01*
G54D63*
X26279Y-11122D02*
X26582Y-11122D01*
X26082Y-10925D02*
X26082Y-10925D01*
X26279Y-11122D02*
X26082Y-10925D01*
X19782Y-16024D02*
X19782Y-15453D01*
X19782Y-15453D02*
X19783Y-15452D01*
X19783Y-15452D02*
X19880Y-15354D01*
X23031Y-11712D02*
X22637Y-12106D01*
X22637Y-12106D02*
X22637Y-12102D01*
X21859Y-12884D02*
X21859Y-12866D01*
X21859Y-12866D02*
X22637Y-12102D01*
X22637Y-12102D02*
X23031Y-11712D01*
X21850Y-12893D02*
X21859Y-12884D01*
X21859Y-12884D02*
X21868Y-12875D01*
X21850Y-14173D02*
X21850Y-12893D01*
X20669Y-15354D02*
X21850Y-14173D01*
X19880Y-15354D02*
X20669Y-15354D01*
X23031Y-11712D02*
X23031Y-11712D01*
G54D60*
X23228Y-12795D02*
X23523Y-12500D01*
X25196Y-12795D02*
X25582Y-12795D01*
X25196Y-12795D02*
X25098Y-12696D01*
X23622Y-12500D02*
X23523Y-12500D01*
G54D63*
X20786Y-17028D02*
X21160Y-17028D01*
X21160Y-17028D02*
X22834Y-15354D01*
X22834Y-15354D02*
X22834Y-13188D01*
X23228Y-12795D02*
X22834Y-13188D01*
X23228Y-12795D02*
X23228Y-12795D01*
G54D60*
X23031Y-12598D02*
X23523Y-12106D01*
X23818Y-11811D02*
X23523Y-12106D01*
X26279Y-12795D02*
X26082Y-12598D01*
X26279Y-12795D02*
X26582Y-12795D01*
X24015Y-11811D02*
X23818Y-11811D01*
G54D63*
X20786Y-16831D02*
X20964Y-16831D01*
X20964Y-16831D02*
X22637Y-15157D01*
X22637Y-12992D02*
X23031Y-12598D01*
X23031Y-12598D02*
X23031Y-12598D01*
X22637Y-15157D02*
X22637Y-12992D01*
X22637Y-12992D02*
X22637Y-12992D01*
X34153Y-17027D02*
X34153Y-16732D01*
X34233Y-18110D02*
X34153Y-18029D01*
X34153Y-18029D02*
X34153Y-17027D01*
X34555Y-18110D02*
X34233Y-18110D01*
X34547Y-16338D02*
X35334Y-16338D01*
X34153Y-16732D02*
X34547Y-16338D01*
X34555Y-18110D02*
X35231Y-18110D01*
X35231Y-18110D02*
X35334Y-18007D01*
X19191Y-16338D02*
X19191Y-16534D01*
X19291Y-16633D02*
X19488Y-16633D01*
X19191Y-16534D02*
X19291Y-16633D01*
X19191Y-16024D02*
X19191Y-16338D01*
X19191Y-16338D02*
X19191Y-16436D01*
G54D61*
X33262Y-16540D02*
X33262Y-17027D01*
X33366Y-16437D02*
X33262Y-16540D01*
G54D63*
X33555Y-18110D02*
X33267Y-18110D01*
X33267Y-18110D02*
X33169Y-18011D01*
X33169Y-18011D02*
X33169Y-17121D01*
X33169Y-17121D02*
X33262Y-17027D01*
X18995Y-16830D02*
X18995Y-16024D01*
X18996Y-16830D02*
X18995Y-16830D01*
X20786Y-17815D02*
X22047Y-17815D01*
X22047Y-17815D02*
X23622Y-16240D01*
X23809Y-14871D02*
X23818Y-14862D01*
X23809Y-14871D02*
X23622Y-14862D01*
X23631Y-14871D02*
X23622Y-14862D01*
X23622Y-14862D02*
X23612Y-14853D01*
X23622Y-16240D02*
X23631Y-14871D01*
X15551Y-14370D02*
X15551Y-13157D01*
X16257Y-15076D02*
X15551Y-14370D01*
X16633Y-15076D02*
X16257Y-15076D01*
X15551Y-13157D02*
X16594Y-12114D01*
X17618Y-16024D02*
X17618Y-15175D01*
X17519Y-15076D02*
X16633Y-15076D01*
X16633Y-15076D02*
X16651Y-15076D01*
X17618Y-15175D02*
X17519Y-15076D01*
X23228Y-14960D02*
X23228Y-14960D01*
X23228Y-15846D02*
X23228Y-14960D01*
X21947Y-17619D02*
X23228Y-16338D01*
X23228Y-16338D02*
X23228Y-15846D01*
X21947Y-17619D02*
X20786Y-17619D01*
X15255Y-14370D02*
X15255Y-12992D01*
X16141Y-15255D02*
X15255Y-14370D01*
X16535Y-15255D02*
X16141Y-15255D01*
X15649Y-12598D02*
X15649Y-12500D01*
X15255Y-12992D02*
X15649Y-12598D01*
X16830Y-15354D02*
X16732Y-15255D01*
X17421Y-15551D02*
X17224Y-15354D01*
X17224Y-15354D02*
X16830Y-15354D01*
X17421Y-16024D02*
X17421Y-15551D01*
X16536Y-15255D02*
X16535Y-15255D01*
X16535Y-15255D02*
X16535Y-15255D01*
X16732Y-15255D02*
X16536Y-15255D01*
X16929Y-18011D02*
X17027Y-18011D01*
X15452Y-17125D02*
X15157Y-16830D01*
X15157Y-16535D02*
X15157Y-16830D01*
X16732Y-19586D02*
X16220Y-19586D01*
X16732Y-19586D02*
X16929Y-19586D01*
X16929Y-19586D02*
X16929Y-19586D01*
X17421Y-19094D02*
X16929Y-19586D01*
X17421Y-18405D02*
X17421Y-19094D01*
X17027Y-18011D02*
X17421Y-18405D01*
X15766Y-16319D02*
X15944Y-16141D01*
X15944Y-16141D02*
X15944Y-15354D01*
X15944Y-15354D02*
X14960Y-14370D01*
X14960Y-14370D02*
X14960Y-14271D01*
X15766Y-16319D02*
X15354Y-16319D01*
X14960Y-12696D02*
X14960Y-14271D01*
X15059Y-12598D02*
X14960Y-12696D01*
X15354Y-16319D02*
X15354Y-16338D01*
X15354Y-16338D02*
X15157Y-16535D01*
X15157Y-16535D02*
X15157Y-16240D01*
X17594Y-11114D02*
X17594Y-11244D01*
X14862Y-17125D02*
X15059Y-17322D01*
X14862Y-17125D02*
X14862Y-16141D01*
X14862Y-16141D02*
X14271Y-15551D01*
X14271Y-15551D02*
X14271Y-15157D01*
X14271Y-12598D02*
X14271Y-15157D01*
X15255Y-11614D02*
X14271Y-12598D01*
X17224Y-11614D02*
X15255Y-11614D01*
X17594Y-11244D02*
X17224Y-11614D01*
X16220Y-17422D02*
X15748Y-17421D01*
X15748Y-17421D02*
X15551Y-17618D01*
X15551Y-17618D02*
X15354Y-17618D01*
X15059Y-17322D02*
X15059Y-17322D01*
X15354Y-17618D02*
X15059Y-17322D01*
X13877Y-15059D02*
X13877Y-12204D01*
X15256Y-17815D02*
X14960Y-17519D01*
X14960Y-17519D02*
X14468Y-17519D01*
X14468Y-17519D02*
X14370Y-17421D01*
X14370Y-17421D02*
X14370Y-16929D01*
X14370Y-16929D02*
X14566Y-16732D01*
X14566Y-16732D02*
X14566Y-16338D01*
X14566Y-16338D02*
X13877Y-15649D01*
X13877Y-15649D02*
X13877Y-15059D01*
X16220Y-17815D02*
X15256Y-17815D01*
X13877Y-12204D02*
X14271Y-11811D01*
X18798Y-15551D02*
X18996Y-15354D01*
X18798Y-15551D02*
X18798Y-16024D01*
X17618Y-12795D02*
X16732Y-12795D01*
X17618Y-12795D02*
X18405Y-12795D01*
X18405Y-12795D02*
X18594Y-12606D01*
X18594Y-12114D02*
X18594Y-12606D01*
X16141Y-13385D02*
X16141Y-13582D01*
X16732Y-12795D02*
X16141Y-13385D01*
X16141Y-14370D02*
X16141Y-13582D01*
X16437Y-14665D02*
X16141Y-14370D01*
X18011Y-16024D02*
X18011Y-14862D01*
X17913Y-14665D02*
X16929Y-14665D01*
X18011Y-14763D02*
X17913Y-14665D01*
X18011Y-14862D02*
X18011Y-14763D01*
X18011Y-14862D02*
X18011Y-14862D01*
X16929Y-14665D02*
X16437Y-14665D01*
X17594Y-12114D02*
X17594Y-12425D01*
X16338Y-14862D02*
X15846Y-14370D01*
X17700Y-14862D02*
X16830Y-14862D01*
X17815Y-14977D02*
X17700Y-14862D01*
X16830Y-14862D02*
X16338Y-14862D01*
X17815Y-14977D02*
X17815Y-16024D01*
X15846Y-13287D02*
X15846Y-14370D01*
X16043Y-13090D02*
X15846Y-13287D01*
X16043Y-13090D02*
X16043Y-13090D01*
X16535Y-12598D02*
X16043Y-13090D01*
X17421Y-12598D02*
X16535Y-12598D01*
X17594Y-12425D02*
X17421Y-12598D01*
G54D61*
X40389Y-15954D02*
X40389Y-15023D01*
X39529Y-15875D02*
X40311Y-15875D01*
X40311Y-15875D02*
X40389Y-15954D01*
G54D63*
X42385Y-15147D02*
X42385Y-14925D01*
X40389Y-15023D02*
X40389Y-16053D01*
X40311Y-16072D02*
X40389Y-16053D01*
X40649Y-14763D02*
X40389Y-15023D01*
X42224Y-14763D02*
X40649Y-14763D01*
X42385Y-14925D02*
X42224Y-14763D01*
G54D61*
X37284Y-17027D02*
X37284Y-17243D01*
X36811Y-17716D02*
X36712Y-17716D01*
X37284Y-17243D02*
X36811Y-17716D01*
X36712Y-17993D02*
X36712Y-17716D01*
X36712Y-17993D02*
X36712Y-18496D01*
X36712Y-17716D02*
X36614Y-17618D01*
G54D63*
X13267Y-16092D02*
X13041Y-16092D01*
X13041Y-16092D02*
X12696Y-15748D01*
X12696Y-15748D02*
X12696Y-14566D01*
X13041Y-16092D02*
X12696Y-15748D01*
X19782Y-17814D02*
X19782Y-17814D01*
X19782Y-20590D02*
X19782Y-17814D01*
X19782Y-17814D02*
X19685Y-17716D01*
X13779Y-16141D02*
X13730Y-16092D01*
X13730Y-16092D02*
X13267Y-16092D01*
X36712Y-19496D02*
X36712Y-19685D01*
X36712Y-19685D02*
X37106Y-20078D01*
X20866Y-20177D02*
X20866Y-19862D01*
X20866Y-19862D02*
X20786Y-19783D01*
G54D61*
X21142Y-20453D02*
X20866Y-20177D01*
X21142Y-20453D02*
X21653Y-20453D01*
G54D63*
X21653Y-20453D02*
X21634Y-20453D01*
X20786Y-19783D02*
X20964Y-19783D01*
X15157Y-19445D02*
X15157Y-20767D01*
X12893Y-23917D02*
X12893Y-25393D01*
X14665Y-22145D02*
X12893Y-23917D01*
X14665Y-21259D02*
X14665Y-22145D01*
X15157Y-20767D02*
X14665Y-21259D01*
X26181Y-26968D02*
X26003Y-26968D01*
X26377Y-26771D02*
X26181Y-26968D01*
X12893Y-25393D02*
X12893Y-26968D01*
X15608Y-18995D02*
X15157Y-19445D01*
X15157Y-19445D02*
X15185Y-19417D01*
X16220Y-18995D02*
X15608Y-18995D01*
G54D61*
X11023Y-23523D02*
X11023Y-24507D01*
X11385Y-24870D02*
X11023Y-24507D01*
X11385Y-24870D02*
X11385Y-26279D01*
X12204Y-22342D02*
X11023Y-23523D01*
X11023Y-23523D02*
X11122Y-23425D01*
X12204Y-22342D02*
X12696Y-21850D01*
X13188Y-18602D02*
X13188Y-18897D01*
X13188Y-18897D02*
X12795Y-19291D01*
X12795Y-19291D02*
X12696Y-19389D01*
X12696Y-19389D02*
X12696Y-21850D01*
X13779Y-18128D02*
X13662Y-18128D01*
X13230Y-18560D02*
X13188Y-18602D01*
X13662Y-18128D02*
X13230Y-18560D01*
G54D63*
X16220Y-18012D02*
X15157Y-18011D01*
X13877Y-17913D02*
X13779Y-18128D01*
X14074Y-17716D02*
X13877Y-17913D01*
X14862Y-17716D02*
X14074Y-17716D01*
X15157Y-18011D02*
X14862Y-17716D01*
X18011Y-19881D02*
X18011Y-19094D01*
X18208Y-18897D02*
X18011Y-19094D01*
G54D61*
X43750Y-17047D02*
X43750Y-17627D01*
X43750Y-17627D02*
X43700Y-17677D01*
G54D63*
X43750Y-17627D02*
X43700Y-17677D01*
X18208Y-16024D02*
X18208Y-16633D01*
X18208Y-17913D02*
X18208Y-18897D01*
X17913Y-17618D02*
X18208Y-17913D01*
X17913Y-16929D02*
X17913Y-17618D01*
X18208Y-16633D02*
X17913Y-16929D01*
X18208Y-16024D02*
X18208Y-14665D01*
X17046Y-14468D02*
X16554Y-13976D01*
X18011Y-14468D02*
X17046Y-14468D01*
X18208Y-14665D02*
X18011Y-14468D01*
X18208Y-18897D02*
X18208Y-18897D01*
X19585Y-20590D02*
X19585Y-18207D01*
X14124Y-16584D02*
X13267Y-16584D01*
X14173Y-16535D02*
X14124Y-16584D01*
X19585Y-18207D02*
X19291Y-17913D01*
X13533Y-16584D02*
X13267Y-16584D01*
X13582Y-16535D02*
X13533Y-16584D01*
X19388Y-20590D02*
X19388Y-18601D01*
X13927Y-17076D02*
X13267Y-17076D01*
X13976Y-17125D02*
X13927Y-17076D01*
X19388Y-18601D02*
X19094Y-18307D01*
X13533Y-17076D02*
X13267Y-17076D01*
X13582Y-17125D02*
X13533Y-17076D01*
X28641Y-11023D02*
X28641Y-11122D01*
X30572Y-11557D02*
X30572Y-13356D01*
X30354Y-11338D02*
X30572Y-11557D01*
X28858Y-11338D02*
X30354Y-11338D01*
X28641Y-11122D02*
X28858Y-11338D01*
X27380Y-10512D02*
X27657Y-10236D01*
X27657Y-10236D02*
X28444Y-10236D01*
X28444Y-10236D02*
X28641Y-10433D01*
X28641Y-10433D02*
X28641Y-11023D01*
X28641Y-11023D02*
X28641Y-11023D01*
X27380Y-10826D02*
X27380Y-10512D01*
G54D60*
X30610Y-13318D02*
X30572Y-13356D01*
G54D63*
X26582Y-10747D02*
X27301Y-10747D01*
X27301Y-10747D02*
X27380Y-10826D01*
G54D60*
X29527Y-12500D02*
X29527Y-13311D01*
G54D63*
X27380Y-11928D02*
X27559Y-12106D01*
X27559Y-12106D02*
X29133Y-12106D01*
X29133Y-12106D02*
X29527Y-12500D01*
X27380Y-11614D02*
X27380Y-11928D01*
G54D60*
X29527Y-13311D02*
X29572Y-13356D01*
G54D63*
X25582Y-11497D02*
X25670Y-11497D01*
X27085Y-11811D02*
X27380Y-11614D01*
X26082Y-11811D02*
X27085Y-11811D01*
X25670Y-11497D02*
X26082Y-11811D01*
G54D60*
X24507Y-12007D02*
X24704Y-11811D01*
X23805Y-13297D02*
X23818Y-13283D01*
X26582Y-12311D02*
X26582Y-12420D01*
X24507Y-12007D02*
X23818Y-12795D01*
X26582Y-12311D02*
X26377Y-12007D01*
X23818Y-12795D02*
X23818Y-13283D01*
X25885Y-12007D02*
X26377Y-12007D01*
X25688Y-11811D02*
X25885Y-12007D01*
X24704Y-11811D02*
X25688Y-11811D01*
G54D63*
X26582Y-12420D02*
X27202Y-12420D01*
X27202Y-12420D02*
X27380Y-12598D01*
G54D60*
X25582Y-13170D02*
X25582Y-13279D01*
X27282Y-13484D02*
X27380Y-13385D01*
X25787Y-13484D02*
X27282Y-13484D01*
X25582Y-13279D02*
X25787Y-13484D01*
G54D63*
X25582Y-13170D02*
X24932Y-13170D01*
X24932Y-13170D02*
X24805Y-13297D01*
X15452Y-21850D02*
X15452Y-25196D01*
X17027Y-20964D02*
X16633Y-21358D01*
X16633Y-21358D02*
X15944Y-21358D01*
X15944Y-21358D02*
X15452Y-21850D01*
X17027Y-20590D02*
X17027Y-20964D01*
X14598Y-27066D02*
X15385Y-26279D01*
X14173Y-27066D02*
X14598Y-27066D01*
X13877Y-26771D02*
X14173Y-27066D01*
X13877Y-25787D02*
X13877Y-26771D01*
X14173Y-25492D02*
X13877Y-25787D01*
X14763Y-25492D02*
X14173Y-25492D01*
X14960Y-25295D02*
X14763Y-25492D01*
X15354Y-25295D02*
X14960Y-25295D01*
X15452Y-25196D02*
X15354Y-25295D01*
X14385Y-26279D02*
X15173Y-25492D01*
X15649Y-25393D02*
X15551Y-25492D01*
X15649Y-22539D02*
X15649Y-25393D01*
X15551Y-25492D02*
X15173Y-25492D01*
X17224Y-20590D02*
X17224Y-21160D01*
X15649Y-21948D02*
X15649Y-22539D01*
X15649Y-22539D02*
X15649Y-22637D01*
X16043Y-21555D02*
X15649Y-21948D01*
X16830Y-21555D02*
X16043Y-21555D01*
X17224Y-21160D02*
X16830Y-21555D01*
G54D61*
X10826Y-21456D02*
X9507Y-21456D01*
X9507Y-21456D02*
X9448Y-21397D01*
X9448Y-15397D02*
X9885Y-15397D01*
X9885Y-15397D02*
X10236Y-15748D01*
X10236Y-15748D02*
X10236Y-16732D01*
X10236Y-16732D02*
X10580Y-17076D01*
X10580Y-17076D02*
X11141Y-17076D01*
G54D63*
X11141Y-17076D02*
X10580Y-17076D01*
X10236Y-15748D02*
X9885Y-15397D01*
X10236Y-16732D02*
X10236Y-15748D01*
X10580Y-17076D02*
X10236Y-16732D01*
G54D61*
X12598Y-17932D02*
X12598Y-17618D01*
X11564Y-16584D02*
X11141Y-16584D01*
X12598Y-17618D02*
X11564Y-16584D01*
X11141Y-16092D02*
X10777Y-16092D01*
X10777Y-16092D02*
X10629Y-15944D01*
X10629Y-15944D02*
X10629Y-14745D01*
G54D63*
X20786Y-17422D02*
X21455Y-17422D01*
X21455Y-17422D02*
X21948Y-16929D01*
X11141Y-16092D02*
X12450Y-16092D01*
X12450Y-16092D02*
X12500Y-16141D01*
X10629Y-14745D02*
X10629Y-15944D01*
X10629Y-15944D02*
X10777Y-16092D01*
X11909Y-25000D02*
X11909Y-24901D01*
X14370Y-21653D02*
X14370Y-21259D01*
X12598Y-23425D02*
X14370Y-21653D01*
X12598Y-24212D02*
X12598Y-23425D01*
X11909Y-24901D02*
X12598Y-24212D01*
X16220Y-18799D02*
X15452Y-18799D01*
X15452Y-18799D02*
X14960Y-19291D01*
X14960Y-19291D02*
X14960Y-20570D01*
X14960Y-20570D02*
X14370Y-21161D01*
X14370Y-21161D02*
X14370Y-21259D01*
X11909Y-25000D02*
X11909Y-25000D01*
X11909Y-25000D02*
X11909Y-26968D01*
X11909Y-26968D02*
X12106Y-27165D01*
X24409Y-26968D02*
X24231Y-26968D01*
X24507Y-26870D02*
X24409Y-26968D01*
X20472Y-16535D02*
X20866Y-16535D01*
X20866Y-16535D02*
X22440Y-14960D01*
X22440Y-14763D02*
X22244Y-14566D01*
X22440Y-14960D02*
X22440Y-14763D01*
X20786Y-18995D02*
X20373Y-18995D01*
X20275Y-16732D02*
X20472Y-16535D01*
X20275Y-18897D02*
X20275Y-16732D01*
X20373Y-18995D02*
X20275Y-18897D01*
X22440Y-14763D02*
X22440Y-14763D01*
X21259Y-13010D02*
X21259Y-12448D01*
X21259Y-12448D02*
X21594Y-12114D01*
X20275Y-16338D02*
X20472Y-16338D01*
X20472Y-16338D02*
X21850Y-14960D01*
X20078Y-17125D02*
X20078Y-16535D01*
X20176Y-19192D02*
X20078Y-19094D01*
X20078Y-19094D02*
X20078Y-17224D01*
X20078Y-17224D02*
X20078Y-17125D01*
X20786Y-19192D02*
X20176Y-19192D01*
X20078Y-16535D02*
X20275Y-16338D01*
X20594Y-12114D02*
X20594Y-12279D01*
X20275Y-12598D02*
X20275Y-13010D01*
X20594Y-12279D02*
X20275Y-12598D01*
X16220Y-19389D02*
X15847Y-19389D01*
X13976Y-24901D02*
X13976Y-25098D01*
X14074Y-24803D02*
X13976Y-24901D01*
X15059Y-23818D02*
X14074Y-24803D01*
X15059Y-21456D02*
X15059Y-23818D01*
X15551Y-20964D02*
X15059Y-21456D01*
X15551Y-20374D02*
X15551Y-20964D01*
X15551Y-20275D02*
X15551Y-20374D01*
X15551Y-19881D02*
X15551Y-20275D01*
X15551Y-19685D02*
X15551Y-19881D01*
X15649Y-19586D02*
X15551Y-19685D01*
X15847Y-19389D02*
X15649Y-19586D01*
X29054Y-26181D02*
X29054Y-26101D01*
X29054Y-26101D02*
X28641Y-25688D01*
X33555Y-17735D02*
X33778Y-17735D01*
X34437Y-18602D02*
X34555Y-18485D01*
X34055Y-18602D02*
X34437Y-18602D01*
X33956Y-18503D02*
X34055Y-18602D01*
X33956Y-17913D02*
X33956Y-18503D01*
X33778Y-17735D02*
X33956Y-17913D01*
G54D61*
X31514Y-22433D02*
X31389Y-22433D01*
X31389Y-22433D02*
X30610Y-21653D01*
X30610Y-21653D02*
X30610Y-19980D01*
G54D63*
X31389Y-22433D02*
X30610Y-21653D01*
X30610Y-21653D02*
X30610Y-19980D01*
X34555Y-18807D02*
X34555Y-18485D01*
X35039Y-19291D02*
X34555Y-18807D01*
G54D61*
X30265Y-23474D02*
X30561Y-23474D01*
X31889Y-22933D02*
X31889Y-22433D01*
X31102Y-22933D02*
X31889Y-22933D01*
X30561Y-23474D02*
X31102Y-22933D01*
X30511Y-24704D02*
X30511Y-23720D01*
X30118Y-23326D02*
X30118Y-19980D01*
X30511Y-23720D02*
X30265Y-23474D01*
X30265Y-23474D02*
X30118Y-23326D01*
X35334Y-18607D02*
X35329Y-18607D01*
X35334Y-18897D02*
X35329Y-18607D01*
X30511Y-24704D02*
X30511Y-24803D01*
X31889Y-23433D02*
X31889Y-22433D01*
X31378Y-26181D02*
X31378Y-25670D01*
X31378Y-25670D02*
X30511Y-24803D01*
X30511Y-24803D02*
X30511Y-24803D01*
X31889Y-26181D02*
X31791Y-26181D01*
X21358Y-27263D02*
X20275Y-26181D01*
X20275Y-26181D02*
X20275Y-25098D01*
X20275Y-25098D02*
X20669Y-24704D01*
G54D63*
X20669Y-24704D02*
X20275Y-25098D01*
X20275Y-25098D02*
X20275Y-26181D01*
G54D61*
X31791Y-26181D02*
X31378Y-26181D01*
X20669Y-24704D02*
X20669Y-24390D01*
G54D63*
X31378Y-26181D02*
X31378Y-26359D01*
X20669Y-24390D02*
X20669Y-24704D01*
G54D60*
X34645Y-26476D02*
X34645Y-26574D01*
G54D63*
X35137Y-26654D02*
X35058Y-26654D01*
X35058Y-26654D02*
X35039Y-26673D01*
X35137Y-26654D02*
X35451Y-26654D01*
X35826Y-26279D02*
X36515Y-26279D01*
X35451Y-26654D02*
X35826Y-26279D01*
X37007Y-26771D02*
X36515Y-26279D01*
X34645Y-26476D02*
X34645Y-25768D01*
G54D60*
X34744Y-26673D02*
X35039Y-26673D01*
X34645Y-26574D02*
X34744Y-26673D01*
G54D61*
X35826Y-23443D02*
X36565Y-23443D01*
X36565Y-23443D02*
X36663Y-23346D01*
X36220Y-22933D02*
X35826Y-23228D01*
X35826Y-23228D02*
X35826Y-23443D01*
G54D63*
X35826Y-23443D02*
X35826Y-23228D01*
G54D61*
X46259Y-20759D02*
X46448Y-20759D01*
X46733Y-22656D02*
X45972Y-22656D01*
X47047Y-22342D02*
X46733Y-22656D01*
X47047Y-21358D02*
X47047Y-22342D01*
X46448Y-20759D02*
X47047Y-21358D01*
G54D63*
X36663Y-23543D02*
X35926Y-23543D01*
X35926Y-23543D02*
X35826Y-23443D01*
G54D61*
X43100Y-24616D02*
X43100Y-24425D01*
X43250Y-24275D02*
X43925Y-24275D01*
X43100Y-24425D02*
X43250Y-24275D01*
G54D63*
X16732Y-19881D02*
X16830Y-19783D01*
X16731Y-17225D02*
X16927Y-17421D01*
X16732Y-19881D02*
X16437Y-20177D01*
X16731Y-17225D02*
X16220Y-17225D01*
X17814Y-18308D02*
X16927Y-17421D01*
X17814Y-18700D02*
X17814Y-18308D01*
X17618Y-18897D02*
X17814Y-18700D01*
X17618Y-19488D02*
X17618Y-18897D01*
X17322Y-19783D02*
X17618Y-19488D01*
X16830Y-19783D02*
X17322Y-19783D01*
G54D61*
X43149Y-24566D02*
X43100Y-24616D01*
X43100Y-24616D02*
X43110Y-24606D01*
X42907Y-26740D02*
X42907Y-26581D01*
X42907Y-26581D02*
X43307Y-26181D01*
X42125Y-26752D02*
X42894Y-26752D01*
X42894Y-26752D02*
X42907Y-26740D01*
X15944Y-20570D02*
X15944Y-19980D01*
X15944Y-19980D02*
X16043Y-19881D01*
X16043Y-19881D02*
X16240Y-19881D01*
X16043Y-19881D02*
X16240Y-19881D01*
X15944Y-20570D02*
X15944Y-19980D01*
X15944Y-19980D02*
X16043Y-19881D01*
G54D63*
X16142Y-19783D02*
X16043Y-19881D01*
X16043Y-19881D02*
X15944Y-19980D01*
X16220Y-19783D02*
X16142Y-19783D01*
G54D61*
X42888Y-26721D02*
X42907Y-26740D01*
X45972Y-23406D02*
X46437Y-23406D01*
X46437Y-23406D02*
X46653Y-23622D01*
G54D63*
X46437Y-23406D02*
X46653Y-23622D01*
X42888Y-26721D02*
X42907Y-26740D01*
G54D64*
X39566Y-21259D02*
X39566Y-23031D01*
X37788Y-20996D02*
X39007Y-20700D01*
X39007Y-20700D02*
X39566Y-21259D01*
X39566Y-21259D02*
X37953Y-21555D01*
X37953Y-21555D02*
X37788Y-21720D01*
G54D63*
X32264Y-23433D02*
X32488Y-23433D01*
X32488Y-23433D02*
X33169Y-24114D01*
X33169Y-24704D02*
X33169Y-24114D01*
X33267Y-24803D02*
X33169Y-24704D01*
X34055Y-24803D02*
X33267Y-24803D01*
X34645Y-25018D02*
X34270Y-25018D01*
X34270Y-25018D02*
X34055Y-24803D01*
X34645Y-25018D02*
X34762Y-25018D01*
X35315Y-25571D02*
X35629Y-25571D01*
X34762Y-25018D02*
X35315Y-25571D01*
X42322Y-12696D02*
X41633Y-12696D01*
X39566Y-13385D02*
X39566Y-12874D01*
X42690Y-12110D02*
X42820Y-10430D01*
X42780Y-10469D02*
X42820Y-10430D01*
X42780Y-10469D02*
X42677Y-11220D01*
G54D61*
X39173Y-16633D02*
X39074Y-16633D01*
X39960Y-17421D02*
X39173Y-16633D01*
X39960Y-18700D02*
X39960Y-17421D01*
X40452Y-19192D02*
X39960Y-18700D01*
X40452Y-21358D02*
X40452Y-19192D01*
X39029Y-16588D02*
X39074Y-16633D01*
X39029Y-16588D02*
X39029Y-15875D01*
X24920Y-21456D02*
X24901Y-21475D01*
X25492Y-21456D02*
X24920Y-21456D01*
G54D63*
X41712Y-13897D02*
X41633Y-13897D01*
X42322Y-13287D02*
X41712Y-13897D01*
X41633Y-13287D02*
X41633Y-12992D01*
X41555Y-13897D02*
X41633Y-13897D01*
X40944Y-13287D02*
X41555Y-13897D01*
X41240Y-12992D02*
X41633Y-12992D01*
X40944Y-12696D02*
X41240Y-12992D01*
X42303Y-13897D02*
X41633Y-13897D01*
X42322Y-13877D02*
X42303Y-13897D01*
X41633Y-12992D02*
X41633Y-12303D01*
X41633Y-12303D02*
X41732Y-12204D01*
X41633Y-12992D02*
X41633Y-12795D01*
X41633Y-12795D02*
X41043Y-12204D01*
X41633Y-12992D02*
X41732Y-12992D01*
X41732Y-12992D02*
X42618Y-12106D01*
X41633Y-12992D02*
X39960Y-12992D01*
X39960Y-12992D02*
X39566Y-13385D01*
G54D62*
X39513Y-13438D02*
X39566Y-13385D01*
X39566Y-13385D02*
X39513Y-13438D01*
X39566Y-12114D02*
X39566Y-13385D01*
X39763Y-14191D02*
X39566Y-13385D01*
G54D63*
X41633Y-12992D02*
X41633Y-13897D01*
X40944Y-13877D02*
X40964Y-13897D01*
X40964Y-13897D02*
X41633Y-13897D01*
G54D65*
X39029Y-15875D02*
X39029Y-15498D01*
X39029Y-15498D02*
X39173Y-15354D01*
X39173Y-15354D02*
X39173Y-14370D01*
X43425Y-9751D02*
X43056Y-11068D01*
X43056Y-11068D02*
X42850Y-11275D01*
G54D63*
X39763Y-14191D02*
X39154Y-14191D01*
X39154Y-14191D02*
X39029Y-14316D01*
X39029Y-14316D02*
X39029Y-15875D01*
X38029Y-15875D02*
X38029Y-15710D01*
X39029Y-15604D02*
X39029Y-15875D01*
X38779Y-15354D02*
X39029Y-15604D01*
X38385Y-15354D02*
X38779Y-15354D01*
X38029Y-15710D02*
X38385Y-15354D01*
G54D62*
X41633Y-12992D02*
X40766Y-12992D01*
X40766Y-12992D02*
X39763Y-14191D01*
X41633Y-12992D02*
X40444Y-12992D01*
X40444Y-12992D02*
X39566Y-12114D01*
X37746Y-13438D02*
X39173Y-13438D01*
X39173Y-13438D02*
X39513Y-13438D01*
G54D65*
X41633Y-12992D02*
X42125Y-12598D01*
X42125Y-12598D02*
X43838Y-12401D01*
G54D61*
X43838Y-12401D02*
X42125Y-12598D01*
X42125Y-12598D02*
X41633Y-12992D01*
G54D64*
X43838Y-12401D02*
X42996Y-11421D01*
X42996Y-11421D02*
X42850Y-11275D01*
X42850Y-11275D02*
X42677Y-11220D01*
X42677Y-11220D02*
X42135Y-11220D01*
G54D61*
X38779Y-10629D02*
X38170Y-10629D01*
X38170Y-10629D02*
X37973Y-10826D01*
X37746Y-12938D02*
X38340Y-12938D01*
X38340Y-12938D02*
X38582Y-12696D01*
X38582Y-12696D02*
X38582Y-11122D01*
X38582Y-11122D02*
X38287Y-10826D01*
X38287Y-10826D02*
X37973Y-10826D01*
G54D63*
X17027Y-16024D02*
X17027Y-15945D01*
X17027Y-15945D02*
X16732Y-15649D01*
X31594Y-24901D02*
X31791Y-25000D01*
X31791Y-25000D02*
X32775Y-25000D01*
X32775Y-25000D02*
X33445Y-25670D01*
X33445Y-25670D02*
X33445Y-26181D01*
X33445Y-26181D02*
X33445Y-26063D01*
G54D62*
X41385Y-15147D02*
X41484Y-15561D01*
X41484Y-15561D02*
X41141Y-15903D01*
X41717Y-15930D02*
X41717Y-15565D01*
X41717Y-15565D02*
X41732Y-15551D01*
X41141Y-15147D02*
X41141Y-15903D01*
X41141Y-15903D02*
X41389Y-16151D01*
X40885Y-15147D02*
X41141Y-15147D01*
X41141Y-15147D02*
X41722Y-15147D01*
X41722Y-15147D02*
X41732Y-15157D01*
G54D61*
X41889Y-16151D02*
X41791Y-15242D01*
X41791Y-15242D02*
X41885Y-15147D01*
X41885Y-15147D02*
X41984Y-15663D01*
X41984Y-15663D02*
X41717Y-15930D01*
X41717Y-15930D02*
X41496Y-16151D01*
X41385Y-15147D02*
X41484Y-16139D01*
X41484Y-16139D02*
X41496Y-16151D01*
X40885Y-15147D02*
X40984Y-16139D01*
X40984Y-16139D02*
X40996Y-16151D01*
G54D64*
X45138Y-12401D02*
X45866Y-12598D01*
X45866Y-12598D02*
X46259Y-12204D01*
G54D61*
X37813Y-14763D02*
X37598Y-14763D01*
X37598Y-14763D02*
X37401Y-14566D01*
G54D63*
X35438Y-13982D02*
X35482Y-13938D01*
X35629Y-14566D02*
X35438Y-14375D01*
X35438Y-14375D02*
X35438Y-13982D01*
X37598Y-14763D02*
X37401Y-14566D01*
G54D65*
X32480Y-15551D02*
X34015Y-15551D01*
X34015Y-15551D02*
X34015Y-15405D01*
X34015Y-15405D02*
X35482Y-13938D01*
G54D63*
X41141Y-17204D02*
X40393Y-17204D01*
X40393Y-17204D02*
X40551Y-17322D01*
X41141Y-17204D02*
X41141Y-16850D01*
X41141Y-16850D02*
X41102Y-16811D01*
X41141Y-17204D02*
X41141Y-16968D01*
X41141Y-16968D02*
X40551Y-16811D01*
G54D61*
X42913Y-18307D02*
X42716Y-18307D01*
X43257Y-18651D02*
X42913Y-18307D01*
X43257Y-19173D02*
X43257Y-18651D01*
X42716Y-18307D02*
X42440Y-18582D01*
X41141Y-17204D02*
X41141Y-18110D01*
G54D62*
X41141Y-18307D02*
X41141Y-18503D01*
X41811Y-19173D02*
X43257Y-19173D01*
X41141Y-18503D02*
X41811Y-19173D01*
G54D61*
X43257Y-19173D02*
X42765Y-19173D01*
X41141Y-18307D02*
X41338Y-18307D01*
X42204Y-19173D02*
X42765Y-19173D01*
X41338Y-18307D02*
X42204Y-19173D01*
G54D65*
X44242Y-19173D02*
X44251Y-19173D01*
X44251Y-19173D02*
X44803Y-18622D01*
X43750Y-19173D02*
X43750Y-18612D01*
X43750Y-18612D02*
X43818Y-18543D01*
X46358Y-19051D02*
X44364Y-19051D01*
X44364Y-19051D02*
X44242Y-19173D01*
X46358Y-18051D02*
X46358Y-19051D01*
X45078Y-16910D02*
X45078Y-17401D01*
X45728Y-18051D02*
X46358Y-18051D01*
X45078Y-17401D02*
X45728Y-18051D01*
G54D61*
X43750Y-19173D02*
X44242Y-19173D01*
X38996Y-17224D02*
X39000Y-17224D01*
X38976Y-17244D02*
X38996Y-17224D01*
X36318Y-18011D02*
X36318Y-18477D01*
X36318Y-18477D02*
X36337Y-18496D01*
X37087Y-19496D02*
X37609Y-19496D01*
X37609Y-19496D02*
X37617Y-19488D01*
G54D63*
X37087Y-19496D02*
X37087Y-19075D01*
X37087Y-19075D02*
X36909Y-18897D01*
X36909Y-18897D02*
X36417Y-18897D01*
X36417Y-18897D02*
X36337Y-18817D01*
X36337Y-18817D02*
X36337Y-18496D01*
X37616Y-19488D02*
X37617Y-19488D01*
X36318Y-18011D02*
X36358Y-18051D01*
G54D61*
X39529Y-18375D02*
X39529Y-17753D01*
X39529Y-17753D02*
X39000Y-17224D01*
X39000Y-17224D02*
X38287Y-17224D01*
X38287Y-17224D02*
X37617Y-17894D01*
X37617Y-17894D02*
X37617Y-19488D01*
G54D63*
X37617Y-19488D02*
X37617Y-17894D01*
X39074Y-17224D02*
X39566Y-17716D01*
X38287Y-17224D02*
X39074Y-17224D01*
X37617Y-17894D02*
X38287Y-17224D01*
X22244Y-21475D02*
X22244Y-21358D01*
X22637Y-20964D02*
X22637Y-18503D01*
X22244Y-21358D02*
X22637Y-20964D01*
X39566Y-17716D02*
X39529Y-17753D01*
G54D61*
X45078Y-16160D02*
X44605Y-16160D01*
X44605Y-16160D02*
X44389Y-15944D01*
G54D63*
X18995Y-20590D02*
X18995Y-21062D01*
X20256Y-21259D02*
X20472Y-21475D01*
X19192Y-21259D02*
X20256Y-21259D01*
X18995Y-21062D02*
X19192Y-21259D01*
X18995Y-20177D02*
X18799Y-19783D01*
X18995Y-20177D02*
X18995Y-20590D01*
X44605Y-16160D02*
X44389Y-15944D01*
X20472Y-21475D02*
X21358Y-21475D01*
G54D61*
X42965Y-25400D02*
X42230Y-25400D01*
X42230Y-25400D02*
X42224Y-25393D01*
X11614Y-14745D02*
X12087Y-14745D01*
X12087Y-14745D02*
X12204Y-14862D01*
G54D63*
X12087Y-14745D02*
X12204Y-14862D01*
G54D61*
X11614Y-14745D02*
X11614Y-15059D01*
X11614Y-15059D02*
X11909Y-15354D01*
G54D63*
X11614Y-15059D02*
X11909Y-15354D01*
G54D61*
X11141Y-15600D02*
X11141Y-15217D01*
X11141Y-15217D02*
X11614Y-14745D01*
X11073Y-12350D02*
X11798Y-12350D01*
X11798Y-12350D02*
X11889Y-12440D01*
X13957Y-19685D02*
X14271Y-19685D01*
X14271Y-19685D02*
X14468Y-19488D01*
X11023Y-18996D02*
X10925Y-18682D01*
G54D63*
X10925Y-18897D02*
X11023Y-18996D01*
X10826Y-18583D02*
X10925Y-18897D01*
G54D61*
X10925Y-18682D02*
X10826Y-18583D01*
X14566Y-18878D02*
X14566Y-19389D01*
X14566Y-19389D02*
X14468Y-19488D01*
X42224Y-25393D02*
X42224Y-25904D01*
X42224Y-25904D02*
X42125Y-26002D01*
X16240Y-22834D02*
X16062Y-22656D01*
X16062Y-22656D02*
X16062Y-22244D01*
G54D63*
X22225Y-19703D02*
X22244Y-19685D01*
X21653Y-19703D02*
X22225Y-19703D01*
X23443Y-19666D02*
X23425Y-19685D01*
X23443Y-19666D02*
X24015Y-19666D01*
X18405Y-16024D02*
X18405Y-16928D01*
X18405Y-16928D02*
X18405Y-16929D01*
X19666Y-21672D02*
X19685Y-21653D01*
X19666Y-22244D02*
X19666Y-21672D01*
X16633Y-18602D02*
X16220Y-18602D01*
X16633Y-18602D02*
X17027Y-18996D01*
X16062Y-22244D02*
X16062Y-22656D01*
G54D61*
X17304Y-13976D02*
X17993Y-13976D01*
X17993Y-13976D02*
X18011Y-13957D01*
G54D63*
X17304Y-13976D02*
X17618Y-13976D01*
X20275Y-13760D02*
X20275Y-14074D01*
X20275Y-14074D02*
X20570Y-14370D01*
X21653Y-19703D02*
X21653Y-19174D01*
X18405Y-16024D02*
X18405Y-14351D01*
X18405Y-14351D02*
X18011Y-13957D01*
X17421Y-20590D02*
X17421Y-21259D01*
X16062Y-22028D02*
X16062Y-22244D01*
X16338Y-21751D02*
X16062Y-22028D01*
X16929Y-21751D02*
X16338Y-21751D01*
X17421Y-21259D02*
X16929Y-21751D01*
X16220Y-18602D02*
X14843Y-18602D01*
X14843Y-18602D02*
X14566Y-18878D01*
G54D62*
X24015Y-20177D02*
X23326Y-20866D01*
X24015Y-19666D02*
X24015Y-20177D01*
X23326Y-20866D02*
X23326Y-21555D01*
X23326Y-21555D02*
X23326Y-21948D01*
G54D63*
X24821Y-19017D02*
X24960Y-18878D01*
X24821Y-19578D02*
X24821Y-19017D01*
X18798Y-20590D02*
X18798Y-21554D01*
X19075Y-21653D02*
X19666Y-22244D01*
X18897Y-21653D02*
X19075Y-21653D01*
X18798Y-21554D02*
X18897Y-21653D01*
X17814Y-13976D02*
X17814Y-13957D01*
X11141Y-15217D02*
X11614Y-14745D01*
X24821Y-19578D02*
X24103Y-19578D01*
X24103Y-19578D02*
X24015Y-19666D01*
G54D62*
X24015Y-19666D02*
X24370Y-19666D01*
X24370Y-19666D02*
X24960Y-19075D01*
G54D63*
X20786Y-18799D02*
X21456Y-18799D01*
X21456Y-18799D02*
X21653Y-19174D01*
X21259Y-13760D02*
X20275Y-13760D01*
G54D62*
X44050Y-11275D02*
X44433Y-11275D01*
X44433Y-11275D02*
X45866Y-9842D01*
G54D63*
X29429Y-25511D02*
X29429Y-25492D01*
X29429Y-25492D02*
X29291Y-25354D01*
X29291Y-25354D02*
X29015Y-25354D01*
G54D61*
X10629Y-13995D02*
X10629Y-13897D01*
X10417Y-12850D02*
X11073Y-12850D01*
X10157Y-13110D02*
X10417Y-12850D01*
X10157Y-13425D02*
X10157Y-13110D01*
X10629Y-13897D02*
X10157Y-13425D01*
G54D63*
X37087Y-18496D02*
X37087Y-18030D01*
X37087Y-18030D02*
X37106Y-18011D01*
G54D62*
X36534Y-17027D02*
X36534Y-15630D01*
X36534Y-15630D02*
X36614Y-15551D01*
G54D63*
X36358Y-19488D02*
X36358Y-19921D01*
X36358Y-19921D02*
X36515Y-20078D01*
G54D62*
X31692Y-12607D02*
X31692Y-12106D01*
G54D61*
X31692Y-12607D02*
X31692Y-12106D01*
G54D60*
X31514Y-23433D02*
X31514Y-23640D01*
G54D63*
X33347Y-25178D02*
X32677Y-24507D01*
X32677Y-24507D02*
X32578Y-24507D01*
X33347Y-25178D02*
X33661Y-25178D01*
G54D60*
X32381Y-24507D02*
X32578Y-24507D01*
X31514Y-23640D02*
X32381Y-24507D01*
G54D63*
X32264Y-22433D02*
X32570Y-22433D01*
X32570Y-22433D02*
X32874Y-22736D01*
G54D61*
X34645Y-24075D02*
X34645Y-23917D01*
X34645Y-23917D02*
X34940Y-23622D01*
G54D63*
X33862Y-17027D02*
X33858Y-16732D01*
X33858Y-16732D02*
X33858Y-16535D01*
G54D61*
X38385Y-22342D02*
X38385Y-22440D01*
X38139Y-22687D02*
X38139Y-23346D01*
X38385Y-22440D02*
X38139Y-22687D01*
X38582Y-26771D02*
X38582Y-26002D01*
X38582Y-26002D02*
X38995Y-25590D01*
G54D63*
X26582Y-13170D02*
X26162Y-13170D01*
X26162Y-13170D02*
X26082Y-13090D01*
G54D60*
X26162Y-13170D02*
X26082Y-13090D01*
G54D63*
X25582Y-12420D02*
X25313Y-12420D01*
X25313Y-12420D02*
X25098Y-12204D01*
G54D60*
X25313Y-12420D02*
X25098Y-12204D01*
G54D63*
X25582Y-10747D02*
X25582Y-10622D01*
X25582Y-10622D02*
X25196Y-10236D01*
X25582Y-10622D02*
X25196Y-10236D01*
X26582Y-11497D02*
X26162Y-11497D01*
X26162Y-11497D02*
X26082Y-11417D01*
X26162Y-11497D02*
X26082Y-11417D01*
G54D61*
X31614Y-10728D02*
X31614Y-10413D01*
X31614Y-10413D02*
X31889Y-10137D01*
G54D63*
X24960Y-18128D02*
X24960Y-18149D01*
X24821Y-18288D02*
X24507Y-18288D01*
X24960Y-18149D02*
X24821Y-18288D01*
G54D61*
X24114Y-17538D02*
X24114Y-16821D01*
X24114Y-16821D02*
X24990Y-15944D01*
X24114Y-18288D02*
X23443Y-18288D01*
X23443Y-18288D02*
X23425Y-18307D01*
X23443Y-18288D02*
X23425Y-18307D01*
X16929Y-22736D02*
X16929Y-22361D01*
X16929Y-22361D02*
X16812Y-22244D01*
G54D63*
X17618Y-20590D02*
X17618Y-21455D01*
X17618Y-21455D02*
X16830Y-22244D01*
X16830Y-22244D02*
X16812Y-22244D01*
X21062Y-22637D02*
X21653Y-22637D01*
X21358Y-22342D02*
X21653Y-22637D01*
X21358Y-22342D02*
X21358Y-22225D01*
X20472Y-22225D02*
X20472Y-22440D01*
X20472Y-22440D02*
X20177Y-22736D01*
X20177Y-22736D02*
X19094Y-22736D01*
X19094Y-22736D02*
X18916Y-22558D01*
X18916Y-22558D02*
X18916Y-22244D01*
G54D61*
X13957Y-20472D02*
X14388Y-20453D01*
X14388Y-20453D02*
X14468Y-20374D01*
X43682Y-16043D02*
X43799Y-16043D01*
X43799Y-16043D02*
X44242Y-16486D01*
X44242Y-16486D02*
X44242Y-17047D01*
X16929Y-13385D02*
X17932Y-13385D01*
G54D63*
X17008Y-13306D02*
X16929Y-13385D01*
X18011Y-13306D02*
X17008Y-13306D01*
G54D61*
X17932Y-13385D02*
X18011Y-13306D01*
X38995Y-25590D02*
X38995Y-25313D01*
X38995Y-25313D02*
X38779Y-25098D01*
G54D63*
X38995Y-25313D02*
X38779Y-25098D01*
G54D61*
X38779Y-25098D02*
X38779Y-25375D01*
X38779Y-25375D02*
X38995Y-25590D01*
X38139Y-25472D02*
X38876Y-25472D01*
X38876Y-25472D02*
X38995Y-25590D01*
X36663Y-25472D02*
X36663Y-24950D01*
X36663Y-24950D02*
X37303Y-24311D01*
G54D63*
X36663Y-24950D02*
X37303Y-24311D01*
G54D61*
X35826Y-24193D02*
X36239Y-24193D01*
X36239Y-24193D02*
X36318Y-24114D01*
G54D63*
X36239Y-24193D02*
X36318Y-24114D01*
G54D61*
X38139Y-23346D02*
X38405Y-23346D01*
X38405Y-23346D02*
X38484Y-23425D01*
G54D63*
X38405Y-23346D02*
X38484Y-23425D01*
G54D61*
X40255Y-26870D02*
X40274Y-26870D01*
G54D63*
X40551Y-26574D02*
X40255Y-26870D01*
X40569Y-26574D02*
X40551Y-26574D01*
G54D61*
X40274Y-26870D02*
X40569Y-26574D01*
X45972Y-23031D02*
X45570Y-23031D01*
X45472Y-22350D02*
X44881Y-21759D01*
X45472Y-22933D02*
X45472Y-22350D01*
X45570Y-23031D02*
X45472Y-22933D01*
X10629Y-13995D02*
X12186Y-13995D01*
X12186Y-13995D02*
X12204Y-13976D01*
G54D63*
X12186Y-13995D02*
X12204Y-13976D01*
X13267Y-14940D02*
X13188Y-14862D01*
X13267Y-15600D02*
X13267Y-14940D01*
X15354Y-15452D02*
X14862Y-14960D01*
X15354Y-15452D02*
X15354Y-15569D01*
X20650Y-22225D02*
X20472Y-22225D01*
X20650Y-22225D02*
X21062Y-22637D01*
X16928Y-18405D02*
X17027Y-18503D01*
X16220Y-18405D02*
X16928Y-18405D01*
X21967Y-18424D02*
X22145Y-18602D01*
X21967Y-18424D02*
X21653Y-18424D01*
X33445Y-12204D02*
X33445Y-12125D01*
X33445Y-12125D02*
X33759Y-11811D01*
X33720Y-13976D02*
X33366Y-13976D01*
X33366Y-13976D02*
X33267Y-14074D01*
G54D62*
X36398Y-11497D02*
X36398Y-10826D01*
X36398Y-11497D02*
X36417Y-11515D01*
G54D63*
X36909Y-12007D02*
X36869Y-11968D01*
X36869Y-11968D02*
X36909Y-12007D01*
X36909Y-12007D02*
X36909Y-11928D01*
X18897Y-13779D02*
X18897Y-13995D01*
X18897Y-13779D02*
X18325Y-13207D01*
X18325Y-13207D02*
X18011Y-13207D01*
G54D62*
X24015Y-18916D02*
X24015Y-18386D01*
X24015Y-18386D02*
X24114Y-18288D01*
G54D61*
X23425Y-18700D02*
X23542Y-18817D01*
X23542Y-18817D02*
X24015Y-18916D01*
G54D63*
X18916Y-22244D02*
X18916Y-22558D01*
X18916Y-22558D02*
X19094Y-22736D01*
X19094Y-22736D02*
X20177Y-22736D01*
X20177Y-22736D02*
X20472Y-22440D01*
G54D65*
X34645Y-24075D02*
X35708Y-24075D01*
X35708Y-24075D02*
X35826Y-24193D01*
G54D63*
X34251Y-12420D02*
X34565Y-12420D01*
X36122Y-12696D02*
X36614Y-13188D01*
X34842Y-12696D02*
X36122Y-12696D01*
X34565Y-12420D02*
X34842Y-12696D01*
G54D62*
X39566Y-11114D02*
X40829Y-11114D01*
X40829Y-11114D02*
X40935Y-11220D01*
X43425Y-8751D02*
X45011Y-8751D01*
X45011Y-8751D02*
X45905Y-9645D01*
X44050Y-11275D02*
X44050Y-11108D01*
G54D63*
X38995Y-19488D02*
X38995Y-19863D01*
X38995Y-19863D02*
X38877Y-19980D01*
G54D61*
X38367Y-19488D02*
X38367Y-19272D01*
X38367Y-19272D02*
X38029Y-18935D01*
X38029Y-18935D02*
X38029Y-18375D01*
X38029Y-18375D02*
X38029Y-18072D01*
X38029Y-18072D02*
X38385Y-17716D01*
G54D62*
X38367Y-19488D02*
X38995Y-19488D01*
G54D61*
X36614Y-15944D02*
X36614Y-15551D01*
X39763Y-14941D02*
X39763Y-15059D01*
X39763Y-15059D02*
X39960Y-15255D01*
X24114Y-17538D02*
X24114Y-17027D01*
X24114Y-17027D02*
X24015Y-16929D01*
X25215Y-17125D02*
X24704Y-17125D01*
X24704Y-17125D02*
X24507Y-16929D01*
X24990Y-15944D02*
X24803Y-15944D01*
X24803Y-15944D02*
X24311Y-16437D01*
X18325Y-13207D02*
X18011Y-13207D01*
X18897Y-13779D02*
X18325Y-13207D01*
G54D63*
X15532Y-11023D02*
X15532Y-10709D01*
X15532Y-10709D02*
X15354Y-10531D01*
X16220Y-18405D02*
X14843Y-18405D01*
X14843Y-18405D02*
X14566Y-18128D01*
X20786Y-18209D02*
X21438Y-18209D01*
X21438Y-18209D02*
X21653Y-18424D01*
X11614Y-13995D02*
X12186Y-13995D01*
G54D61*
X21358Y-22225D02*
X20472Y-22225D01*
X19094Y-24390D02*
X18522Y-24390D01*
X18405Y-24507D02*
X18405Y-24489D01*
X18522Y-24390D02*
X18405Y-24507D01*
X18307Y-25826D02*
X18307Y-24587D01*
X18307Y-24587D02*
X18110Y-24390D01*
X21653Y-25826D02*
X21653Y-24489D01*
X21653Y-24489D02*
X21555Y-24390D01*
X23917Y-25196D02*
X23917Y-25904D01*
X23917Y-25904D02*
X24193Y-26181D01*
X23917Y-24390D02*
X23917Y-25196D01*
X23917Y-24390D02*
X24231Y-24390D01*
X24231Y-24390D02*
X24901Y-23720D01*
G54D63*
X24231Y-24390D02*
X24901Y-23720D01*
G54D61*
X21555Y-24390D02*
X23917Y-24390D01*
X16338Y-24390D02*
X19783Y-24390D01*
G54D63*
X17027Y-24390D02*
X16338Y-24390D01*
X18110Y-24390D02*
X17027Y-24390D01*
X18307Y-24587D02*
X18405Y-24489D01*
X18405Y-24489D02*
X18503Y-24390D01*
X18503Y-24390D02*
X19783Y-24390D01*
X23031Y-24390D02*
X23917Y-24390D01*
X23031Y-24390D02*
X22244Y-24390D01*
X21751Y-24390D02*
X22244Y-24390D01*
X21653Y-24489D02*
X21751Y-24390D01*
X23917Y-25904D02*
X24193Y-26181D01*
X25768Y-26181D02*
X25768Y-25965D01*
X24784Y-25590D02*
X24193Y-26181D01*
X25393Y-25590D02*
X24784Y-25590D01*
X25768Y-25965D02*
X25393Y-25590D01*
X27638Y-26181D02*
X28149Y-26181D01*
X28149Y-26181D02*
X28248Y-26082D01*
X29016Y-26968D02*
X29232Y-26968D01*
X29429Y-26771D02*
X29429Y-25511D01*
X29232Y-26968D02*
X29429Y-26771D01*
X31712Y-26968D02*
X31712Y-26949D01*
X33070Y-25688D02*
X32874Y-25492D01*
X32874Y-25492D02*
X32283Y-25492D01*
X33385Y-26889D02*
X33385Y-26968D01*
X33070Y-26574D02*
X33070Y-26181D01*
X33385Y-26889D02*
X33070Y-26574D01*
X33070Y-26181D02*
X33070Y-25688D01*
X32283Y-26377D02*
X32283Y-25492D01*
X31712Y-26949D02*
X32283Y-26377D01*
X44242Y-17047D02*
X44242Y-16781D01*
X46358Y-16535D02*
X46358Y-16051D01*
X44488Y-16535D02*
X46358Y-16535D01*
X44242Y-16781D02*
X44488Y-16535D01*
G54D64*
X46358Y-15051D02*
X46350Y-15051D01*
X46350Y-15051D02*
X45177Y-13877D01*
X46358Y-14051D02*
X45350Y-14051D01*
X45350Y-14051D02*
X45177Y-13877D01*
X46358Y-17051D02*
X46358Y-14051D01*
G54D62*
X45350Y-14051D02*
X45177Y-13877D01*
G54D63*
X11614Y-13995D02*
X10629Y-13995D01*
X25196Y-19578D02*
X25196Y-19488D01*
X25393Y-18561D02*
X24960Y-18128D01*
X25393Y-19291D02*
X25393Y-18561D01*
X25196Y-19488D02*
X25393Y-19291D01*
G54D62*
X24114Y-18288D02*
X24507Y-18288D01*
X24507Y-18288D02*
X24923Y-18288D01*
X24923Y-18288D02*
X24960Y-18325D01*
X24114Y-17538D02*
X24803Y-17538D01*
X24803Y-17538D02*
X25215Y-17125D01*
G54D63*
X19094Y-24390D02*
X18110Y-24390D01*
X18601Y-20590D02*
X18601Y-22126D01*
X18601Y-22126D02*
X18719Y-22244D01*
X40569Y-26574D02*
X39979Y-26574D01*
X39979Y-26574D02*
X38995Y-25590D01*
X45972Y-23031D02*
X45669Y-23031D01*
X45472Y-21956D02*
X45275Y-21759D01*
X45472Y-22834D02*
X45472Y-21956D01*
X45669Y-23031D02*
X45472Y-22834D01*
G54D62*
X43700Y-21909D02*
X42519Y-21909D01*
X43522Y-22834D02*
X43522Y-22087D01*
X43850Y-21759D02*
X45275Y-21759D01*
X43522Y-22087D02*
X43850Y-21759D01*
X43522Y-22834D02*
X43522Y-23160D01*
X43522Y-23160D02*
X42116Y-24566D01*
X42116Y-24566D02*
X42116Y-23566D01*
X24990Y-15944D02*
X25215Y-16169D01*
X25215Y-16169D02*
X25215Y-17125D01*
G54D63*
X38367Y-19488D02*
X39191Y-19488D01*
X38029Y-18572D02*
X38029Y-18935D01*
X38029Y-18935D02*
X38367Y-19272D01*
G54D61*
X35482Y-13438D02*
X36364Y-13438D01*
X36364Y-13438D02*
X36614Y-13188D01*
X35482Y-13438D02*
X34986Y-13438D01*
X34448Y-13976D02*
X33720Y-13976D01*
X34986Y-13438D02*
X34448Y-13976D01*
G54D65*
X36614Y-13188D02*
X36614Y-12223D01*
X36614Y-12223D02*
X36909Y-11928D01*
X36909Y-11928D02*
X37223Y-11614D01*
X36614Y-15551D02*
X36614Y-13188D01*
G54D63*
X33445Y-12204D02*
X34036Y-12204D01*
X34036Y-12204D02*
X34251Y-12420D01*
X44242Y-16486D02*
X44242Y-17047D01*
G54D61*
X38287Y-22440D02*
X38385Y-22342D01*
G54D63*
X38385Y-22342D02*
X38287Y-22440D01*
X37746Y-12438D02*
X37757Y-12438D01*
X37973Y-12223D02*
X37973Y-11614D01*
X37757Y-12438D02*
X37973Y-12223D01*
G54D61*
X38563Y-14763D02*
X38563Y-14351D01*
X38563Y-14351D02*
X38151Y-13938D01*
X38151Y-13938D02*
X37746Y-13938D01*
G54D63*
X37746Y-13938D02*
X38151Y-13938D01*
X38151Y-13938D02*
X38563Y-14351D01*
X32695Y-12204D02*
X32695Y-12992D01*
X18601Y-16024D02*
X18601Y-15354D01*
X18601Y-15354D02*
X18601Y-15040D01*
X18601Y-15040D02*
X18897Y-14745D01*
G54D62*
X27726Y-14919D02*
X27726Y-15419D01*
X27726Y-15419D02*
X27726Y-15919D01*
X27726Y-15919D02*
X27726Y-16419D01*
G54D61*
X28740Y-16535D02*
X29527Y-15846D01*
X29527Y-15846D02*
X29527Y-15551D01*
X32578Y-17697D02*
X32461Y-17697D01*
X32461Y-17697D02*
X31692Y-16929D01*
X32578Y-17697D02*
X32578Y-18110D01*
X32953Y-18485D02*
X33555Y-18485D01*
X32578Y-18110D02*
X32953Y-18485D01*
G54D63*
X32461Y-17697D02*
X31692Y-16929D01*
G54D61*
X29895Y-15919D02*
X30226Y-15919D01*
X29527Y-15551D02*
X29895Y-15919D01*
X29527Y-15059D02*
X29527Y-15551D01*
X30226Y-14919D02*
X29667Y-14919D01*
X29667Y-14919D02*
X29527Y-15059D01*
X40569Y-25590D02*
X39745Y-25590D01*
X37155Y-25472D02*
X37155Y-24950D01*
X37155Y-24950D02*
X37401Y-24704D01*
X37401Y-24704D02*
X38484Y-24704D01*
X38484Y-24704D02*
X38582Y-24606D01*
X38582Y-24606D02*
X39074Y-24606D01*
X39074Y-24606D02*
X39745Y-25276D01*
X39745Y-25276D02*
X39745Y-25590D01*
G54D62*
X33411Y-19320D02*
X32911Y-19320D01*
X33911Y-19320D02*
X33411Y-19320D01*
X34411Y-19320D02*
X33911Y-19320D01*
X32911Y-19320D02*
X34411Y-19320D01*
G54D63*
X33661Y-24428D02*
X33876Y-24428D01*
X37647Y-25836D02*
X37647Y-25472D01*
X37500Y-25984D02*
X37647Y-25836D01*
X36417Y-25984D02*
X37500Y-25984D01*
X36220Y-25787D02*
X36417Y-25984D01*
X36220Y-25393D02*
X36220Y-25787D01*
X36023Y-25196D02*
X36220Y-25393D01*
X35334Y-25196D02*
X36023Y-25196D01*
X35137Y-25000D02*
X35334Y-25196D01*
X35137Y-24803D02*
X35137Y-25000D01*
X34940Y-24606D02*
X35137Y-24803D01*
X34055Y-24606D02*
X34940Y-24606D01*
X33876Y-24428D02*
X34055Y-24606D01*
X33661Y-23800D02*
X33661Y-24428D01*
G54D61*
X38529Y-18375D02*
X38529Y-18746D01*
X39745Y-19174D02*
X39745Y-19488D01*
X39468Y-18897D02*
X39745Y-19174D01*
X38681Y-18897D02*
X39468Y-18897D01*
X38529Y-18746D02*
X38681Y-18897D01*
G54D63*
X35482Y-12438D02*
X35482Y-12340D01*
X35482Y-12340D02*
X35433Y-12291D01*
X35433Y-12291D02*
X35433Y-12204D01*
X35433Y-12204D02*
X35433Y-12291D01*
G54D65*
X35217Y-11614D02*
X35217Y-12075D01*
X35217Y-12075D02*
X35433Y-12291D01*
X35433Y-12291D02*
X35482Y-12340D01*
X35648Y-10826D02*
X35648Y-11183D01*
X35648Y-11183D02*
X35217Y-11614D01*
G54D63*
X34251Y-13170D02*
X33624Y-13170D01*
X33624Y-13170D02*
X33445Y-12992D01*
X35482Y-12938D02*
X34483Y-12938D01*
X34483Y-12938D02*
X34251Y-13170D01*
G54D61*
X38976Y-24015D02*
X37795Y-24015D01*
X37795Y-24015D02*
X37647Y-23868D01*
X37647Y-23868D02*
X37647Y-23346D01*
X42116Y-23066D02*
X42116Y-22824D01*
X42116Y-22824D02*
X41929Y-22637D01*
G54D63*
X37647Y-23868D02*
X37795Y-24015D01*
X37647Y-23868D02*
X37647Y-23346D01*
X12504Y-11023D02*
X13207Y-11023D01*
G54D61*
X35020Y-10826D02*
X35020Y-10451D01*
X35020Y-10451D02*
X35236Y-10236D01*
X35236Y-10236D02*
X37795Y-10236D01*
X37795Y-10236D02*
X37992Y-10039D01*
X37992Y-10039D02*
X37992Y-9606D01*
G54D63*
X37992Y-10039D02*
X37992Y-9606D01*
X37795Y-10236D02*
X37992Y-10039D01*
X35236Y-10236D02*
X37795Y-10236D01*
X35020Y-10451D02*
X35236Y-10236D01*
G54D61*
X34411Y-21820D02*
X34411Y-21690D01*
X35039Y-21062D02*
X35039Y-20177D01*
X34411Y-21690D02*
X35039Y-21062D01*
X35925Y-18307D02*
X35925Y-18897D01*
X34565Y-17144D02*
X35039Y-17618D01*
X35039Y-17618D02*
X35728Y-17618D01*
X35728Y-17618D02*
X35925Y-17814D01*
X35925Y-17814D02*
X35925Y-18307D01*
X34565Y-17027D02*
X34565Y-17144D01*
X33411Y-21214D02*
X33411Y-21820D01*
X34448Y-20177D02*
X33956Y-20669D01*
X33956Y-20669D02*
X33411Y-21214D01*
X35531Y-20177D02*
X35433Y-20177D01*
X35433Y-20177D02*
X35039Y-20177D01*
X35039Y-20177D02*
X34448Y-20177D01*
X35826Y-19881D02*
X35531Y-20177D01*
X35826Y-18996D02*
X35826Y-19881D01*
X35925Y-18897D02*
X35826Y-18996D01*
G54D63*
X34565Y-17027D02*
X34565Y-17724D01*
X34565Y-17724D02*
X34555Y-17735D01*
G54D61*
X35629Y-24821D02*
X36201Y-24821D01*
X37155Y-23868D02*
X37155Y-23346D01*
X36201Y-24821D02*
X37155Y-23868D01*
G54D63*
X30628Y-26181D02*
X30628Y-26711D01*
X30628Y-26711D02*
X30886Y-26968D01*
X32559Y-26968D02*
X32559Y-26317D01*
X32559Y-26317D02*
X32695Y-26181D01*
X29804Y-26181D02*
X29804Y-26930D01*
X29804Y-26930D02*
X29842Y-26968D01*
G54D61*
X14782Y-11023D02*
X14782Y-10609D01*
X14782Y-10609D02*
X13779Y-9606D01*
X13779Y-9606D02*
X15118Y-9606D01*
X15118Y-9606D02*
X15748Y-10236D01*
X15748Y-10236D02*
X17618Y-10236D01*
X17618Y-10236D02*
X17913Y-9940D01*
X17913Y-9940D02*
X17913Y-9606D01*
G54D63*
X15748Y-10236D02*
X17283Y-10236D01*
X15118Y-9606D02*
X15748Y-10236D01*
X14782Y-10609D02*
X13779Y-9606D01*
X26888Y-26181D02*
X26888Y-26809D01*
X26888Y-26809D02*
X27047Y-26968D01*
X25018Y-26181D02*
X25018Y-26809D01*
X25018Y-26809D02*
X25177Y-26968D01*
X23443Y-26181D02*
X23443Y-26930D01*
X23443Y-26930D02*
X23405Y-26968D01*
G54D61*
X43715Y-25400D02*
X43715Y-26722D01*
X43715Y-26722D02*
X43733Y-26740D01*
X43753Y-25438D02*
X43715Y-25400D01*
G54D63*
X43753Y-25438D02*
X43715Y-25400D01*
G54D61*
X44972Y-23406D02*
X44543Y-23406D01*
X44425Y-23525D02*
X43925Y-23525D01*
X44543Y-23406D02*
X44425Y-23525D01*
X11818Y-20078D02*
X11818Y-18826D01*
X11818Y-18826D02*
X11712Y-18720D01*
X11712Y-18720D02*
X12560Y-18720D01*
X12560Y-18720D02*
X12598Y-18682D01*
X10826Y-17833D02*
X11652Y-17833D01*
X11652Y-17833D02*
X11712Y-17894D01*
G54D62*
X29330Y-10856D02*
X29330Y-10334D01*
X29072Y-10856D02*
X29330Y-10856D01*
X29330Y-10856D02*
X29572Y-10856D01*
X29572Y-10856D02*
X29572Y-10281D01*
X29572Y-10281D02*
X28897Y-9606D01*
X28897Y-9606D02*
X27952Y-9606D01*
X29072Y-10856D02*
X29072Y-10175D01*
X29072Y-10175D02*
X28503Y-9606D01*
X28503Y-9606D02*
X27952Y-9606D01*
G54D61*
X28897Y-9606D02*
X27952Y-9606D01*
X29572Y-10281D02*
X28897Y-9606D01*
X28503Y-9606D02*
X27952Y-9606D01*
X29072Y-10175D02*
X28503Y-9606D01*
G54D62*
X24606Y-9606D02*
X24606Y-10598D01*
X24606Y-10598D02*
X24805Y-10797D01*
X24305Y-10797D02*
X24606Y-10496D01*
X24606Y-10496D02*
X24606Y-9606D01*
G54D65*
X24606Y-9606D02*
X24606Y-10496D01*
X24305Y-10797D02*
X24805Y-10797D01*
X24805Y-10797D02*
X24606Y-10598D01*
G54D62*
X23805Y-10797D02*
X23805Y-10517D01*
X21712Y-9606D02*
X21259Y-9606D01*
X22637Y-10531D02*
X21712Y-9606D01*
X23791Y-10531D02*
X22637Y-10531D01*
X23805Y-10517D02*
X23791Y-10531D01*
X23805Y-10797D02*
X23305Y-10797D01*
X23305Y-10797D02*
X22450Y-10797D01*
X22450Y-10797D02*
X21259Y-9606D01*
G54D65*
X23805Y-10797D02*
X22450Y-10797D01*
X22450Y-10797D02*
X21259Y-9606D01*
G54D61*
X22450Y-10797D02*
X21259Y-9606D01*
X22450Y-10797D02*
X21259Y-9606D01*
G54D62*
X30072Y-10856D02*
X30072Y-10657D01*
X30572Y-10629D02*
X30572Y-10864D01*
X30100Y-10629D02*
X30572Y-10629D01*
X30072Y-10657D02*
X30100Y-10629D01*
X30072Y-10856D02*
X30572Y-10856D01*
X30572Y-10856D02*
X30580Y-10856D01*
X30580Y-10856D02*
X30572Y-10864D01*
X31299Y-10137D02*
X31299Y-9606D01*
X30572Y-10864D02*
X31299Y-10137D01*
G54D61*
X30572Y-10856D02*
X30572Y-10568D01*
X30572Y-10568D02*
X30905Y-10236D01*
X31299Y-9842D02*
X31299Y-9606D01*
X30905Y-10236D02*
X31299Y-9842D01*
X30572Y-10856D02*
X30072Y-10856D01*
X22244Y-22225D02*
X22244Y-22244D01*
X23031Y-23031D02*
X23031Y-23640D01*
X22244Y-22244D02*
X23031Y-23031D01*
G54D63*
X20786Y-18012D02*
X21948Y-18012D01*
X22558Y-22225D02*
X22244Y-22225D01*
X22933Y-21850D02*
X22558Y-22225D01*
X22933Y-20570D02*
X22933Y-21850D01*
X23031Y-20472D02*
X22933Y-20570D01*
X23031Y-18208D02*
X23031Y-20472D01*
X22834Y-18011D02*
X23031Y-18208D01*
X22145Y-18011D02*
X22834Y-18011D01*
X21948Y-18012D02*
X22145Y-18011D01*
G54D61*
X41338Y-9606D02*
X41240Y-9507D01*
X41240Y-9153D02*
X40944Y-8858D01*
X41240Y-9507D02*
X41240Y-9153D01*
X40944Y-8858D02*
X40354Y-8858D01*
X40354Y-8858D02*
X39960Y-9251D01*
X39960Y-9251D02*
X38582Y-9251D01*
X38582Y-9251D02*
X38385Y-9055D01*
X38385Y-9055D02*
X37401Y-9055D01*
X37401Y-9055D02*
X37204Y-9251D01*
X37204Y-9251D02*
X37204Y-9606D01*
G54D63*
X37204Y-9606D02*
X37204Y-9448D01*
X40354Y-8858D02*
X40944Y-8858D01*
X39960Y-9251D02*
X40354Y-8858D01*
X38582Y-9251D02*
X39960Y-9251D01*
X38385Y-9055D02*
X38582Y-9251D01*
X37598Y-9055D02*
X38385Y-9055D01*
X37204Y-9448D02*
X37598Y-9055D01*
G54D61*
X41319Y-26574D02*
X41319Y-25590D01*
X13207Y-20472D02*
X13207Y-20984D01*
X13207Y-20984D02*
X13680Y-21457D01*
X13207Y-20472D02*
X13207Y-19685D01*
X13207Y-19685D02*
X13385Y-19506D01*
X13385Y-19506D02*
X13385Y-19272D01*
X13385Y-19272D02*
X13779Y-18878D01*
G54D10*
G36*
X46974Y-13493D02*
X46659Y-13493D01*
X46604Y-13456D01*
X46358Y-13407D01*
X45879Y-13407D01*
X45852Y-13379D01*
X45852Y-13288D01*
X45814Y-13196D01*
X45743Y-13126D01*
X45652Y-13088D01*
X45552Y-13087D01*
X44735Y-13087D01*
X44735Y-12893D01*
X44735Y-12035D01*
X45050Y-11838D01*
X45050Y-11290D01*
X45070Y-11270D01*
X45316Y-11270D01*
X45560Y-11371D01*
X46169Y-11372D01*
X46415Y-11270D01*
X46974Y-11270D01*
X46974Y-13493D01*
X46974Y-13493D01*
G37*
G54D63*
X46974Y-13493D02*
X46659Y-13493D01*
X46604Y-13456D01*
X46358Y-13407D01*
X45879Y-13407D01*
X45852Y-13379D01*
X45852Y-13288D01*
X45814Y-13196D01*
X45743Y-13126D01*
X45652Y-13088D01*
X45552Y-13087D01*
X44735Y-13087D01*
X44735Y-12893D01*
X44735Y-12035D01*
X45050Y-11838D01*
X45050Y-11290D01*
X45070Y-11270D01*
X45316Y-11270D01*
X45560Y-11371D01*
X46169Y-11372D01*
X46415Y-11270D01*
X46974Y-11270D01*
X46974Y-13493D01*
G54D10*
G36*
X44241Y-10402D02*
X44044Y-10500D01*
X44044Y-10524D01*
X43750Y-10524D01*
X43658Y-10562D01*
X43588Y-10633D01*
X43550Y-10725D01*
X43549Y-10824D01*
X43549Y-11824D01*
X43587Y-11916D01*
X43658Y-11986D01*
X43750Y-12024D01*
X43849Y-12025D01*
X44044Y-12025D01*
X44044Y-14516D01*
X42384Y-14516D01*
X42339Y-14486D01*
X42224Y-14463D01*
X40649Y-14463D01*
X40534Y-14486D01*
X40489Y-14516D01*
X40038Y-14516D01*
X39989Y-14516D01*
X39439Y-14516D01*
X39439Y-14516D01*
X38989Y-14516D01*
X38989Y-14516D01*
X38989Y-14439D01*
X38951Y-14347D01*
X38901Y-14298D01*
X38885Y-14218D01*
X38810Y-14105D01*
X38810Y-14105D01*
X38397Y-13692D01*
X38284Y-13617D01*
X38262Y-13612D01*
X38235Y-13607D01*
X38235Y-13607D01*
X38219Y-13600D01*
X38201Y-13600D01*
X38201Y-13600D01*
X38151Y-13590D01*
X38151Y-13590D01*
X37746Y-13590D01*
X37696Y-13600D01*
X37395Y-13600D01*
X37395Y-13277D01*
X37696Y-13277D01*
X37746Y-13287D01*
X38340Y-13287D01*
X38340Y-13287D01*
X38340Y-13287D01*
X38451Y-13265D01*
X38473Y-13260D01*
X38473Y-13260D01*
X38586Y-13185D01*
X38730Y-13042D01*
X38757Y-13042D01*
X39026Y-12735D01*
X39026Y-11668D01*
X40424Y-11775D01*
X40424Y-11824D01*
X40462Y-11916D01*
X40533Y-11986D01*
X40625Y-12024D01*
X40724Y-12025D01*
X41224Y-12025D01*
X41316Y-11987D01*
X41386Y-11916D01*
X41413Y-11851D01*
X41585Y-11865D01*
X41585Y-10483D01*
X42569Y-10483D01*
X42569Y-9301D01*
X43108Y-9301D01*
X43741Y-9301D01*
X44241Y-9301D01*
X44241Y-10402D01*
X44241Y-10402D01*
G37*
G54D63*
X44241Y-10402D02*
X44044Y-10500D01*
X44044Y-10524D01*
X43750Y-10524D01*
X43658Y-10562D01*
X43588Y-10633D01*
X43550Y-10725D01*
X43549Y-10824D01*
X43549Y-11824D01*
X43587Y-11916D01*
X43658Y-11986D01*
X43750Y-12024D01*
X43849Y-12025D01*
X44044Y-12025D01*
X44044Y-14516D01*
X42384Y-14516D01*
X42339Y-14486D01*
X42224Y-14463D01*
X40649Y-14463D01*
X40534Y-14486D01*
X40489Y-14516D01*
X40038Y-14516D01*
X39989Y-14516D01*
X39439Y-14516D01*
X39439Y-14516D01*
X38989Y-14516D01*
X38989Y-14516D01*
X38989Y-14439D01*
X38951Y-14347D01*
X38901Y-14298D01*
X38885Y-14218D01*
X38810Y-14105D01*
X38810Y-14105D01*
X38397Y-13692D01*
X38284Y-13617D01*
X38262Y-13612D01*
X38235Y-13607D01*
X38235Y-13607D01*
X38219Y-13600D01*
X38201Y-13600D01*
X38201Y-13600D01*
X38151Y-13590D01*
X38151Y-13590D01*
X37746Y-13590D01*
X37696Y-13600D01*
X37395Y-13600D01*
X37395Y-13277D01*
X37696Y-13277D01*
X37746Y-13287D01*
X38340Y-13287D01*
X38340Y-13287D01*
X38340Y-13287D01*
X38451Y-13265D01*
X38473Y-13260D01*
X38473Y-13260D01*
X38586Y-13185D01*
X38730Y-13042D01*
X38757Y-13042D01*
X39026Y-12735D01*
X39026Y-11668D01*
X40424Y-11775D01*
X40424Y-11824D01*
X40462Y-11916D01*
X40533Y-11986D01*
X40625Y-12024D01*
X40724Y-12025D01*
X41224Y-12025D01*
X41316Y-11987D01*
X41386Y-11916D01*
X41413Y-11851D01*
X41585Y-11865D01*
X41585Y-10483D01*
X42569Y-10483D01*
X42569Y-9301D01*
X43108Y-9301D01*
X43741Y-9301D01*
X44241Y-9301D01*
X44241Y-10402D01*
G54D10*
G36*
X33316Y-20817D02*
X33165Y-20968D01*
X33089Y-21081D01*
X33085Y-21103D01*
X33064Y-21208D01*
X33020Y-21225D01*
X33020Y-22194D01*
X32742Y-22194D01*
X32685Y-22155D01*
X32636Y-22146D01*
X32614Y-22094D01*
X32544Y-22024D01*
X32452Y-21986D01*
X32353Y-21986D01*
X32292Y-21986D01*
X30958Y-20651D01*
X30958Y-20233D01*
X30970Y-20221D01*
X31035Y-20065D01*
X31035Y-19896D01*
X30970Y-19739D01*
X30955Y-19724D01*
X30955Y-18286D01*
X30729Y-18060D01*
X30371Y-18060D01*
X30224Y-18030D01*
X30077Y-18060D01*
X29971Y-18060D01*
X29971Y-17854D01*
X29996Y-17794D01*
X29996Y-17695D01*
X29996Y-17245D01*
X29971Y-17184D01*
X29971Y-17105D01*
X29577Y-16711D01*
X29577Y-16265D01*
X29661Y-16191D01*
X29688Y-16191D01*
X29688Y-16191D01*
X29762Y-16241D01*
X29895Y-16267D01*
X29947Y-16267D01*
X29951Y-16269D01*
X30050Y-16269D01*
X30500Y-16269D01*
X30548Y-16249D01*
X30694Y-16395D01*
X30694Y-16466D01*
X30732Y-16558D01*
X30803Y-16629D01*
X30894Y-16667D01*
X30966Y-16667D01*
X31267Y-16968D01*
X31267Y-17013D01*
X31332Y-17169D01*
X31451Y-17289D01*
X31608Y-17354D01*
X31625Y-17354D01*
X32053Y-17782D01*
X32053Y-17922D01*
X32091Y-18014D01*
X32161Y-18084D01*
X32230Y-18113D01*
X32252Y-18221D01*
X32256Y-18243D01*
X32332Y-18356D01*
X32430Y-18454D01*
X32430Y-19833D01*
X33316Y-19833D01*
X33316Y-20817D01*
X33316Y-20817D01*
G37*
G54D63*
X33316Y-20817D02*
X33165Y-20968D01*
X33089Y-21081D01*
X33085Y-21103D01*
X33064Y-21208D01*
X33020Y-21225D01*
X33020Y-22194D01*
X32742Y-22194D01*
X32685Y-22155D01*
X32636Y-22146D01*
X32614Y-22094D01*
X32544Y-22024D01*
X32452Y-21986D01*
X32353Y-21986D01*
X32292Y-21986D01*
X30958Y-20651D01*
X30958Y-20233D01*
X30970Y-20221D01*
X31035Y-20065D01*
X31035Y-19896D01*
X30970Y-19739D01*
X30955Y-19724D01*
X30955Y-18286D01*
X30729Y-18060D01*
X30371Y-18060D01*
X30224Y-18030D01*
X30077Y-18060D01*
X29971Y-18060D01*
X29971Y-17854D01*
X29996Y-17794D01*
X29996Y-17695D01*
X29996Y-17245D01*
X29971Y-17184D01*
X29971Y-17105D01*
X29577Y-16711D01*
X29577Y-16265D01*
X29661Y-16191D01*
X29688Y-16191D01*
X29688Y-16191D01*
X29762Y-16241D01*
X29895Y-16267D01*
X29947Y-16267D01*
X29951Y-16269D01*
X30050Y-16269D01*
X30500Y-16269D01*
X30548Y-16249D01*
X30694Y-16395D01*
X30694Y-16466D01*
X30732Y-16558D01*
X30803Y-16629D01*
X30894Y-16667D01*
X30966Y-16667D01*
X31267Y-16968D01*
X31267Y-17013D01*
X31332Y-17169D01*
X31451Y-17289D01*
X31608Y-17354D01*
X31625Y-17354D01*
X32053Y-17782D01*
X32053Y-17922D01*
X32091Y-18014D01*
X32161Y-18084D01*
X32230Y-18113D01*
X32252Y-18221D01*
X32256Y-18243D01*
X32332Y-18356D01*
X32430Y-18454D01*
X32430Y-19833D01*
X33316Y-19833D01*
X33316Y-20817D01*
G54D10*
G36*
X30343Y-12902D02*
X30166Y-12902D01*
X30166Y-14320D01*
X27538Y-14320D01*
X27115Y-14743D01*
X27115Y-16556D01*
X27538Y-16979D01*
X28296Y-16979D01*
X28296Y-17737D01*
X28719Y-18160D01*
X29113Y-18160D01*
X29477Y-18524D01*
X29477Y-19270D01*
X29113Y-19635D01*
X27609Y-19635D01*
X27609Y-18060D01*
X26554Y-18060D01*
X26327Y-18286D01*
X26327Y-19831D01*
X26034Y-19831D01*
X26034Y-19405D01*
X26062Y-19377D01*
X26112Y-19257D01*
X26112Y-19128D01*
X26063Y-19009D01*
X26034Y-18980D01*
X26034Y-18847D01*
X25640Y-18847D01*
X25640Y-14541D01*
X25213Y-14221D01*
X23179Y-14221D01*
X23179Y-13140D01*
X23255Y-13140D01*
X23435Y-12869D01*
X23460Y-12845D01*
X23619Y-12845D01*
X23619Y-12945D01*
X23578Y-12987D01*
X23555Y-13042D01*
X23555Y-13101D01*
X23555Y-13551D01*
X23577Y-13607D01*
X23620Y-13649D01*
X23675Y-13672D01*
X23734Y-13672D01*
X23934Y-13672D01*
X23989Y-13649D01*
X24032Y-13607D01*
X24055Y-13552D01*
X24055Y-13492D01*
X24055Y-13042D01*
X24032Y-12987D01*
X24018Y-12973D01*
X24018Y-12870D01*
X24039Y-12845D01*
X24140Y-12845D01*
X24337Y-12550D01*
X24481Y-12550D01*
X24677Y-12845D01*
X24808Y-12845D01*
X24822Y-12880D01*
X24864Y-12922D01*
X24675Y-12922D01*
X24620Y-12945D01*
X24578Y-12987D01*
X24555Y-13042D01*
X24555Y-13101D01*
X24555Y-13551D01*
X24577Y-13607D01*
X24620Y-13649D01*
X24675Y-13672D01*
X24734Y-13672D01*
X24934Y-13672D01*
X24989Y-13649D01*
X25032Y-13607D01*
X25055Y-13552D01*
X25055Y-13492D01*
X25055Y-13370D01*
X25248Y-13370D01*
X25258Y-13393D01*
X25300Y-13435D01*
X25355Y-13458D01*
X25415Y-13458D01*
X25466Y-13458D01*
X25763Y-13829D01*
X27779Y-13829D01*
X28002Y-13551D01*
X28002Y-12333D01*
X29036Y-12333D01*
X29280Y-12542D01*
X29280Y-12845D01*
X29328Y-12845D01*
X29328Y-13088D01*
X29322Y-13101D01*
X29322Y-13161D01*
X29322Y-13611D01*
X29345Y-13666D01*
X29387Y-13708D01*
X29442Y-13731D01*
X29502Y-13731D01*
X29702Y-13731D01*
X29757Y-13708D01*
X29799Y-13666D01*
X29822Y-13611D01*
X29822Y-13551D01*
X29822Y-13101D01*
X29800Y-13046D01*
X29757Y-13004D01*
X29726Y-12991D01*
X29726Y-12845D01*
X29892Y-12845D01*
X29892Y-12622D01*
X29802Y-12487D01*
X29154Y-11839D01*
X28357Y-11839D01*
X28357Y-11546D01*
X30097Y-11546D01*
X30343Y-11792D01*
X30343Y-12902D01*
X30343Y-12902D01*
G37*
G54D63*
X30343Y-12902D02*
X30166Y-12902D01*
X30166Y-14320D01*
X27538Y-14320D01*
X27115Y-14743D01*
X27115Y-16556D01*
X27538Y-16979D01*
X28296Y-16979D01*
X28296Y-17737D01*
X28719Y-18160D01*
X29113Y-18160D01*
X29477Y-18524D01*
X29477Y-19270D01*
X29113Y-19635D01*
X27609Y-19635D01*
X27609Y-18060D01*
X26554Y-18060D01*
X26327Y-18286D01*
X26327Y-19831D01*
X26034Y-19831D01*
X26034Y-19405D01*
X26062Y-19377D01*
X26112Y-19257D01*
X26112Y-19128D01*
X26063Y-19009D01*
X26034Y-18980D01*
X26034Y-18847D01*
X25640Y-18847D01*
X25640Y-14541D01*
X25213Y-14221D01*
X23179Y-14221D01*
X23179Y-13140D01*
X23255Y-13140D01*
X23435Y-12869D01*
X23460Y-12845D01*
X23619Y-12845D01*
X23619Y-12945D01*
X23578Y-12987D01*
X23555Y-13042D01*
X23555Y-13101D01*
X23555Y-13551D01*
X23577Y-13607D01*
X23620Y-13649D01*
X23675Y-13672D01*
X23734Y-13672D01*
X23934Y-13672D01*
X23989Y-13649D01*
X24032Y-13607D01*
X24055Y-13552D01*
X24055Y-13492D01*
X24055Y-13042D01*
X24032Y-12987D01*
X24018Y-12973D01*
X24018Y-12870D01*
X24039Y-12845D01*
X24140Y-12845D01*
X24337Y-12550D01*
X24481Y-12550D01*
X24677Y-12845D01*
X24808Y-12845D01*
X24822Y-12880D01*
X24864Y-12922D01*
X24675Y-12922D01*
X24620Y-12945D01*
X24578Y-12987D01*
X24555Y-13042D01*
X24555Y-13101D01*
X24555Y-13551D01*
X24577Y-13607D01*
X24620Y-13649D01*
X24675Y-13672D01*
X24734Y-13672D01*
X24934Y-13672D01*
X24989Y-13649D01*
X25032Y-13607D01*
X25055Y-13552D01*
X25055Y-13492D01*
X25055Y-13370D01*
X25248Y-13370D01*
X25258Y-13393D01*
X25300Y-13435D01*
X25355Y-13458D01*
X25415Y-13458D01*
X25466Y-13458D01*
X25763Y-13829D01*
X27779Y-13829D01*
X28002Y-13551D01*
X28002Y-12333D01*
X29036Y-12333D01*
X29280Y-12542D01*
X29280Y-12845D01*
X29328Y-12845D01*
X29328Y-13088D01*
X29322Y-13101D01*
X29322Y-13161D01*
X29322Y-13611D01*
X29345Y-13666D01*
X29387Y-13708D01*
X29442Y-13731D01*
X29502Y-13731D01*
X29702Y-13731D01*
X29757Y-13708D01*
X29799Y-13666D01*
X29822Y-13611D01*
X29822Y-13551D01*
X29822Y-13101D01*
X29800Y-13046D01*
X29757Y-13004D01*
X29726Y-12991D01*
X29726Y-12845D01*
X29892Y-12845D01*
X29892Y-12622D01*
X29802Y-12487D01*
X29154Y-11839D01*
X28357Y-11839D01*
X28357Y-11546D01*
X30097Y-11546D01*
X30343Y-11792D01*
X30343Y-12902D01*
G54D10*
G36*
X42075Y-16190D02*
X41997Y-16190D01*
X41997Y-16327D01*
X40798Y-16327D01*
X40798Y-14971D01*
X41997Y-14971D01*
X41997Y-15010D01*
X42075Y-15010D01*
X42075Y-16190D01*
X42075Y-16190D01*
G37*
G54D63*
X42075Y-16190D02*
X41997Y-16190D01*
X41997Y-16327D01*
X40798Y-16327D01*
X40798Y-14971D01*
X41997Y-14971D01*
X41997Y-15010D01*
X42075Y-15010D01*
X42075Y-16190D01*
G54D10*
G36*
X46974Y-21209D02*
X46576Y-21209D01*
X45943Y-21209D01*
X45198Y-21209D01*
X44565Y-21209D01*
X41780Y-21209D01*
X41780Y-22239D01*
X41688Y-22277D01*
X41673Y-22292D01*
X40601Y-22292D01*
X40601Y-21900D01*
X40795Y-21900D01*
X40811Y-21600D01*
X40812Y-21599D01*
X40877Y-21443D01*
X40877Y-21274D01*
X40834Y-21168D01*
X40893Y-20030D01*
X46974Y-20030D01*
X46974Y-21209D01*
X46974Y-21209D01*
G37*
G54D63*
X46974Y-21209D02*
X46576Y-21209D01*
X45943Y-21209D01*
X45198Y-21209D01*
X44565Y-21209D01*
X41780Y-21209D01*
X41780Y-22239D01*
X41688Y-22277D01*
X41673Y-22292D01*
X40601Y-22292D01*
X40601Y-21900D01*
X40795Y-21900D01*
X40811Y-21600D01*
X40812Y-21599D01*
X40877Y-21443D01*
X40877Y-21274D01*
X40834Y-21168D01*
X40893Y-20030D01*
X46974Y-20030D01*
X46974Y-21209D01*
G54D10*
G36*
X46698Y-22198D02*
X46604Y-22292D01*
X43847Y-22292D01*
X43847Y-22559D01*
X43847Y-22609D01*
X43847Y-23159D01*
X43847Y-23159D01*
X43847Y-23228D01*
X43847Y-23403D01*
X43004Y-24189D01*
X42869Y-24245D01*
X42750Y-24365D01*
X42707Y-24467D01*
X42401Y-24753D01*
X41880Y-24753D01*
X41880Y-23475D01*
X42471Y-23475D01*
X42471Y-23422D01*
X42483Y-23416D01*
X42554Y-23346D01*
X42592Y-23254D01*
X42592Y-23155D01*
X42592Y-22879D01*
X42554Y-22787D01*
X42484Y-22717D01*
X42471Y-22711D01*
X42471Y-22617D01*
X42316Y-22462D01*
X42289Y-22397D01*
X42175Y-22283D01*
X42175Y-21605D01*
X46698Y-21605D01*
X46698Y-22198D01*
X46698Y-22198D01*
G37*
G54D63*
X46698Y-22198D02*
X46604Y-22292D01*
X43847Y-22292D01*
X43847Y-22559D01*
X43847Y-22609D01*
X43847Y-23159D01*
X43847Y-23159D01*
X43847Y-23228D01*
X43847Y-23403D01*
X43004Y-24189D01*
X42869Y-24245D01*
X42750Y-24365D01*
X42707Y-24467D01*
X42401Y-24753D01*
X41880Y-24753D01*
X41880Y-23475D01*
X42471Y-23475D01*
X42471Y-23422D01*
X42483Y-23416D01*
X42554Y-23346D01*
X42592Y-23254D01*
X42592Y-23155D01*
X42592Y-22879D01*
X42554Y-22787D01*
X42484Y-22717D01*
X42471Y-22711D01*
X42471Y-22617D01*
X42316Y-22462D01*
X42289Y-22397D01*
X42175Y-22283D01*
X42175Y-21605D01*
X46698Y-21605D01*
X46698Y-22198D01*
G54D10*
G36*
X36957Y-21629D02*
X35021Y-23178D01*
X33711Y-23178D01*
X33711Y-22199D01*
X33723Y-22187D01*
X33761Y-22095D01*
X33761Y-21996D01*
X33761Y-21546D01*
X33759Y-21542D01*
X33759Y-21358D01*
X34203Y-20915D01*
X34203Y-20915D01*
X34203Y-20915D01*
X34593Y-20525D01*
X34690Y-20525D01*
X34690Y-20918D01*
X34263Y-21345D01*
X34261Y-21345D01*
X34169Y-21383D01*
X34099Y-21454D01*
X34061Y-21545D01*
X34061Y-21645D01*
X34061Y-22095D01*
X34099Y-22187D01*
X34169Y-22257D01*
X34261Y-22295D01*
X34360Y-22295D01*
X34560Y-22295D01*
X34652Y-22257D01*
X34723Y-22187D01*
X34761Y-22095D01*
X34761Y-21996D01*
X34761Y-21833D01*
X35285Y-21309D01*
X35285Y-21309D01*
X35285Y-21309D01*
X35361Y-21196D01*
X35387Y-21062D01*
X35387Y-20525D01*
X35433Y-20525D01*
X35531Y-20525D01*
X35531Y-20525D01*
X35531Y-20525D01*
X35547Y-20522D01*
X35547Y-20522D01*
X36957Y-20522D01*
X36957Y-21629D01*
X36957Y-21629D01*
G37*
G54D63*
X36957Y-21629D02*
X35021Y-23178D01*
X33711Y-23178D01*
X33711Y-22199D01*
X33723Y-22187D01*
X33761Y-22095D01*
X33761Y-21996D01*
X33761Y-21546D01*
X33759Y-21542D01*
X33759Y-21358D01*
X34203Y-20915D01*
X34203Y-20915D01*
X34203Y-20915D01*
X34593Y-20525D01*
X34690Y-20525D01*
X34690Y-20918D01*
X34263Y-21345D01*
X34261Y-21345D01*
X34169Y-21383D01*
X34099Y-21454D01*
X34061Y-21545D01*
X34061Y-21645D01*
X34061Y-22095D01*
X34099Y-22187D01*
X34169Y-22257D01*
X34261Y-22295D01*
X34360Y-22295D01*
X34560Y-22295D01*
X34652Y-22257D01*
X34723Y-22187D01*
X34761Y-22095D01*
X34761Y-21996D01*
X34761Y-21833D01*
X35285Y-21309D01*
X35285Y-21309D01*
X35285Y-21309D01*
X35361Y-21196D01*
X35387Y-21062D01*
X35387Y-20525D01*
X35433Y-20525D01*
X35531Y-20525D01*
X35531Y-20525D01*
X35531Y-20525D01*
X35547Y-20522D01*
X35547Y-20522D01*
X36957Y-20522D01*
X36957Y-21629D01*
G54D10*
G36*
X41387Y-24753D02*
X39714Y-24753D01*
X39616Y-24655D01*
X39616Y-23896D01*
X38927Y-23207D01*
X38927Y-22124D01*
X38504Y-21701D01*
X37550Y-21701D01*
X37550Y-20472D01*
X37550Y-20424D01*
X39095Y-20424D01*
X39292Y-20227D01*
X40009Y-20227D01*
X40009Y-22267D01*
X40729Y-22884D01*
X41387Y-22884D01*
X41387Y-24753D01*
X41387Y-24753D01*
G37*
G54D63*
X41387Y-24753D02*
X39714Y-24753D01*
X39616Y-24655D01*
X39616Y-23896D01*
X38927Y-23207D01*
X38927Y-22124D01*
X38504Y-21701D01*
X37550Y-21701D01*
X37550Y-20472D01*
X37550Y-20424D01*
X39095Y-20424D01*
X39292Y-20227D01*
X40009Y-20227D01*
X40009Y-22267D01*
X40729Y-22884D01*
X41387Y-22884D01*
X41387Y-24753D01*
G54D10*
G36*
X35875Y-14646D02*
X34668Y-16038D01*
X34547Y-16038D01*
X34432Y-16061D01*
X34387Y-16091D01*
X33621Y-16091D01*
X33607Y-16076D01*
X33451Y-16012D01*
X33281Y-16011D01*
X33125Y-16076D01*
X33110Y-16091D01*
X32945Y-16091D01*
X32748Y-16387D01*
X32235Y-16387D01*
X32235Y-14715D01*
X34172Y-14715D01*
X35058Y-13927D01*
X35832Y-13927D01*
X35832Y-14203D01*
X35870Y-14294D01*
X35875Y-14299D01*
X35875Y-14646D01*
X35875Y-14646D01*
G37*
G54D63*
X35875Y-14646D02*
X34668Y-16038D01*
X34547Y-16038D01*
X34432Y-16061D01*
X34387Y-16091D01*
X33621Y-16091D01*
X33607Y-16076D01*
X33451Y-16012D01*
X33281Y-16011D01*
X33125Y-16076D01*
X33110Y-16091D01*
X32945Y-16091D01*
X32748Y-16387D01*
X32235Y-16387D01*
X32235Y-14715D01*
X34172Y-14715D01*
X35058Y-13927D01*
X35832Y-13927D01*
X35832Y-14203D01*
X35870Y-14294D01*
X35875Y-14299D01*
X35875Y-14646D01*
G54D10*
G36*
X31544Y-15599D02*
X30953Y-15599D01*
X30953Y-15922D01*
X30630Y-15599D01*
X30574Y-15599D01*
X30501Y-15569D01*
X30401Y-15569D01*
X30038Y-15569D01*
X29971Y-15502D01*
X29971Y-15269D01*
X30050Y-15269D01*
X30500Y-15269D01*
X30592Y-15231D01*
X30663Y-15161D01*
X30701Y-15069D01*
X30701Y-14969D01*
X30701Y-14769D01*
X30663Y-14677D01*
X30660Y-14674D01*
X30660Y-14616D01*
X31544Y-14616D01*
X31544Y-15599D01*
X31544Y-15599D01*
G37*
G54D63*
X31544Y-15599D02*
X30953Y-15599D01*
X30953Y-15922D01*
X30630Y-15599D01*
X30574Y-15599D01*
X30501Y-15569D01*
X30401Y-15569D01*
X30038Y-15569D01*
X29971Y-15502D01*
X29971Y-15269D01*
X30050Y-15269D01*
X30500Y-15269D01*
X30592Y-15231D01*
X30663Y-15161D01*
X30701Y-15069D01*
X30701Y-14969D01*
X30701Y-14769D01*
X30663Y-14677D01*
X30660Y-14674D01*
X30660Y-14616D01*
X31544Y-14616D01*
X31544Y-15599D01*
G54D10*
G36*
X37446Y-10584D02*
X37353Y-11887D01*
X37056Y-12184D01*
X37056Y-13069D01*
X36957Y-13168D01*
X36957Y-13463D01*
X36859Y-13561D01*
X36859Y-13997D01*
X37056Y-14193D01*
X37056Y-14311D01*
X37041Y-14325D01*
X36976Y-14482D01*
X36976Y-14651D01*
X37041Y-14807D01*
X37056Y-14822D01*
X37056Y-16485D01*
X36532Y-16485D01*
X36172Y-16215D01*
X36172Y-14874D01*
X36270Y-14677D01*
X36270Y-13857D01*
X36163Y-13749D01*
X36073Y-13570D01*
X36073Y-13212D01*
X36117Y-13169D01*
X36155Y-13077D01*
X36155Y-12978D01*
X36155Y-12800D01*
X36117Y-12708D01*
X36097Y-12689D01*
X36117Y-12669D01*
X36155Y-12577D01*
X36155Y-12478D01*
X36155Y-12300D01*
X36117Y-12208D01*
X36073Y-12164D01*
X36073Y-11101D01*
X36073Y-11052D01*
X36073Y-10584D01*
X37446Y-10584D01*
X37446Y-10584D01*
G37*
G54D63*
X37446Y-10584D02*
X37353Y-11887D01*
X37056Y-12184D01*
X37056Y-13069D01*
X36957Y-13168D01*
X36957Y-13463D01*
X36859Y-13561D01*
X36859Y-13997D01*
X37056Y-14193D01*
X37056Y-14311D01*
X37041Y-14325D01*
X36976Y-14482D01*
X36976Y-14651D01*
X37041Y-14807D01*
X37056Y-14822D01*
X37056Y-16485D01*
X36532Y-16485D01*
X36172Y-16215D01*
X36172Y-14874D01*
X36270Y-14677D01*
X36270Y-13857D01*
X36163Y-13749D01*
X36073Y-13570D01*
X36073Y-13212D01*
X36117Y-13169D01*
X36155Y-13077D01*
X36155Y-12978D01*
X36155Y-12800D01*
X36117Y-12708D01*
X36097Y-12689D01*
X36117Y-12669D01*
X36155Y-12577D01*
X36155Y-12478D01*
X36155Y-12300D01*
X36117Y-12208D01*
X36073Y-12164D01*
X36073Y-11101D01*
X36073Y-11052D01*
X36073Y-10584D01*
X37446Y-10584D01*
G54D10*
G36*
X25048Y-17371D02*
X23868Y-17371D01*
X23868Y-16400D01*
X23898Y-16356D01*
X23898Y-16355D01*
X23899Y-16354D01*
X23910Y-16298D01*
X23922Y-16242D01*
X23928Y-15276D01*
X24059Y-15222D01*
X24178Y-15103D01*
X24243Y-14947D01*
X24243Y-14778D01*
X24179Y-14621D01*
X24174Y-14616D01*
X25048Y-14616D01*
X25048Y-17371D01*
X25048Y-17371D01*
G37*
G54D63*
X25048Y-17371D02*
X23868Y-17371D01*
X23868Y-16400D01*
X23898Y-16356D01*
X23898Y-16355D01*
X23899Y-16354D01*
X23910Y-16298D01*
X23922Y-16242D01*
X23928Y-15276D01*
X24059Y-15222D01*
X24178Y-15103D01*
X24243Y-14947D01*
X24243Y-14778D01*
X24179Y-14621D01*
X24174Y-14616D01*
X25048Y-14616D01*
X25048Y-17371D01*
G54D10*
G36*
X47074Y-19595D02*
X43672Y-19595D01*
X43672Y-18858D01*
X43672Y-18120D01*
X44342Y-18120D01*
X45130Y-17726D01*
X47074Y-17689D01*
X47074Y-19595D01*
X47074Y-19595D01*
G37*
G54D63*
X47074Y-19595D02*
X43672Y-19595D01*
X43672Y-18858D01*
X43672Y-18120D01*
X44342Y-18120D01*
X45130Y-17726D01*
X47074Y-17689D01*
X47074Y-19595D01*
G54D10*
G36*
X43335Y-19595D02*
X41165Y-19595D01*
X40286Y-18486D01*
X40286Y-16664D01*
X42194Y-16664D01*
X42194Y-17696D01*
X42536Y-18081D01*
X43335Y-18081D01*
X43335Y-19595D01*
X43335Y-19595D01*
G37*
G54D63*
X43335Y-19595D02*
X41165Y-19595D01*
X40286Y-18486D01*
X40286Y-16664D01*
X42194Y-16664D01*
X42194Y-17696D01*
X42536Y-18081D01*
X43335Y-18081D01*
X43335Y-19595D01*
G54D10*
G36*
X47074Y-17389D02*
X45640Y-17352D01*
X45640Y-15608D01*
X44656Y-14663D01*
X44656Y-13867D01*
X45748Y-13829D01*
X47074Y-13829D01*
X47074Y-17389D01*
X47074Y-17389D01*
G37*
G54D63*
X47074Y-17389D02*
X45640Y-17352D01*
X45640Y-15608D01*
X44656Y-14663D01*
X44656Y-13867D01*
X45748Y-13829D01*
X47074Y-13829D01*
X47074Y-17389D01*
M02*
