G04 (created by PCBNEW (2013-07-07 BZR 4022)-stable) date 1/10/2014 11:24:51 AM*
%MOIN*%
G04 Gerber Fmt 3.4, Leading zero omitted, Abs format*
%FSLAX34Y34*%
G01*
G70*
G90*
G04 APERTURE LIST*
%ADD10C,0.00590551*%
%ADD11C,0.0035*%
G04 APERTURE END LIST*
G54D10*
G54D11*
X39778Y-10194D02*
X39755Y-10217D01*
X39683Y-10241D01*
X39636Y-10241D01*
X39564Y-10217D01*
X39516Y-10170D01*
X39493Y-10122D01*
X39469Y-10027D01*
X39469Y-9956D01*
X39493Y-9860D01*
X39516Y-9813D01*
X39564Y-9765D01*
X39636Y-9741D01*
X39683Y-9741D01*
X39755Y-9765D01*
X39778Y-9789D01*
X40255Y-10241D02*
X39969Y-10241D01*
X40112Y-10241D02*
X40112Y-9741D01*
X40064Y-9813D01*
X40016Y-9860D01*
X39969Y-9884D01*
X40435Y-12578D02*
X40769Y-12578D01*
X40245Y-12697D02*
X40602Y-12816D01*
X40602Y-12507D01*
X40269Y-12364D02*
X40269Y-12030D01*
X40769Y-12245D01*
X40435Y-11626D02*
X40769Y-11626D01*
X40435Y-11840D02*
X40697Y-11840D01*
X40745Y-11816D01*
X40769Y-11768D01*
X40769Y-11697D01*
X40745Y-11649D01*
X40721Y-11626D01*
X40507Y-11221D02*
X40507Y-11387D01*
X40769Y-11387D02*
X40269Y-11387D01*
X40269Y-11149D01*
X40269Y-10340D02*
X40269Y-10578D01*
X40507Y-10602D01*
X40483Y-10578D01*
X40459Y-10530D01*
X40459Y-10411D01*
X40483Y-10364D01*
X40507Y-10340D01*
X40555Y-10316D01*
X40674Y-10316D01*
X40721Y-10340D01*
X40745Y-10364D01*
X40769Y-10411D01*
X40769Y-10530D01*
X40745Y-10578D01*
X40721Y-10602D01*
X40269Y-10007D02*
X40269Y-9959D01*
X40293Y-9911D01*
X40316Y-9887D01*
X40364Y-9864D01*
X40459Y-9840D01*
X40578Y-9840D01*
X40674Y-9864D01*
X40721Y-9887D01*
X40745Y-9911D01*
X40769Y-9959D01*
X40769Y-10007D01*
X40745Y-10054D01*
X40721Y-10078D01*
X40674Y-10102D01*
X40578Y-10126D01*
X40459Y-10126D01*
X40364Y-10102D01*
X40316Y-10078D01*
X40293Y-10054D01*
X40269Y-10007D01*
X40269Y-9697D02*
X40769Y-9530D01*
X40269Y-9364D01*
X10114Y-26867D02*
X10114Y-27224D01*
X10091Y-27296D01*
X10043Y-27343D01*
X9971Y-27367D01*
X9924Y-27367D01*
X10352Y-27367D02*
X10352Y-26867D01*
X10543Y-26867D01*
X10591Y-26891D01*
X10614Y-26915D01*
X10638Y-26962D01*
X10638Y-27034D01*
X10614Y-27082D01*
X10591Y-27105D01*
X10543Y-27129D01*
X10352Y-27129D01*
X11114Y-27367D02*
X10829Y-27367D01*
X10971Y-27367D02*
X10971Y-26867D01*
X10924Y-26939D01*
X10876Y-26986D01*
X10829Y-27010D01*
X10338Y-27481D02*
X10338Y-26981D01*
X10528Y-26981D01*
X10576Y-27005D01*
X10600Y-27029D01*
X10623Y-27077D01*
X10623Y-27148D01*
X10600Y-27196D01*
X10576Y-27220D01*
X10528Y-27243D01*
X10338Y-27243D01*
X10838Y-27481D02*
X10838Y-26981D01*
X11076Y-27481D02*
X11076Y-26981D01*
X11362Y-27481D01*
X11362Y-26981D01*
X11600Y-27481D02*
X11600Y-26981D01*
X11600Y-27220D02*
X11885Y-27220D01*
X11885Y-27481D02*
X11885Y-26981D01*
X12123Y-27481D02*
X12123Y-26981D01*
X12242Y-26981D01*
X12314Y-27005D01*
X12362Y-27053D01*
X12385Y-27100D01*
X12409Y-27196D01*
X12409Y-27267D01*
X12385Y-27362D01*
X12362Y-27410D01*
X12314Y-27458D01*
X12242Y-27481D01*
X12123Y-27481D01*
X12623Y-27291D02*
X13004Y-27291D01*
X13504Y-27481D02*
X13219Y-27481D01*
X13362Y-27481D02*
X13362Y-26981D01*
X13314Y-27053D01*
X13266Y-27100D01*
X13219Y-27124D01*
X13671Y-26981D02*
X14004Y-27481D01*
X14004Y-26981D02*
X13671Y-27481D01*
X14433Y-26981D02*
X14195Y-26981D01*
X14171Y-27220D01*
X14195Y-27196D01*
X14242Y-27172D01*
X14362Y-27172D01*
X14409Y-27196D01*
X14433Y-27220D01*
X14457Y-27267D01*
X14457Y-27386D01*
X14433Y-27434D01*
X14409Y-27458D01*
X14362Y-27481D01*
X14242Y-27481D01*
X14195Y-27458D01*
X14171Y-27434D01*
X22143Y-12030D02*
X22500Y-12030D01*
X22571Y-12054D01*
X22619Y-12102D01*
X22643Y-12173D01*
X22643Y-12221D01*
X22643Y-11792D02*
X22143Y-11792D01*
X22143Y-11602D01*
X22167Y-11554D01*
X22190Y-11530D01*
X22238Y-11507D01*
X22309Y-11507D01*
X22357Y-11530D01*
X22381Y-11554D01*
X22405Y-11602D01*
X22405Y-11792D01*
X22309Y-11078D02*
X22643Y-11078D01*
X22119Y-11197D02*
X22476Y-11316D01*
X22476Y-11007D01*
X18546Y-10316D02*
X18546Y-9816D01*
X18737Y-9816D01*
X18784Y-9840D01*
X18808Y-9864D01*
X18832Y-9911D01*
X18832Y-9983D01*
X18808Y-10030D01*
X18784Y-10054D01*
X18737Y-10078D01*
X18546Y-10078D01*
X19046Y-10316D02*
X19046Y-9816D01*
X19284Y-10316D02*
X19284Y-9816D01*
X19570Y-10316D01*
X19570Y-9816D01*
X19808Y-10316D02*
X19808Y-9816D01*
X19808Y-10054D02*
X20094Y-10054D01*
X20094Y-10316D02*
X20094Y-9816D01*
X20332Y-10316D02*
X20332Y-9816D01*
X20451Y-9816D01*
X20523Y-9840D01*
X20570Y-9887D01*
X20594Y-9935D01*
X20618Y-10030D01*
X20618Y-10102D01*
X20594Y-10197D01*
X20570Y-10245D01*
X20523Y-10292D01*
X20451Y-10316D01*
X20332Y-10316D01*
X20832Y-10126D02*
X21213Y-10126D01*
X21427Y-9864D02*
X21451Y-9840D01*
X21499Y-9816D01*
X21618Y-9816D01*
X21665Y-9840D01*
X21689Y-9864D01*
X21713Y-9911D01*
X21713Y-9959D01*
X21689Y-10030D01*
X21404Y-10316D01*
X21713Y-10316D01*
X21880Y-9816D02*
X22213Y-10316D01*
X22213Y-9816D02*
X21880Y-10316D01*
X22618Y-9816D02*
X22523Y-9816D01*
X22475Y-9840D01*
X22451Y-9864D01*
X22404Y-9935D01*
X22380Y-10030D01*
X22380Y-10221D01*
X22404Y-10268D01*
X22427Y-10292D01*
X22475Y-10316D01*
X22570Y-10316D01*
X22618Y-10292D01*
X22642Y-10268D01*
X22665Y-10221D01*
X22665Y-10102D01*
X22642Y-10054D01*
X22618Y-10030D01*
X22570Y-10007D01*
X22475Y-10007D01*
X22427Y-10030D01*
X22404Y-10054D01*
X22380Y-10102D01*
X44600Y-19804D02*
X44699Y-20099D01*
X44797Y-19804D01*
X44994Y-19945D02*
X45036Y-19959D01*
X45050Y-19973D01*
X45064Y-20001D01*
X45064Y-20043D01*
X45050Y-20071D01*
X45036Y-20085D01*
X45008Y-20099D01*
X44895Y-20099D01*
X44895Y-19804D01*
X44994Y-19804D01*
X45022Y-19818D01*
X45036Y-19832D01*
X45050Y-19860D01*
X45050Y-19888D01*
X45036Y-19917D01*
X45022Y-19931D01*
X44994Y-19945D01*
X44895Y-19945D01*
X45177Y-20015D02*
X45317Y-20015D01*
X45149Y-20099D02*
X45247Y-19804D01*
X45345Y-20099D01*
X45613Y-20071D02*
X45598Y-20085D01*
X45556Y-20099D01*
X45528Y-20099D01*
X45486Y-20085D01*
X45458Y-20057D01*
X45444Y-20029D01*
X45430Y-19973D01*
X45430Y-19931D01*
X45444Y-19874D01*
X45458Y-19846D01*
X45486Y-19818D01*
X45528Y-19804D01*
X45556Y-19804D01*
X45598Y-19818D01*
X45613Y-19832D01*
X45739Y-20099D02*
X45739Y-19804D01*
X45908Y-20099D02*
X45781Y-19931D01*
X45908Y-19804D02*
X45739Y-19973D01*
X46034Y-19804D02*
X46034Y-20043D01*
X46048Y-20071D01*
X46062Y-20085D01*
X46091Y-20099D01*
X46147Y-20099D01*
X46175Y-20085D01*
X46189Y-20071D01*
X46203Y-20043D01*
X46203Y-19804D01*
X46344Y-20099D02*
X46344Y-19804D01*
X46456Y-19804D01*
X46484Y-19818D01*
X46498Y-19832D01*
X46512Y-19860D01*
X46512Y-19902D01*
X46498Y-19931D01*
X46484Y-19945D01*
X46456Y-19959D01*
X46344Y-19959D01*
X46084Y-22807D02*
X45584Y-22807D01*
X45584Y-22616D01*
X45608Y-22569D01*
X45631Y-22545D01*
X45679Y-22521D01*
X45750Y-22521D01*
X45798Y-22545D01*
X45822Y-22569D01*
X45846Y-22616D01*
X45846Y-22807D01*
X46084Y-22307D02*
X45584Y-22307D01*
X46084Y-22069D02*
X45584Y-22069D01*
X46084Y-21783D01*
X45584Y-21783D01*
X46084Y-21545D02*
X45584Y-21545D01*
X45822Y-21545D02*
X45822Y-21259D01*
X46084Y-21259D02*
X45584Y-21259D01*
X46084Y-21021D02*
X45584Y-21021D01*
X45584Y-20902D01*
X45608Y-20831D01*
X45655Y-20783D01*
X45703Y-20759D01*
X45798Y-20736D01*
X45869Y-20736D01*
X45965Y-20759D01*
X46012Y-20783D01*
X46060Y-20831D01*
X46084Y-20902D01*
X46084Y-21021D01*
X45893Y-20521D02*
X45893Y-20140D01*
X46084Y-19640D02*
X46084Y-19926D01*
X46084Y-19783D02*
X45584Y-19783D01*
X45655Y-19831D01*
X45703Y-19878D01*
X45727Y-19926D01*
X45584Y-19474D02*
X46084Y-19140D01*
X45584Y-19140D02*
X46084Y-19474D01*
X45631Y-18974D02*
X45608Y-18950D01*
X45584Y-18902D01*
X45584Y-18783D01*
X45608Y-18736D01*
X45631Y-18712D01*
X45679Y-18688D01*
X45727Y-18688D01*
X45798Y-18712D01*
X46084Y-18997D01*
X46084Y-18688D01*
X42044Y-10160D02*
X42402Y-10160D01*
X42473Y-10184D01*
X42521Y-10232D01*
X42544Y-10303D01*
X42544Y-10351D01*
X42544Y-9922D02*
X42044Y-9922D01*
X42044Y-9732D01*
X42068Y-9684D01*
X42092Y-9660D01*
X42140Y-9636D01*
X42211Y-9636D01*
X42259Y-9660D01*
X42282Y-9684D01*
X42306Y-9732D01*
X42306Y-9922D01*
X42044Y-9208D02*
X42044Y-9303D01*
X42068Y-9351D01*
X42092Y-9375D01*
X42163Y-9422D01*
X42259Y-9446D01*
X42449Y-9446D01*
X42497Y-9422D01*
X42521Y-9398D01*
X42544Y-9351D01*
X42544Y-9255D01*
X42521Y-9208D01*
X42497Y-9184D01*
X42449Y-9160D01*
X42330Y-9160D01*
X42282Y-9184D01*
X42259Y-9208D01*
X42235Y-9255D01*
X42235Y-9351D01*
X42259Y-9398D01*
X42282Y-9422D01*
X42330Y-9446D01*
X42365Y-11751D02*
X42389Y-11680D01*
X42413Y-11656D01*
X42460Y-11632D01*
X42532Y-11632D01*
X42579Y-11656D01*
X42603Y-11680D01*
X42627Y-11728D01*
X42627Y-11918D01*
X42127Y-11918D01*
X42127Y-11751D01*
X42151Y-11704D01*
X42175Y-11680D01*
X42222Y-11656D01*
X42270Y-11656D01*
X42318Y-11680D01*
X42341Y-11704D01*
X42365Y-11751D01*
X42365Y-11918D01*
X42127Y-11466D02*
X42127Y-11132D01*
X42627Y-11466D01*
X42627Y-11132D01*
X42127Y-10990D02*
X42627Y-10871D01*
X42270Y-10775D01*
X42627Y-10680D01*
X42127Y-10561D01*
X42127Y-10275D02*
X42127Y-10228D01*
X42151Y-10180D01*
X42175Y-10156D01*
X42222Y-10132D01*
X42318Y-10109D01*
X42437Y-10109D01*
X42532Y-10132D01*
X42579Y-10156D01*
X42603Y-10180D01*
X42627Y-10228D01*
X42627Y-10275D01*
X42603Y-10323D01*
X42579Y-10347D01*
X42532Y-10371D01*
X42437Y-10394D01*
X42318Y-10394D01*
X42222Y-10371D01*
X42175Y-10347D01*
X42151Y-10323D01*
X42127Y-10275D01*
X42127Y-9680D02*
X42127Y-9775D01*
X42151Y-9823D01*
X42175Y-9847D01*
X42246Y-9894D01*
X42341Y-9918D01*
X42532Y-9918D01*
X42579Y-9894D01*
X42603Y-9871D01*
X42627Y-9823D01*
X42627Y-9728D01*
X42603Y-9680D01*
X42579Y-9656D01*
X42532Y-9632D01*
X42413Y-9632D01*
X42365Y-9656D01*
X42341Y-9680D01*
X42318Y-9728D01*
X42318Y-9823D01*
X42341Y-9871D01*
X42365Y-9894D01*
X42413Y-9918D01*
X42437Y-9418D02*
X42437Y-9037D01*
X42175Y-8823D02*
X42151Y-8799D01*
X42127Y-8751D01*
X42127Y-8632D01*
X42151Y-8585D01*
X42175Y-8561D01*
X42222Y-8537D01*
X42270Y-8537D01*
X42341Y-8561D01*
X42627Y-8847D01*
X42627Y-8537D01*
X42127Y-8109D02*
X42127Y-8204D01*
X42151Y-8251D01*
X42175Y-8275D01*
X42246Y-8323D01*
X42341Y-8347D01*
X42532Y-8347D01*
X42579Y-8323D01*
X42603Y-8299D01*
X42627Y-8251D01*
X42627Y-8156D01*
X42603Y-8109D01*
X42579Y-8085D01*
X42532Y-8061D01*
X42413Y-8061D01*
X42365Y-8085D01*
X42341Y-8109D01*
X42318Y-8156D01*
X42318Y-8251D01*
X42341Y-8299D01*
X42365Y-8323D01*
X42413Y-8347D01*
X42365Y-7680D02*
X42389Y-7609D01*
X42413Y-7585D01*
X42460Y-7561D01*
X42532Y-7561D01*
X42579Y-7585D01*
X42603Y-7609D01*
X42627Y-7656D01*
X42627Y-7847D01*
X42127Y-7847D01*
X42127Y-7680D01*
X42151Y-7632D01*
X42175Y-7609D01*
X42222Y-7585D01*
X42270Y-7585D01*
X42318Y-7609D01*
X42341Y-7632D01*
X42365Y-7680D01*
X42365Y-7847D01*
X23309Y-17600D02*
X23213Y-17600D01*
X23166Y-17623D01*
X23142Y-17647D01*
X23094Y-17719D01*
X23070Y-17814D01*
X23070Y-18004D01*
X23094Y-18052D01*
X23118Y-18076D01*
X23166Y-18100D01*
X23261Y-18100D01*
X23309Y-18076D01*
X23332Y-18052D01*
X23356Y-18004D01*
X23356Y-17885D01*
X23332Y-17838D01*
X23309Y-17814D01*
X23261Y-17790D01*
X23166Y-17790D01*
X23118Y-17814D01*
X23094Y-17838D01*
X23070Y-17885D01*
X23570Y-18052D02*
X23594Y-18076D01*
X23570Y-18100D01*
X23547Y-18076D01*
X23570Y-18052D01*
X23570Y-18100D01*
X23761Y-17600D02*
X24070Y-17600D01*
X23904Y-17790D01*
X23975Y-17790D01*
X24023Y-17814D01*
X24047Y-17838D01*
X24070Y-17885D01*
X24070Y-18004D01*
X24047Y-18052D01*
X24023Y-18076D01*
X23975Y-18100D01*
X23832Y-18100D01*
X23785Y-18076D01*
X23761Y-18052D01*
X24285Y-18100D02*
X24285Y-17600D01*
X24475Y-17600D01*
X24523Y-17623D01*
X24547Y-17647D01*
X24570Y-17695D01*
X24570Y-17766D01*
X24547Y-17814D01*
X24523Y-17838D01*
X24475Y-17861D01*
X24285Y-17861D01*
X24737Y-17600D02*
X25070Y-18100D01*
X25070Y-17600D02*
X24737Y-18100D01*
X25475Y-17600D02*
X25380Y-17600D01*
X25332Y-17623D01*
X25309Y-17647D01*
X25261Y-17719D01*
X25237Y-17814D01*
X25237Y-18004D01*
X25261Y-18052D01*
X25285Y-18076D01*
X25332Y-18100D01*
X25428Y-18100D01*
X25475Y-18076D01*
X25499Y-18052D01*
X25523Y-18004D01*
X25523Y-17885D01*
X25499Y-17838D01*
X25475Y-17814D01*
X25428Y-17790D01*
X25332Y-17790D01*
X25285Y-17814D01*
X25261Y-17838D01*
X25237Y-17885D01*
X25809Y-17814D02*
X25761Y-17790D01*
X25737Y-17766D01*
X25713Y-17719D01*
X25713Y-17695D01*
X25737Y-17647D01*
X25761Y-17623D01*
X25809Y-17600D01*
X25904Y-17600D01*
X25951Y-17623D01*
X25975Y-17647D01*
X25999Y-17695D01*
X25999Y-17719D01*
X25975Y-17766D01*
X25951Y-17790D01*
X25904Y-17814D01*
X25809Y-17814D01*
X25761Y-17838D01*
X25737Y-17861D01*
X25713Y-17909D01*
X25713Y-18004D01*
X25737Y-18052D01*
X25761Y-18076D01*
X25809Y-18100D01*
X25904Y-18100D01*
X25951Y-18076D01*
X25975Y-18052D01*
X25999Y-18004D01*
X25999Y-17909D01*
X25975Y-17861D01*
X25951Y-17838D01*
X25904Y-17814D01*
X26309Y-17600D02*
X26356Y-17600D01*
X26404Y-17623D01*
X26428Y-17647D01*
X26451Y-17695D01*
X26475Y-17790D01*
X26475Y-17909D01*
X26451Y-18004D01*
X26428Y-18052D01*
X26404Y-18076D01*
X26356Y-18100D01*
X26309Y-18100D01*
X26261Y-18076D01*
X26237Y-18052D01*
X26213Y-18004D01*
X26190Y-17909D01*
X26190Y-17790D01*
X26213Y-17695D01*
X26237Y-17647D01*
X26261Y-17623D01*
X26309Y-17600D01*
X26690Y-18100D02*
X26690Y-17600D01*
X26856Y-17957D01*
X27023Y-17600D01*
X27023Y-18100D01*
X27261Y-17838D02*
X27428Y-17838D01*
X27499Y-18100D02*
X27261Y-18100D01*
X27261Y-17600D01*
X27499Y-17600D01*
X27880Y-17838D02*
X27713Y-17838D01*
X27713Y-18100D02*
X27713Y-17600D01*
X27951Y-17600D01*
X28428Y-18052D02*
X28404Y-18076D01*
X28332Y-18100D01*
X28285Y-18100D01*
X28213Y-18076D01*
X28166Y-18028D01*
X28142Y-17980D01*
X28118Y-17885D01*
X28118Y-17814D01*
X28142Y-17719D01*
X28166Y-17671D01*
X28213Y-17623D01*
X28285Y-17600D01*
X28332Y-17600D01*
X28404Y-17623D01*
X28428Y-17647D01*
X28856Y-17600D02*
X28761Y-17600D01*
X28713Y-17623D01*
X28690Y-17647D01*
X28642Y-17719D01*
X28618Y-17814D01*
X28618Y-18004D01*
X28642Y-18052D01*
X28666Y-18076D01*
X28713Y-18100D01*
X28809Y-18100D01*
X28856Y-18076D01*
X28880Y-18052D01*
X28904Y-18004D01*
X28904Y-17885D01*
X28880Y-17838D01*
X28856Y-17814D01*
X28809Y-17790D01*
X28713Y-17790D01*
X28666Y-17814D01*
X28642Y-17838D01*
X28618Y-17885D01*
X29118Y-18052D02*
X29142Y-18076D01*
X29118Y-18100D01*
X29094Y-18076D01*
X29118Y-18052D01*
X29118Y-18100D01*
X29309Y-17600D02*
X29618Y-17600D01*
X29451Y-17790D01*
X29523Y-17790D01*
X29570Y-17814D01*
X29594Y-17838D01*
X29618Y-17885D01*
X29618Y-18004D01*
X29594Y-18052D01*
X29570Y-18076D01*
X29523Y-18100D01*
X29380Y-18100D01*
X29332Y-18076D01*
X29309Y-18052D01*
X29785Y-17600D02*
X30118Y-18100D01*
X30118Y-17600D02*
X29785Y-18100D01*
X30570Y-18100D02*
X30285Y-18100D01*
X30428Y-18100D02*
X30428Y-17600D01*
X30380Y-17671D01*
X30332Y-17719D01*
X30285Y-17742D01*
X31047Y-18100D02*
X30761Y-18100D01*
X30904Y-18100D02*
X30904Y-17600D01*
X30856Y-17671D01*
X30809Y-17719D01*
X30761Y-17742D01*
X26474Y-19600D02*
X26379Y-19600D01*
X26331Y-19623D01*
X26307Y-19647D01*
X26260Y-19719D01*
X26236Y-19814D01*
X26236Y-20004D01*
X26260Y-20052D01*
X26283Y-20076D01*
X26331Y-20100D01*
X26426Y-20100D01*
X26474Y-20076D01*
X26498Y-20052D01*
X26522Y-20004D01*
X26522Y-19885D01*
X26498Y-19838D01*
X26474Y-19814D01*
X26426Y-19790D01*
X26331Y-19790D01*
X26283Y-19814D01*
X26260Y-19838D01*
X26236Y-19885D01*
X26736Y-20052D02*
X26760Y-20076D01*
X26736Y-20100D01*
X26712Y-20076D01*
X26736Y-20052D01*
X26736Y-20100D01*
X26926Y-19600D02*
X27236Y-19600D01*
X27069Y-19790D01*
X27141Y-19790D01*
X27188Y-19814D01*
X27212Y-19838D01*
X27236Y-19885D01*
X27236Y-20004D01*
X27212Y-20052D01*
X27188Y-20076D01*
X27141Y-20100D01*
X26998Y-20100D01*
X26950Y-20076D01*
X26926Y-20052D01*
X27450Y-20100D02*
X27450Y-19600D01*
X27641Y-19600D01*
X27688Y-19623D01*
X27712Y-19647D01*
X27736Y-19695D01*
X27736Y-19766D01*
X27712Y-19814D01*
X27688Y-19838D01*
X27641Y-19861D01*
X27450Y-19861D01*
X27902Y-19600D02*
X28236Y-20100D01*
X28236Y-19600D02*
X27902Y-20100D01*
X28641Y-19600D02*
X28545Y-19600D01*
X28498Y-19623D01*
X28474Y-19647D01*
X28426Y-19719D01*
X28402Y-19814D01*
X28402Y-20004D01*
X28426Y-20052D01*
X28450Y-20076D01*
X28498Y-20100D01*
X28593Y-20100D01*
X28641Y-20076D01*
X28664Y-20052D01*
X28688Y-20004D01*
X28688Y-19885D01*
X28664Y-19838D01*
X28641Y-19814D01*
X28593Y-19790D01*
X28498Y-19790D01*
X28450Y-19814D01*
X28426Y-19838D01*
X28402Y-19885D01*
X28974Y-19814D02*
X28926Y-19790D01*
X28902Y-19766D01*
X28879Y-19719D01*
X28879Y-19695D01*
X28902Y-19647D01*
X28926Y-19623D01*
X28974Y-19600D01*
X29069Y-19600D01*
X29117Y-19623D01*
X29141Y-19647D01*
X29164Y-19695D01*
X29164Y-19719D01*
X29141Y-19766D01*
X29117Y-19790D01*
X29069Y-19814D01*
X28974Y-19814D01*
X28926Y-19838D01*
X28902Y-19861D01*
X28879Y-19909D01*
X28879Y-20004D01*
X28902Y-20052D01*
X28926Y-20076D01*
X28974Y-20100D01*
X29069Y-20100D01*
X29117Y-20076D01*
X29141Y-20052D01*
X29164Y-20004D01*
X29164Y-19909D01*
X29141Y-19861D01*
X29117Y-19838D01*
X29069Y-19814D01*
X29474Y-19600D02*
X29522Y-19600D01*
X29569Y-19623D01*
X29593Y-19647D01*
X29617Y-19695D01*
X29641Y-19790D01*
X29641Y-19909D01*
X29617Y-20004D01*
X29593Y-20052D01*
X29569Y-20076D01*
X29522Y-20100D01*
X29474Y-20100D01*
X29426Y-20076D01*
X29402Y-20052D01*
X29379Y-20004D01*
X29355Y-19909D01*
X29355Y-19790D01*
X29379Y-19695D01*
X29402Y-19647D01*
X29426Y-19623D01*
X29474Y-19600D01*
X29855Y-20100D02*
X29855Y-19600D01*
X30022Y-19957D01*
X30188Y-19600D01*
X30188Y-20100D01*
X30426Y-19838D02*
X30593Y-19838D01*
X30664Y-20100D02*
X30426Y-20100D01*
X30426Y-19600D01*
X30664Y-19600D01*
X31045Y-19838D02*
X30879Y-19838D01*
X30879Y-20100D02*
X30879Y-19600D01*
X31117Y-19600D01*
X31593Y-20052D02*
X31569Y-20076D01*
X31498Y-20100D01*
X31450Y-20100D01*
X31379Y-20076D01*
X31331Y-20028D01*
X31307Y-19980D01*
X31283Y-19885D01*
X31283Y-19814D01*
X31307Y-19719D01*
X31331Y-19671D01*
X31379Y-19623D01*
X31450Y-19600D01*
X31498Y-19600D01*
X31569Y-19623D01*
X31593Y-19647D01*
X32022Y-19600D02*
X31926Y-19600D01*
X31879Y-19623D01*
X31855Y-19647D01*
X31807Y-19719D01*
X31783Y-19814D01*
X31783Y-20004D01*
X31807Y-20052D01*
X31831Y-20076D01*
X31879Y-20100D01*
X31974Y-20100D01*
X32022Y-20076D01*
X32045Y-20052D01*
X32069Y-20004D01*
X32069Y-19885D01*
X32045Y-19838D01*
X32022Y-19814D01*
X31974Y-19790D01*
X31879Y-19790D01*
X31831Y-19814D01*
X31807Y-19838D01*
X31783Y-19885D01*
X32283Y-20052D02*
X32307Y-20076D01*
X32283Y-20100D01*
X32260Y-20076D01*
X32283Y-20052D01*
X32283Y-20100D01*
X32474Y-19600D02*
X32783Y-19600D01*
X32617Y-19790D01*
X32688Y-19790D01*
X32736Y-19814D01*
X32760Y-19838D01*
X32783Y-19885D01*
X32783Y-20004D01*
X32760Y-20052D01*
X32736Y-20076D01*
X32688Y-20100D01*
X32545Y-20100D01*
X32498Y-20076D01*
X32474Y-20052D01*
X32950Y-19600D02*
X33283Y-20100D01*
X33283Y-19600D02*
X32950Y-20100D01*
X33736Y-20100D02*
X33450Y-20100D01*
X33593Y-20100D02*
X33593Y-19600D01*
X33545Y-19671D01*
X33498Y-19719D01*
X33450Y-19742D01*
X34212Y-20100D02*
X33926Y-20100D01*
X34069Y-20100D02*
X34069Y-19600D01*
X34022Y-19671D01*
X33974Y-19719D01*
X33926Y-19742D01*
X8568Y-21992D02*
X8330Y-22158D01*
X8568Y-22277D02*
X8068Y-22277D01*
X8068Y-22087D01*
X8092Y-22039D01*
X8116Y-22016D01*
X8163Y-21992D01*
X8235Y-21992D01*
X8282Y-22016D01*
X8306Y-22039D01*
X8330Y-22087D01*
X8330Y-22277D01*
X8306Y-21611D02*
X8306Y-21777D01*
X8568Y-21777D02*
X8068Y-21777D01*
X8068Y-21539D01*
X8568Y-20682D02*
X8330Y-20849D01*
X8568Y-20968D02*
X8068Y-20968D01*
X8068Y-20777D01*
X8092Y-20730D01*
X8116Y-20706D01*
X8163Y-20682D01*
X8235Y-20682D01*
X8282Y-20706D01*
X8306Y-20730D01*
X8330Y-20777D01*
X8330Y-20968D01*
X8306Y-20468D02*
X8306Y-20301D01*
X8568Y-20230D02*
X8568Y-20468D01*
X8068Y-20468D01*
X8068Y-20230D01*
X8520Y-19730D02*
X8544Y-19754D01*
X8568Y-19825D01*
X8568Y-19873D01*
X8544Y-19944D01*
X8497Y-19992D01*
X8449Y-20016D01*
X8354Y-20039D01*
X8282Y-20039D01*
X8187Y-20016D01*
X8139Y-19992D01*
X8092Y-19944D01*
X8068Y-19873D01*
X8068Y-19825D01*
X8092Y-19754D01*
X8116Y-19730D01*
X8306Y-19516D02*
X8306Y-19349D01*
X8568Y-19277D02*
X8568Y-19516D01*
X8068Y-19516D01*
X8068Y-19277D01*
X8568Y-19063D02*
X8068Y-19063D01*
X8068Y-18896D02*
X8568Y-18730D01*
X8068Y-18563D01*
X8306Y-18396D02*
X8306Y-18230D01*
X8568Y-18158D02*
X8568Y-18396D01*
X8068Y-18396D01*
X8068Y-18158D01*
X8568Y-17658D02*
X8330Y-17825D01*
X8568Y-17944D02*
X8068Y-17944D01*
X8068Y-17754D01*
X8092Y-17706D01*
X8116Y-17682D01*
X8163Y-17658D01*
X8235Y-17658D01*
X8282Y-17682D01*
X8306Y-17706D01*
X8330Y-17754D01*
X8330Y-17944D01*
X10651Y-24683D02*
X10151Y-24683D01*
X10151Y-24492D01*
X10175Y-24445D01*
X10198Y-24421D01*
X10246Y-24397D01*
X10317Y-24397D01*
X10365Y-24421D01*
X10389Y-24445D01*
X10413Y-24492D01*
X10413Y-24683D01*
X10651Y-24183D02*
X10151Y-24183D01*
X10651Y-23945D02*
X10151Y-23945D01*
X10651Y-23659D01*
X10151Y-23659D01*
X10651Y-23421D02*
X10151Y-23421D01*
X10389Y-23421D02*
X10389Y-23135D01*
X10651Y-23135D02*
X10151Y-23135D01*
X10651Y-22897D02*
X10151Y-22897D01*
X10151Y-22778D01*
X10175Y-22707D01*
X10222Y-22659D01*
X10270Y-22635D01*
X10365Y-22611D01*
X10436Y-22611D01*
X10532Y-22635D01*
X10579Y-22659D01*
X10627Y-22707D01*
X10651Y-22778D01*
X10651Y-22897D01*
X10460Y-22397D02*
X10460Y-22016D01*
X10651Y-21516D02*
X10651Y-21802D01*
X10651Y-21659D02*
X10151Y-21659D01*
X10222Y-21707D01*
X10270Y-21754D01*
X10294Y-21802D01*
X10151Y-21350D02*
X10651Y-21016D01*
X10151Y-21016D02*
X10651Y-21350D01*
X10651Y-20564D02*
X10651Y-20850D01*
X10651Y-20707D02*
X10151Y-20707D01*
X10222Y-20754D01*
X10270Y-20802D01*
X10294Y-20850D01*
X10151Y-20254D02*
X10151Y-20207D01*
X10175Y-20159D01*
X10198Y-20135D01*
X10246Y-20111D01*
X10341Y-20088D01*
X10460Y-20088D01*
X10555Y-20111D01*
X10603Y-20135D01*
X10627Y-20159D01*
X10651Y-20207D01*
X10651Y-20254D01*
X10627Y-20302D01*
X10603Y-20326D01*
X10555Y-20350D01*
X10460Y-20373D01*
X10341Y-20373D01*
X10246Y-20350D01*
X10198Y-20326D01*
X10175Y-20302D01*
X10151Y-20254D01*
X10489Y-22279D02*
X10629Y-22279D01*
X10461Y-22363D02*
X10559Y-22068D01*
X10658Y-22363D01*
X10756Y-22363D02*
X10756Y-22068D01*
X10925Y-22363D01*
X10925Y-22068D01*
X11023Y-22068D02*
X11192Y-22068D01*
X11107Y-22363D02*
X11107Y-22068D01*
X11255Y-22516D02*
X11493Y-22516D01*
X11207Y-22659D02*
X11374Y-22159D01*
X11541Y-22659D01*
X11707Y-22659D02*
X11707Y-22159D01*
X11993Y-22659D01*
X11993Y-22159D01*
X12160Y-22159D02*
X12445Y-22159D01*
X12302Y-22659D02*
X12302Y-22159D01*
X12717Y-20549D02*
X12717Y-20690D01*
X12422Y-20690D01*
X12563Y-20451D02*
X12563Y-20352D01*
X12717Y-20310D02*
X12717Y-20451D01*
X12422Y-20451D01*
X12422Y-20310D01*
X12633Y-20198D02*
X12633Y-20057D01*
X12717Y-20226D02*
X12422Y-20127D01*
X12717Y-20029D01*
X12717Y-19762D02*
X12577Y-19860D01*
X12717Y-19931D02*
X12422Y-19931D01*
X12422Y-19818D01*
X12436Y-19790D01*
X12450Y-19776D01*
X12478Y-19762D01*
X12521Y-19762D01*
X12549Y-19776D01*
X12563Y-19790D01*
X12577Y-19818D01*
X12577Y-19931D01*
X12717Y-19635D02*
X12422Y-19635D01*
X12717Y-19467D01*
X12422Y-19467D01*
X8771Y-19281D02*
X8771Y-18781D01*
X8961Y-18781D01*
X9009Y-18804D01*
X9033Y-18828D01*
X9056Y-18876D01*
X9056Y-18947D01*
X9033Y-18995D01*
X9009Y-19019D01*
X8961Y-19043D01*
X8771Y-19043D01*
X9271Y-19281D02*
X9271Y-18781D01*
X9509Y-19281D02*
X9509Y-18781D01*
X9795Y-19281D01*
X9795Y-18781D01*
X10033Y-19281D02*
X10033Y-18781D01*
X10033Y-19019D02*
X10318Y-19019D01*
X10318Y-19281D02*
X10318Y-18781D01*
X10556Y-19281D02*
X10556Y-18781D01*
X10676Y-18781D01*
X10747Y-18804D01*
X10795Y-18852D01*
X10818Y-18900D01*
X10842Y-18995D01*
X10842Y-19066D01*
X10818Y-19162D01*
X10795Y-19209D01*
X10747Y-19257D01*
X10676Y-19281D01*
X10556Y-19281D01*
X11056Y-19090D02*
X11437Y-19090D01*
X11937Y-19281D02*
X11652Y-19281D01*
X11795Y-19281D02*
X11795Y-18781D01*
X11747Y-18852D01*
X11699Y-18900D01*
X11652Y-18923D01*
X12104Y-18781D02*
X12437Y-19281D01*
X12437Y-18781D02*
X12104Y-19281D01*
X12604Y-18828D02*
X12628Y-18804D01*
X12676Y-18781D01*
X12795Y-18781D01*
X12842Y-18804D01*
X12866Y-18828D01*
X12890Y-18876D01*
X12890Y-18923D01*
X12866Y-18995D01*
X12580Y-19281D01*
X12890Y-19281D01*
X9669Y-12696D02*
X9669Y-13100D01*
X9692Y-13148D01*
X9716Y-13172D01*
X9764Y-13196D01*
X9859Y-13196D01*
X9907Y-13172D01*
X9930Y-13148D01*
X9954Y-13100D01*
X9954Y-12696D01*
X10145Y-12696D02*
X10454Y-12696D01*
X10288Y-12886D01*
X10359Y-12886D01*
X10407Y-12910D01*
X10430Y-12934D01*
X10454Y-12981D01*
X10454Y-13100D01*
X10430Y-13148D01*
X10407Y-13172D01*
X10359Y-13196D01*
X10216Y-13196D01*
X10169Y-13172D01*
X10145Y-13148D01*
X6978Y-11278D02*
X7050Y-11302D01*
X7169Y-11302D01*
X7216Y-11278D01*
X7240Y-11254D01*
X7264Y-11207D01*
X7264Y-11159D01*
X7240Y-11111D01*
X7216Y-11088D01*
X7169Y-11064D01*
X7073Y-11040D01*
X7026Y-11016D01*
X7002Y-10992D01*
X6978Y-10945D01*
X6978Y-10897D01*
X7002Y-10850D01*
X7026Y-10826D01*
X7073Y-10802D01*
X7192Y-10802D01*
X7264Y-10826D01*
X7478Y-11302D02*
X7478Y-10802D01*
X7764Y-11302D01*
X7764Y-10802D01*
X8216Y-10802D02*
X8121Y-10802D01*
X8073Y-10826D01*
X8050Y-10850D01*
X8002Y-10921D01*
X7978Y-11016D01*
X7978Y-11207D01*
X8002Y-11254D01*
X8026Y-11278D01*
X8073Y-11302D01*
X8169Y-11302D01*
X8216Y-11278D01*
X8240Y-11254D01*
X8264Y-11207D01*
X8264Y-11088D01*
X8240Y-11040D01*
X8216Y-11016D01*
X8169Y-10992D01*
X8073Y-10992D01*
X8026Y-11016D01*
X8002Y-11040D01*
X7978Y-11088D01*
X8716Y-10802D02*
X8478Y-10802D01*
X8454Y-11040D01*
X8478Y-11016D01*
X8526Y-10992D01*
X8645Y-10992D01*
X8692Y-11016D01*
X8716Y-11040D01*
X8740Y-11088D01*
X8740Y-11207D01*
X8716Y-11254D01*
X8692Y-11278D01*
X8645Y-11302D01*
X8526Y-11302D01*
X8478Y-11278D01*
X8454Y-11254D01*
X8954Y-11302D02*
X8954Y-10802D01*
X8954Y-11040D02*
X9240Y-11040D01*
X9240Y-11302D02*
X9240Y-10802D01*
X9407Y-10802D02*
X9573Y-11302D01*
X9740Y-10802D01*
X9907Y-11302D02*
X9907Y-10802D01*
X10026Y-10802D01*
X10097Y-10826D01*
X10145Y-10873D01*
X10169Y-10921D01*
X10192Y-11016D01*
X10192Y-11088D01*
X10169Y-11183D01*
X10145Y-11230D01*
X10097Y-11278D01*
X10026Y-11302D01*
X9907Y-11302D01*
X10383Y-10850D02*
X10407Y-10826D01*
X10454Y-10802D01*
X10573Y-10802D01*
X10621Y-10826D01*
X10645Y-10850D01*
X10669Y-10897D01*
X10669Y-10945D01*
X10645Y-11016D01*
X10359Y-11302D01*
X10669Y-11302D01*
X10835Y-10802D02*
X11145Y-10802D01*
X10978Y-10992D01*
X11050Y-10992D01*
X11097Y-11016D01*
X11121Y-11040D01*
X11145Y-11088D01*
X11145Y-11207D01*
X11121Y-11254D01*
X11097Y-11278D01*
X11050Y-11302D01*
X10907Y-11302D01*
X10859Y-11278D01*
X10835Y-11254D01*
X11335Y-10850D02*
X11359Y-10826D01*
X11407Y-10802D01*
X11526Y-10802D01*
X11573Y-10826D01*
X11597Y-10850D01*
X11621Y-10897D01*
X11621Y-10945D01*
X11597Y-11016D01*
X11311Y-11302D01*
X11621Y-11302D01*
X17335Y-17025D02*
X17335Y-17429D01*
X17359Y-17477D01*
X17383Y-17501D01*
X17430Y-17525D01*
X17526Y-17525D01*
X17573Y-17501D01*
X17597Y-17477D01*
X17621Y-17429D01*
X17621Y-17025D01*
X18073Y-17191D02*
X18073Y-17525D01*
X17954Y-17001D02*
X17835Y-17358D01*
X18145Y-17358D01*
X14599Y-21634D02*
X14599Y-21134D01*
X14718Y-21134D01*
X14789Y-21158D01*
X14837Y-21205D01*
X14861Y-21253D01*
X14884Y-21348D01*
X14884Y-21420D01*
X14861Y-21515D01*
X14837Y-21563D01*
X14789Y-21610D01*
X14718Y-21634D01*
X14599Y-21634D01*
X15075Y-21610D02*
X15146Y-21634D01*
X15265Y-21634D01*
X15313Y-21610D01*
X15337Y-21586D01*
X15361Y-21539D01*
X15361Y-21491D01*
X15337Y-21443D01*
X15313Y-21420D01*
X15265Y-21396D01*
X15170Y-21372D01*
X15122Y-21348D01*
X15099Y-21324D01*
X15075Y-21277D01*
X15075Y-21229D01*
X15099Y-21182D01*
X15122Y-21158D01*
X15170Y-21134D01*
X15289Y-21134D01*
X15361Y-21158D01*
X15575Y-21634D02*
X15575Y-21134D01*
X15765Y-21134D01*
X15813Y-21158D01*
X15837Y-21182D01*
X15861Y-21229D01*
X15861Y-21301D01*
X15837Y-21348D01*
X15813Y-21372D01*
X15765Y-21396D01*
X15575Y-21396D01*
X16075Y-21634D02*
X16075Y-21134D01*
X16599Y-21586D02*
X16575Y-21610D01*
X16503Y-21634D01*
X16456Y-21634D01*
X16384Y-21610D01*
X16337Y-21563D01*
X16313Y-21515D01*
X16289Y-21420D01*
X16289Y-21348D01*
X16313Y-21253D01*
X16337Y-21205D01*
X16384Y-21158D01*
X16456Y-21134D01*
X16503Y-21134D01*
X16575Y-21158D01*
X16599Y-21182D01*
X16765Y-21134D02*
X17075Y-21134D01*
X16908Y-21324D01*
X16980Y-21324D01*
X17027Y-21348D01*
X17051Y-21372D01*
X17075Y-21420D01*
X17075Y-21539D01*
X17051Y-21586D01*
X17027Y-21610D01*
X16980Y-21634D01*
X16837Y-21634D01*
X16789Y-21610D01*
X16765Y-21586D01*
X17242Y-21134D02*
X17551Y-21134D01*
X17384Y-21324D01*
X17456Y-21324D01*
X17503Y-21348D01*
X17527Y-21372D01*
X17551Y-21420D01*
X17551Y-21539D01*
X17527Y-21586D01*
X17503Y-21610D01*
X17456Y-21634D01*
X17313Y-21634D01*
X17265Y-21610D01*
X17242Y-21586D01*
X17765Y-21372D02*
X17932Y-21372D01*
X18003Y-21634D02*
X17765Y-21634D01*
X17765Y-21134D01*
X18003Y-21134D01*
X18480Y-21634D02*
X18194Y-21634D01*
X18337Y-21634D02*
X18337Y-21134D01*
X18289Y-21205D01*
X18242Y-21253D01*
X18194Y-21277D01*
X18670Y-21182D02*
X18694Y-21158D01*
X18742Y-21134D01*
X18861Y-21134D01*
X18908Y-21158D01*
X18932Y-21182D01*
X18956Y-21229D01*
X18956Y-21277D01*
X18932Y-21348D01*
X18646Y-21634D01*
X18956Y-21634D01*
X19242Y-21348D02*
X19194Y-21324D01*
X19170Y-21301D01*
X19146Y-21253D01*
X19146Y-21229D01*
X19170Y-21182D01*
X19194Y-21158D01*
X19242Y-21134D01*
X19337Y-21134D01*
X19384Y-21158D01*
X19408Y-21182D01*
X19432Y-21229D01*
X19432Y-21253D01*
X19408Y-21301D01*
X19384Y-21324D01*
X19337Y-21348D01*
X19242Y-21348D01*
X19194Y-21372D01*
X19170Y-21396D01*
X19146Y-21443D01*
X19146Y-21539D01*
X19170Y-21586D01*
X19194Y-21610D01*
X19242Y-21634D01*
X19337Y-21634D01*
X19384Y-21610D01*
X19408Y-21586D01*
X19432Y-21539D01*
X19432Y-21443D01*
X19408Y-21396D01*
X19384Y-21372D01*
X19337Y-21348D01*
X19646Y-21634D02*
X19646Y-21134D01*
X19813Y-21491D01*
X19980Y-21134D01*
X19980Y-21634D01*
X20503Y-21586D02*
X20480Y-21610D01*
X20408Y-21634D01*
X20361Y-21634D01*
X20289Y-21610D01*
X20242Y-21563D01*
X20218Y-21515D01*
X20194Y-21420D01*
X20194Y-21348D01*
X20218Y-21253D01*
X20242Y-21205D01*
X20289Y-21158D01*
X20361Y-21134D01*
X20408Y-21134D01*
X20480Y-21158D01*
X20503Y-21182D01*
X20956Y-21134D02*
X20718Y-21134D01*
X20694Y-21372D01*
X20718Y-21348D01*
X20765Y-21324D01*
X20884Y-21324D01*
X20932Y-21348D01*
X20956Y-21372D01*
X20980Y-21420D01*
X20980Y-21539D01*
X20956Y-21586D01*
X20932Y-21610D01*
X20884Y-21634D01*
X20765Y-21634D01*
X20718Y-21610D01*
X20694Y-21586D01*
X21289Y-21134D02*
X21337Y-21134D01*
X21384Y-21158D01*
X21408Y-21182D01*
X21432Y-21229D01*
X21456Y-21324D01*
X21456Y-21443D01*
X21432Y-21539D01*
X21408Y-21586D01*
X21384Y-21610D01*
X21337Y-21634D01*
X21289Y-21634D01*
X21242Y-21610D01*
X21218Y-21586D01*
X21194Y-21539D01*
X21170Y-21443D01*
X21170Y-21324D01*
X21194Y-21229D01*
X21218Y-21182D01*
X21242Y-21158D01*
X21289Y-21134D01*
X21884Y-21134D02*
X21789Y-21134D01*
X21742Y-21158D01*
X21718Y-21182D01*
X21670Y-21253D01*
X21646Y-21348D01*
X21646Y-21539D01*
X21670Y-21586D01*
X21694Y-21610D01*
X21742Y-21634D01*
X21837Y-21634D01*
X21884Y-21610D01*
X21908Y-21586D01*
X21932Y-21539D01*
X21932Y-21420D01*
X21908Y-21372D01*
X21884Y-21348D01*
X21837Y-21324D01*
X21742Y-21324D01*
X21694Y-21348D01*
X21670Y-21372D01*
X21646Y-21420D01*
X45560Y-15098D02*
X45060Y-15098D01*
X45060Y-14908D01*
X45084Y-14860D01*
X45108Y-14836D01*
X45155Y-14813D01*
X45227Y-14813D01*
X45274Y-14836D01*
X45298Y-14860D01*
X45322Y-14908D01*
X45322Y-15098D01*
X45560Y-14598D02*
X45060Y-14598D01*
X45560Y-14360D02*
X45060Y-14360D01*
X45560Y-14074D01*
X45060Y-14074D01*
X45560Y-13836D02*
X45060Y-13836D01*
X45298Y-13836D02*
X45298Y-13551D01*
X45560Y-13551D02*
X45060Y-13551D01*
X45560Y-13313D02*
X45060Y-13313D01*
X45060Y-13194D01*
X45084Y-13122D01*
X45132Y-13074D01*
X45179Y-13051D01*
X45274Y-13027D01*
X45346Y-13027D01*
X45441Y-13051D01*
X45489Y-13074D01*
X45536Y-13122D01*
X45560Y-13194D01*
X45560Y-13313D01*
X45370Y-12813D02*
X45370Y-12432D01*
X45560Y-11932D02*
X45560Y-12217D01*
X45560Y-12074D02*
X45060Y-12074D01*
X45132Y-12122D01*
X45179Y-12170D01*
X45203Y-12217D01*
X45060Y-11765D02*
X45560Y-11432D01*
X45060Y-11432D02*
X45560Y-11765D01*
X45274Y-11170D02*
X45251Y-11217D01*
X45227Y-11241D01*
X45179Y-11265D01*
X45155Y-11265D01*
X45108Y-11241D01*
X45084Y-11217D01*
X45060Y-11170D01*
X45060Y-11074D01*
X45084Y-11027D01*
X45108Y-11003D01*
X45155Y-10979D01*
X45179Y-10979D01*
X45227Y-11003D01*
X45251Y-11027D01*
X45274Y-11074D01*
X45274Y-11170D01*
X45298Y-11217D01*
X45322Y-11241D01*
X45370Y-11265D01*
X45465Y-11265D01*
X45513Y-11241D01*
X45536Y-11217D01*
X45560Y-11170D01*
X45560Y-11074D01*
X45536Y-11027D01*
X45513Y-11003D01*
X45465Y-10979D01*
X45370Y-10979D01*
X45322Y-11003D01*
X45298Y-11027D01*
X45274Y-11074D01*
X46526Y-22377D02*
X46498Y-22363D01*
X46456Y-22363D01*
X46414Y-22377D01*
X46386Y-22405D01*
X46372Y-22433D01*
X46358Y-22490D01*
X46358Y-22532D01*
X46372Y-22588D01*
X46386Y-22616D01*
X46414Y-22644D01*
X46456Y-22658D01*
X46484Y-22658D01*
X46526Y-22644D01*
X46541Y-22630D01*
X46541Y-22532D01*
X46484Y-22532D01*
X46667Y-22658D02*
X46667Y-22363D01*
X46836Y-22658D01*
X46836Y-22363D01*
X46976Y-22658D02*
X46976Y-22363D01*
X47047Y-22363D01*
X47089Y-22377D01*
X47117Y-22405D01*
X47131Y-22433D01*
X47145Y-22490D01*
X47145Y-22532D01*
X47131Y-22588D01*
X47117Y-22616D01*
X47089Y-22644D01*
X47047Y-22658D01*
X46976Y-22658D01*
X47462Y-22807D02*
X46962Y-22807D01*
X46962Y-22616D01*
X46986Y-22569D01*
X47009Y-22545D01*
X47057Y-22521D01*
X47128Y-22521D01*
X47176Y-22545D01*
X47200Y-22569D01*
X47224Y-22616D01*
X47224Y-22807D01*
X47462Y-22307D02*
X46962Y-22307D01*
X47462Y-22069D02*
X46962Y-22069D01*
X47462Y-21783D01*
X46962Y-21783D01*
X47462Y-21545D02*
X46962Y-21545D01*
X47200Y-21545D02*
X47200Y-21259D01*
X47462Y-21259D02*
X46962Y-21259D01*
X47462Y-21021D02*
X46962Y-21021D01*
X46962Y-20902D01*
X46986Y-20831D01*
X47033Y-20783D01*
X47081Y-20759D01*
X47176Y-20736D01*
X47247Y-20736D01*
X47343Y-20759D01*
X47390Y-20783D01*
X47438Y-20831D01*
X47462Y-20902D01*
X47462Y-21021D01*
X47271Y-20521D02*
X47271Y-20140D01*
X47462Y-19640D02*
X47462Y-19926D01*
X47462Y-19783D02*
X46962Y-19783D01*
X47033Y-19831D01*
X47081Y-19878D01*
X47105Y-19926D01*
X46962Y-19474D02*
X47462Y-19140D01*
X46962Y-19140D02*
X47462Y-19474D01*
X47009Y-18974D02*
X46986Y-18950D01*
X46962Y-18902D01*
X46962Y-18783D01*
X46986Y-18736D01*
X47009Y-18712D01*
X47057Y-18688D01*
X47105Y-18688D01*
X47176Y-18712D01*
X47462Y-18997D01*
X47462Y-18688D01*
X13859Y-23304D02*
X13883Y-23233D01*
X13883Y-23113D01*
X13859Y-23066D01*
X13835Y-23042D01*
X13788Y-23018D01*
X13740Y-23018D01*
X13693Y-23042D01*
X13669Y-23066D01*
X13645Y-23113D01*
X13621Y-23209D01*
X13597Y-23256D01*
X13573Y-23280D01*
X13526Y-23304D01*
X13478Y-23304D01*
X13431Y-23280D01*
X13407Y-23256D01*
X13383Y-23209D01*
X13383Y-23090D01*
X13407Y-23018D01*
X13383Y-22852D02*
X13883Y-22733D01*
X13526Y-22637D01*
X13883Y-22542D01*
X13383Y-22423D01*
X13883Y-21971D02*
X13883Y-22256D01*
X13883Y-22113D02*
X13383Y-22113D01*
X13454Y-22161D01*
X13502Y-22209D01*
X13526Y-22256D01*
M02*
