M48
INCH,TZ
T1C0.016
T2C0.025
T3C0.031
T4C0.035
T5C0.039
T6C0.040
T7C0.051
T8C0.059
T9C0.138
%
G90
G05
T1
X3.6358Y-1.2677
X3.6358Y-1.3189
X3.6358Y-1.3701
X3.687Y-1.2677
X3.687Y-1.3189
X3.687Y-1.3701
T2
X1.1024Y-1.8996
X1.189Y-1.2441
X1.1909Y-1.5354
X1.2106Y-2.7165
X1.2205Y-1.3386
X1.2205Y-1.3976
X1.2205Y-1.4862
X1.25Y-1.6142
X1.2598Y-1.2992
X1.2697Y-1.4567
X1.2894Y-2.6969
X1.3091Y-1.2402
X1.3091Y-1.3878
X1.3189Y-1.4862
X1.3484Y-2.5295
X1.378Y-1.6142
X1.3976Y-1.7126
X1.3976Y-2.5098
X1.4173Y-1.6535
X1.4272Y-1.1811
X1.4469Y-1.9488
X1.4469Y-2.0374
X1.4567Y-2.4902
X1.4862Y-1.4961
X1.5059Y-1.2598
X1.5354Y-1.0531
X1.5453Y-1.7126
X1.565Y-1.25
X1.5945Y-2.0571
X1.624Y-2.2835
X1.6437Y-2.0177
X1.6634Y-2.3228
X1.6732Y-1.565
X1.6929Y-1.3386
X1.6929Y-1.8012
X1.6929Y-2.2736
X1.7028Y-1.8504
X1.7028Y-1.8996
X1.7618Y-1.3976
X1.7815Y-2.2146
X1.8012Y-1.9882
X1.8406Y-1.6929
X1.8602Y-1.8602
X1.8602Y-1.939
X1.8799Y-1.9783
X1.8898Y-1.3995
X1.8996Y-1.5354
X1.8996Y-1.6831
X1.8996Y-1.8996
X1.9094Y-1.3386
X1.9094Y-1.8307
X1.9291Y-1.2992
X1.9291Y-1.7913
X1.9488Y-1.6634
X1.9685Y-1.7717
X1.9685Y-2.1654
X2.0177Y-1.4862
X2.0472Y-2.0472
X2.0571Y-1.437
X2.0866Y-2.0177
X2.1063Y-2.2638
X2.1358Y-2.7264
X2.1654Y-2.2638
X2.185Y-1.4961
X2.1949Y-1.6929
X2.2146Y-1.8602
X2.2244Y-1.4567
X2.2244Y-1.9685
X2.2441Y-1.6535
X2.2638Y-1.8504
X2.3228Y-1.4961
X2.3327Y-1.1417
X2.3327Y-1.3878
X2.3327Y-2.1555
X2.3327Y-2.1949
X2.3425Y-1.8307
X2.3425Y-1.8701
X2.3425Y-1.9685
X2.3622Y-1.25
X2.372Y-2.313
X2.3819Y-1.4862
X2.3917Y-2.5197
X2.4016Y-1.1811
X2.4016Y-1.6929
X2.4311Y-1.3878
X2.4311Y-1.6437
X2.4409Y-1.2795
X2.4508Y-1.6929
X2.4508Y-1.8288
X2.4508Y-2.687
X2.4803Y-2.2736
X2.4902Y-1.1417
X2.4902Y-2.372
X2.4961Y-1.8879
X2.5098Y-1.2205
X2.5098Y-1.2697
X2.5197Y-1.0236
X2.5492Y-2.1457
X2.5787Y-1.9193
X2.6083Y-1.0925
X2.6083Y-1.1417
X2.6083Y-1.2598
X2.6083Y-1.3091
X2.6083Y-1.4173
X2.6378Y-2.6772
X2.6772Y-1.4469
X2.6772Y-1.6634
X2.6772Y-1.7126
X2.8248Y-2.6083
X2.8248Y-2.6673
X2.8642Y-1.3386
X2.8642Y-2.5689
X2.874Y-1.3976
X2.874Y-1.6535
X2.9016Y-2.5354
X2.9528Y-1.189
X2.9626Y-2.372
X2.9921Y-1.4075
X3.0073Y-1.2008
X3.0118Y-1.998
X3.061Y-1.998
X3.1594Y-1.3386
X3.1594Y-2.4902
X3.1693Y-1.2106
X3.1693Y-1.6929
X3.189Y-1.0138
X3.189Y-2.6181
X3.2283Y-2.5492
X3.2579Y-2.4508
X3.2874Y-2.2736
X3.3268Y-1.4075
X3.3366Y-1.6437
X3.376Y-1.1811
X3.3858Y-1.6535
X3.3957Y-2.2244
X3.4449Y-2.0866
X3.4941Y-2.3622
X3.5039Y-1.9291
X3.5039Y-2.6673
X3.5335Y-1.6339
X3.5335Y-1.8898
X3.563Y-1.4567
X3.5925Y-1.6929
X3.6024Y-2.0866
X3.622Y-2.2933
X3.6319Y-1.8012
X3.6319Y-2.4114
X3.6417Y-1.1516
X3.6417Y-1.2008
X3.6516Y-2.0079
X3.6614Y-1.5945
X3.6614Y-1.7618
X3.6909Y-1.1516
X3.6909Y-1.2008
X3.7106Y-1.8012
X3.7106Y-2.0079
X3.7303Y-2.4311
X3.7402Y-1.4567
X3.8386Y-1.7717
X3.8386Y-2.2343
X3.8484Y-2.3425
X3.878Y-1.063
X3.878Y-2.5098
X3.8878Y-1.998
X3.8976Y-1.7244
X3.8976Y-2.4016
X3.9567Y-1.2874
X3.9567Y-1.3386
X3.9961Y-1.5256
X4.0256Y-2.687
X4.0453Y-2.1358
X4.0551Y-1.6811
X4.0551Y-1.7323
X4.0945Y-1.2697
X4.0945Y-1.3287
X4.0945Y-1.3878
X4.1102Y-1.6811
X4.1339Y-0.9606
X4.1634Y-1.2697
X4.1634Y-1.3287
X4.1634Y-1.3898
X4.1831Y-2.1161
X4.1929Y-2.2638
X4.2224Y-2.5394
X4.2323Y-1.2697
X4.2323Y-1.3287
X4.2323Y-1.3878
X4.2441Y-1.8583
X4.269Y-1.211
X4.282Y-1.043
X4.2913Y-1.7717
X4.2913Y-1.8307
X4.311Y-2.4606
X4.3307Y-2.6181
X4.3701Y-1.7677
X4.3819Y-1.8543
X4.4213Y-1.7756
X4.439Y-1.5945
X4.4587Y-1.5256
X4.4803Y-1.8622
X4.5079Y-2.3031
X4.6654Y-2.3622
T3
X3.7008Y-2.6772
X3.7795Y-2.6772
X3.8583Y-2.6772
T4
X1.2205Y-0.9606
X1.2992Y-0.9606
X1.378Y-0.9606
X1.6339Y-0.9606
X1.7126Y-0.9606
X1.752Y-2.5827
X1.7913Y-0.9606
X1.8307Y-2.5827
X2.0472Y-0.9606
X2.0866Y-2.5827
X2.126Y-0.9606
X2.1654Y-2.5827
X2.3819Y-0.9606
X2.4606Y-0.9606
X2.7165Y-0.9606
X2.7953Y-0.9606
X3.0512Y-0.9606
X3.1299Y-0.9606
X3.3858Y-0.9606
X3.4646Y-0.9606
X3.7205Y-0.9606
X3.7992Y-0.9606
X4.0551Y-0.9606
X4.1339Y-0.9606
T5
X1.1905Y-2.4015
X1.191Y-2.1457
X1.368Y-2.1457
X1.3685Y-2.4015
T6
X0.9449Y-1.4398
X0.9449Y-1.5398
X0.9449Y-1.6398
X0.9449Y-1.7398
X0.9449Y-1.8398
X0.9449Y-1.9398
X0.9449Y-2.0398
X0.9449Y-2.1398
X0.9449Y-2.2398
X0.9449Y-2.3398
X1.0819Y-2.0079
X1.0827Y-2.1457
X1.1386Y-2.628
X1.1819Y-2.0079
X1.2386Y-2.628
X1.3386Y-2.628
X1.4386Y-2.628
X1.5386Y-2.628
X1.6594Y-1.1114
X1.6594Y-1.2114
X1.7594Y-1.1114
X1.7594Y-1.2114
X1.8594Y-1.1114
X1.8594Y-1.2114
X1.9594Y-1.1114
X1.9594Y-1.2114
X2.0594Y-1.1114
X2.0594Y-1.2114
X2.1594Y-1.1114
X2.1594Y-1.2114
X2.7059Y-1.8898
X2.8059Y-1.8898
X2.9224Y-1.8898
X3.0224Y-1.8898
X3.9567Y-1.1114
X3.9567Y-1.2114
X4.3425Y-0.8752
X4.3425Y-0.9752
X4.4882Y-2.076
X4.4882Y-2.176
X4.626Y-2.076
X4.626Y-2.176
X4.6358Y-1.2051
X4.6358Y-1.3051
X4.6358Y-1.4051
X4.6358Y-1.5051
X4.6358Y-1.6051
X4.6358Y-1.7051
X4.6358Y-1.8051
X4.6358Y-1.9051
T7
X1.1417Y-0.8661
X1.4567Y-0.8661
X1.5551Y-0.8661
X1.6732Y-2.6772
X1.8701Y-0.8661
X1.9094Y-2.6772
X1.9685Y-0.8661
X2.0079Y-2.6772
X2.2047Y-0.8661
X2.2441Y-2.6772
X2.3031Y-0.8661
X2.5394Y-0.8661
X2.6378Y-0.8661
X2.874Y-0.8661
X2.9724Y-0.8661
X3.2087Y-0.8661
X3.3071Y-0.8661
X3.5433Y-0.8661
X3.6417Y-0.8661
X3.878Y-0.8661
X3.9764Y-0.8661
X4.2126Y-0.8661
T8
X3.6181Y-2.6772
X3.9409Y-2.6772
T9
X0.9252Y-0.9843
X0.9252Y-2.5591
X4.5866Y-0.9843
X4.5866Y-2.5591
T0
M30
